%TF.GenerationSoftware,KiCad,Pcbnew,9.0.1*%
%TF.CreationDate,2025-04-20T22:50:28-04:00*%
%TF.ProjectId,NanoV3.3_Min,4e616e6f-5633-42e3-935f-4d696e2e6b69,rev?*%
%TF.SameCoordinates,Original*%
%TF.FileFunction,Copper,L1,Top*%
%TF.FilePolarity,Positive*%
%FSLAX46Y46*%
G04 Gerber Fmt 4.6, Leading zero omitted, Abs format (unit mm)*
G04 Created by KiCad (PCBNEW 9.0.1) date 2025-04-20 22:50:28*
%MOMM*%
%LPD*%
G01*
G04 APERTURE LIST*
G04 Aperture macros list*
%AMRoundRect*
0 Rectangle with rounded corners*
0 $1 Rounding radius*
0 $2 $3 $4 $5 $6 $7 $8 $9 X,Y pos of 4 corners*
0 Add a 4 corners polygon primitive as box body*
4,1,4,$2,$3,$4,$5,$6,$7,$8,$9,$2,$3,0*
0 Add four circle primitives for the rounded corners*
1,1,$1+$1,$2,$3*
1,1,$1+$1,$4,$5*
1,1,$1+$1,$6,$7*
1,1,$1+$1,$8,$9*
0 Add four rect primitives between the rounded corners*
20,1,$1+$1,$2,$3,$4,$5,0*
20,1,$1+$1,$4,$5,$6,$7,0*
20,1,$1+$1,$6,$7,$8,$9,0*
20,1,$1+$1,$8,$9,$2,$3,0*%
G04 Aperture macros list end*
%TA.AperFunction,SMDPad,CuDef*%
%ADD10RoundRect,0.180000X0.420000X0.420000X-0.420000X0.420000X-0.420000X-0.420000X0.420000X-0.420000X0*%
%TD*%
%TA.AperFunction,SMDPad,CuDef*%
%ADD11RoundRect,0.105000X-0.459619X-0.806102X0.806102X0.459619X0.459619X0.806102X-0.806102X-0.459619X0*%
%TD*%
%TA.AperFunction,SMDPad,CuDef*%
%ADD12RoundRect,0.180000X-0.420000X-0.420000X0.420000X-0.420000X0.420000X0.420000X-0.420000X0.420000X0*%
%TD*%
%TA.AperFunction,SMDPad,CuDef*%
%ADD13RoundRect,0.100000X-0.575000X0.100000X-0.575000X-0.100000X0.575000X-0.100000X0.575000X0.100000X0*%
%TD*%
%TA.AperFunction,ComponentPad*%
%ADD14O,1.600000X0.900000*%
%TD*%
%TA.AperFunction,SMDPad,CuDef*%
%ADD15RoundRect,0.250000X-0.450000X0.550000X-0.450000X-0.550000X0.450000X-0.550000X0.450000X0.550000X0*%
%TD*%
%TA.AperFunction,SMDPad,CuDef*%
%ADD16RoundRect,0.250000X-0.700000X0.700000X-0.700000X-0.700000X0.700000X-0.700000X0.700000X0.700000X0*%
%TD*%
%TA.AperFunction,SMDPad,CuDef*%
%ADD17RoundRect,0.112000X-0.188090X-0.148492X-0.148492X-0.188090X0.188090X0.148492X0.148492X0.188090X0*%
%TD*%
%TA.AperFunction,SMDPad,CuDef*%
%ADD18RoundRect,0.112000X0.148492X-0.188090X0.188090X-0.148492X-0.148492X0.188090X-0.188090X0.148492X0*%
%TD*%
%TA.AperFunction,SMDPad,CuDef*%
%ADD19RoundRect,0.488100X0.000000X-1.610648X1.610648X0.000000X0.000000X1.610648X-1.610648X0.000000X0*%
%TD*%
%TA.AperFunction,ComponentPad*%
%ADD20R,1.778000X1.778000*%
%TD*%
%TA.AperFunction,ComponentPad*%
%ADD21C,1.778000*%
%TD*%
%TA.AperFunction,ViaPad*%
%ADD22C,0.812800*%
%TD*%
%TA.AperFunction,ViaPad*%
%ADD23C,0.800000*%
%TD*%
%TA.AperFunction,ViaPad*%
%ADD24C,0.906400*%
%TD*%
%TA.AperFunction,Conductor*%
%ADD25C,0.304800*%
%TD*%
%TA.AperFunction,Conductor*%
%ADD26C,0.254000*%
%TD*%
%TA.AperFunction,Conductor*%
%ADD27C,0.250000*%
%TD*%
%TA.AperFunction,Conductor*%
%ADD28C,0.355600*%
%TD*%
%TA.AperFunction,Conductor*%
%ADD29C,0.609600*%
%TD*%
%TA.AperFunction,Conductor*%
%ADD30C,0.406400*%
%TD*%
G04 APERTURE END LIST*
D10*
%TO.P,TX1,1*%
%TO.N,+5V*%
X155736000Y-97028000D03*
%TO.P,TX1,2*%
%TO.N,Net-(RP2D-2)*%
X153636000Y-97028000D03*
%TD*%
%TO.P,RX1,1*%
%TO.N,+5V*%
X155736000Y-100076000D03*
%TO.P,RX1,2*%
%TO.N,Net-(RP2B-2)*%
X153636000Y-100076000D03*
%TD*%
D11*
%TO.P,Y1,1,1*%
%TO.N,Net-(IC1-PB6(XTAL1{slash}TOSC1))*%
X145876293Y-96576493D03*
%TO.P,Y1,2,2*%
%TO.N,COM*%
X146583400Y-97283600D03*
%TO.P,Y1,3,3*%
%TO.N,Net-(IC1-PB7(XTAL2{slash}TOSC2))*%
X147290507Y-97990707D03*
%TD*%
D12*
%TO.P,PWR1,1*%
%TO.N,Net-(RP1D-1)*%
X153600000Y-103375000D03*
%TO.P,PWR1,2*%
%TO.N,COM*%
X155700000Y-103375000D03*
%TD*%
D13*
%TO.P,J3,1,VBUS*%
%TO.N,Net-(J3-VBUS)*%
X130025000Y-100175000D03*
%TO.P,J3,2,D-*%
%TO.N,Net-(D+1-P$1)*%
X130025000Y-100825000D03*
%TO.P,J3,3,D+*%
%TO.N,Net-(D-1-P$1)*%
X130025000Y-101475000D03*
%TO.P,J3,4,ID*%
%TO.N,unconnected-(J3-ID-Pad4)*%
X130025000Y-102125000D03*
%TO.P,J3,5,GND*%
%TO.N,COM*%
X130025000Y-102775000D03*
D14*
%TO.P,J3,6,Shield*%
X127350000Y-98175000D03*
D15*
X129800000Y-98275000D03*
D16*
X127350000Y-100275000D03*
X127350000Y-102675000D03*
D15*
X129800000Y-104675000D03*
D14*
X127350000Y-104775000D03*
%TD*%
D17*
%TO.P,IC1,1,PD3(INT1)*%
%TO.N,/D3*%
X144193848Y-101155825D03*
%TO.P,IC1,2,PD4(XCK/T0)*%
%TO.N,/D4*%
X143840295Y-100802272D03*
%TO.P,IC1,3,GND*%
%TO.N,COM*%
X143486742Y-100448718D03*
%TO.P,IC1,4,VCC*%
%TO.N,+5V*%
X143133188Y-100095165D03*
%TO.P,IC1,5,GND*%
%TO.N,COM*%
X142779635Y-99741612D03*
%TO.P,IC1,6,VCC*%
%TO.N,+5V*%
X142426082Y-99388058D03*
%TO.P,IC1,7,PB6(XTAL1/TOSC1)*%
%TO.N,Net-(IC1-PB6(XTAL1{slash}TOSC1))*%
X142072528Y-99034505D03*
%TO.P,IC1,8,PB7(XTAL2/TOSC2)*%
%TO.N,Net-(IC1-PB7(XTAL2{slash}TOSC2))*%
X141718975Y-98680952D03*
D18*
%TO.P,IC1,9,PD5(T1)*%
%TO.N,/D5*%
X140729025Y-98680952D03*
%TO.P,IC1,10,PD6(AIN0)*%
%TO.N,/D6*%
X140375472Y-99034505D03*
%TO.P,IC1,11,PD7(AIN1)*%
%TO.N,/D7*%
X140021918Y-99388058D03*
%TO.P,IC1,12,PB0(ICP)*%
%TO.N,/D8*%
X139668365Y-99741612D03*
%TO.P,IC1,13,PB1(OC1A)*%
%TO.N,/D9*%
X139314812Y-100095165D03*
%TO.P,IC1,14,PB2(SS/OC1B)*%
%TO.N,/D10*%
X138961258Y-100448718D03*
%TO.P,IC1,15,PB3(MOSI/OC2)*%
%TO.N,/D11{slash}MOSI*%
X138607705Y-100802272D03*
%TO.P,IC1,16,PB4(MISO)*%
%TO.N,/D12{slash}MISO*%
X138254152Y-101155825D03*
D17*
%TO.P,IC1,17,PB5(SCK)*%
%TO.N,/D13{slash}SCK*%
X138254152Y-102145775D03*
%TO.P,IC1,18,AVCC*%
%TO.N,+5V*%
X138607705Y-102499328D03*
%TO.P,IC1,19,ADC6*%
%TO.N,/A6*%
X138961258Y-102852882D03*
%TO.P,IC1,20,AREF*%
%TO.N,/AREF*%
X139314812Y-103206435D03*
%TO.P,IC1,21,AGND*%
%TO.N,COM*%
X139668365Y-103559988D03*
%TO.P,IC1,22,ADC7*%
%TO.N,/A7*%
X140021918Y-103913542D03*
%TO.P,IC1,23,PC0(ADC0)*%
%TO.N,/A0*%
X140375472Y-104267095D03*
%TO.P,IC1,24,PC1(ADC1)*%
%TO.N,/A1*%
X140729025Y-104620648D03*
D18*
%TO.P,IC1,25,PC2(ADC2)*%
%TO.N,/A2*%
X141718975Y-104620648D03*
%TO.P,IC1,26,PC3(ADC3)*%
%TO.N,/A3*%
X142072528Y-104267095D03*
%TO.P,IC1,27,PC4(ADC4/SDA)*%
%TO.N,/A4*%
X142426082Y-103913542D03*
%TO.P,IC1,28,PC5(ADC5/SCL)*%
%TO.N,/A5*%
X142779635Y-103559988D03*
%TO.P,IC1,29,PC6(/RESET)*%
%TO.N,/RESET*%
X143133188Y-103206435D03*
%TO.P,IC1,30,PD0(RXD)*%
%TO.N,/D0{slash}RX*%
X143486742Y-102852882D03*
%TO.P,IC1,31,PD1(TXD)*%
%TO.N,/D1{slash}TX*%
X143840295Y-102499328D03*
%TO.P,IC1,32,PD2(INT0)*%
%TO.N,/D2*%
X144193848Y-102145775D03*
D19*
%TO.P,IC1,33,GND*%
%TO.N,COM*%
X141224000Y-101650800D03*
%TD*%
D20*
%TO.P,J1,1,1*%
%TO.N,/D1{slash}TX*%
X165100000Y-93980000D03*
D21*
%TO.P,J1,2,2*%
%TO.N,/D0{slash}RX*%
X162560000Y-93980000D03*
%TO.P,J1,3,3*%
%TO.N,/RESET*%
X160020000Y-93980000D03*
%TO.P,J1,4,4*%
%TO.N,COM*%
X157480000Y-93980000D03*
%TO.P,J1,5,5*%
%TO.N,/D2*%
X154940000Y-93980000D03*
%TO.P,J1,6,6*%
%TO.N,/D3*%
X152400000Y-93980000D03*
%TO.P,J1,7,7*%
%TO.N,/D4*%
X149860000Y-93980000D03*
%TO.P,J1,8,8*%
%TO.N,/D5*%
X147320000Y-93980000D03*
%TO.P,J1,9,9*%
%TO.N,/D6*%
X144780000Y-93980000D03*
%TO.P,J1,10,10*%
%TO.N,/D7*%
X142240000Y-93980000D03*
%TO.P,J1,11,11*%
%TO.N,/D8*%
X139700000Y-93980000D03*
%TO.P,J1,12,12*%
%TO.N,/D9*%
X137160000Y-93980000D03*
%TO.P,J1,13,13*%
%TO.N,/D10*%
X134620000Y-93980000D03*
%TO.P,J1,14,14*%
%TO.N,/D11{slash}MOSI*%
X132080000Y-93980000D03*
%TO.P,J1,15,15*%
%TO.N,/D12{slash}MISO*%
X129540000Y-93980000D03*
%TD*%
D20*
%TO.P,J2,1,1*%
%TO.N,+5V*%
X165100000Y-109220000D03*
D21*
%TO.P,J2,2,2*%
%TO.N,COM*%
X162560000Y-109220000D03*
%TO.P,J2,3,3*%
%TO.N,/RESET*%
X160020000Y-109220000D03*
%TO.P,J2,4,4*%
%TO.N,+5V*%
X157480000Y-109220000D03*
%TO.P,J2,5,5*%
%TO.N,/A7*%
X154940000Y-109220000D03*
%TO.P,J2,6,6*%
%TO.N,/A6*%
X152400000Y-109220000D03*
%TO.P,J2,7,7*%
%TO.N,/A5*%
X149860000Y-109220000D03*
%TO.P,J2,8,8*%
%TO.N,/A4*%
X147320000Y-109220000D03*
%TO.P,J2,9,9*%
%TO.N,/A3*%
X144780000Y-109220000D03*
%TO.P,J2,10,10*%
%TO.N,/A2*%
X142240000Y-109220000D03*
%TO.P,J2,11,11*%
%TO.N,/A1*%
X139700000Y-109220000D03*
%TO.P,J2,12,12*%
%TO.N,/A0*%
X137160000Y-109220000D03*
%TO.P,J2,13,13*%
%TO.N,/AREF*%
X134620000Y-109220000D03*
%TO.P,J2,14,14*%
%TO.N,3V3*%
X132080000Y-109220000D03*
%TO.P,J2,15,15*%
%TO.N,/D13{slash}SCK*%
X129540000Y-109220000D03*
%TD*%
D22*
%TO.N,COM*%
X152400000Y-96163000D03*
X155925000Y-95475000D03*
X145075000Y-101650000D03*
D23*
X136375000Y-107270600D03*
D24*
%TO.N,/RESET*%
X144430000Y-105790000D03*
D23*
X158875707Y-102337377D03*
%TO.N,Net-(D+1-P$1)*%
X131807331Y-99702342D03*
%TO.N,Net-(D-1-P$1)*%
X132454700Y-100700000D03*
%TO.N,Net-(J3-VBUS)*%
X130576182Y-99618685D03*
D22*
%TO.N,COM*%
X142575000Y-101575000D03*
X132550000Y-103275000D03*
D24*
X141230000Y-99990000D03*
D23*
X158050000Y-103700000D03*
D22*
X149325000Y-100575000D03*
D24*
X141430000Y-97490000D03*
D22*
X157988000Y-106095800D03*
D24*
X139950000Y-101625000D03*
D22*
X134150000Y-100400000D03*
D24*
X143930000Y-97490000D03*
D22*
X152273000Y-97688400D03*
X146750000Y-100575000D03*
X128422400Y-107772200D03*
X133850000Y-96475000D03*
X135100000Y-103175000D03*
D24*
X136525000Y-100875000D03*
D22*
X160020000Y-106349800D03*
X160525000Y-96875000D03*
D24*
%TO.N,+5V*%
X143930000Y-99290000D03*
X156972000Y-97790000D03*
D23*
X155778000Y-106050000D03*
D24*
X137330000Y-103290000D03*
D23*
X149295546Y-106762600D03*
D24*
X145967543Y-105482400D03*
D23*
%TO.N,VUSB*%
X128947102Y-99580697D03*
D24*
X129350000Y-95825000D03*
D22*
%TO.N,/A6*%
X134772400Y-107442000D03*
%TO.N,/A7*%
X137464800Y-107061000D03*
%TO.N,/D0{slash}RX*%
X150300000Y-102375000D03*
D24*
X164150000Y-96075000D03*
%TO.N,/D1{slash}TX*%
X151050000Y-101425000D03*
%TO.N,Net-(RP1D-1)*%
X152550000Y-105250000D03*
%TO.N,Net-(RP2B-2)*%
X151892000Y-98780600D03*
D22*
%TO.N,Net-(RP2D-2)*%
X151307800Y-97053400D03*
%TD*%
D25*
%TO.N,Net-(RP2D-2)*%
X151436200Y-96925000D02*
X151307800Y-97053400D01*
X153533000Y-96925000D02*
X151436200Y-96925000D01*
X153636000Y-97028000D02*
X153533000Y-96925000D01*
D26*
%TO.N,/AREF*%
X139314812Y-103206435D02*
X135508999Y-107012248D01*
X135508999Y-108331001D02*
X134620000Y-109220000D01*
X135508999Y-107012248D02*
X135508999Y-108331001D01*
D27*
%TO.N,/RESET*%
X152350000Y-102325000D02*
X150815400Y-103859600D01*
X143786353Y-103859600D02*
X143133188Y-103206435D01*
X144430000Y-104503247D02*
X144430000Y-105790000D01*
X158875707Y-102337377D02*
X158863330Y-102325000D01*
X143786353Y-103859600D02*
X144430000Y-104503247D01*
X158863330Y-102325000D02*
X152350000Y-102325000D01*
X150815400Y-103859600D02*
X143786353Y-103859600D01*
%TO.N,Net-(D+1-P$1)*%
X129900000Y-100825000D02*
X129875000Y-100800000D01*
X130684673Y-100825000D02*
X130025000Y-100825000D01*
X131807331Y-99702342D02*
X130684673Y-100825000D01*
%TO.N,Net-(D-1-P$1)*%
X131679700Y-101475000D02*
X130025000Y-101475000D01*
X132454700Y-100700000D02*
X131679700Y-101475000D01*
%TO.N,Net-(J3-VBUS)*%
X130025000Y-100169867D02*
X130025000Y-100175000D01*
X130576182Y-99618685D02*
X130025000Y-100169867D01*
D26*
%TO.N,COM*%
X142779635Y-99741612D02*
X141224000Y-101297247D01*
X142284660Y-101650800D02*
X141224000Y-101650800D01*
X143486742Y-100448718D02*
X142284660Y-101650800D01*
X141224000Y-102004353D02*
X141224000Y-101650800D01*
D27*
X157725000Y-103375000D02*
X155700000Y-103375000D01*
X158050000Y-103700000D02*
X157725000Y-103375000D01*
D26*
X141224000Y-101297247D02*
X141224000Y-101650800D01*
X139668365Y-103559988D02*
X141224000Y-102004353D01*
D28*
%TO.N,+5V*%
X155736011Y-100076000D02*
X155736011Y-97028000D01*
D26*
X143930000Y-99298353D02*
X143930000Y-99290000D01*
X143133188Y-100095165D02*
X143930000Y-99298353D01*
D29*
X155778000Y-106050000D02*
X155028000Y-106800000D01*
X147285143Y-106800000D02*
X145967543Y-105482400D01*
D26*
X138607705Y-102499328D02*
X137817033Y-103290000D01*
D28*
X156972000Y-97790000D02*
X155736011Y-97790000D01*
D26*
X143344400Y-98704400D02*
X143930000Y-99290000D01*
X137817033Y-103290000D02*
X137330000Y-103290000D01*
X142426082Y-99388058D02*
X143109740Y-98704400D01*
X143109740Y-98704400D02*
X143344400Y-98704400D01*
D29*
X155028000Y-106800000D02*
X147285143Y-106800000D01*
D26*
%TO.N,/D3*%
X145559673Y-99790000D02*
X147352000Y-99790000D01*
X144193848Y-101155825D02*
X145559673Y-99790000D01*
X149428200Y-96951800D02*
X149428200Y-97713800D01*
X149428200Y-97713800D02*
X147352000Y-99790000D01*
X152400000Y-93980000D02*
X149428200Y-96951800D01*
D30*
%TO.N,VUSB*%
X128693600Y-99327195D02*
X128693600Y-96481400D01*
X128947102Y-99580697D02*
X128693600Y-99327195D01*
X128693600Y-96481400D02*
X129350000Y-95825000D01*
D26*
%TO.N,/D4*%
X147166200Y-99290000D02*
X145352567Y-99290000D01*
X148971000Y-96762422D02*
X148971000Y-97485200D01*
X149860000Y-95873422D02*
X148971000Y-96762422D01*
X149860000Y-93980000D02*
X149860000Y-95873422D01*
X148971000Y-97485200D02*
X147166200Y-99290000D01*
X145352567Y-99290000D02*
X143840295Y-100802272D01*
%TO.N,Net-(IC1-PB7(XTAL2{slash}TOSC2))*%
X147290507Y-97990707D02*
X148250000Y-97031214D01*
X143181000Y-96139000D02*
X142430000Y-96890000D01*
X147600000Y-95325000D02*
X146095000Y-95325000D01*
X148250000Y-97031214D02*
X148250000Y-95975000D01*
X145281000Y-96139000D02*
X143181000Y-96139000D01*
X142430000Y-96890000D02*
X142430000Y-97969927D01*
X146095000Y-95325000D02*
X145281000Y-96139000D01*
X148250000Y-95975000D02*
X147600000Y-95325000D01*
X142430000Y-97969927D02*
X141718975Y-98680952D01*
%TO.N,Net-(IC1-PB6(XTAL1{slash}TOSC1))*%
X142930000Y-97074600D02*
X143408880Y-96595720D01*
X142930000Y-98177033D02*
X142930000Y-97074600D01*
X143408880Y-96595720D02*
X145857066Y-96595720D01*
X142072528Y-99034505D02*
X142930000Y-98177033D01*
%TO.N,/D5*%
X142088080Y-95682280D02*
X145058920Y-95682280D01*
X146761200Y-93980000D02*
X147320000Y-93980000D01*
X142087600Y-95681800D02*
X142088080Y-95682280D01*
X140530000Y-98481927D02*
X140530000Y-97239400D01*
X140729025Y-98680952D02*
X140530000Y-98481927D01*
X140530000Y-97239400D02*
X142087600Y-95681800D01*
X145058920Y-95682280D02*
X146761200Y-93980000D01*
%TO.N,/D6*%
X143535400Y-95224600D02*
X144780000Y-93980000D01*
X140030000Y-97079000D02*
X141884400Y-95224600D01*
X140030000Y-98689033D02*
X140030000Y-97079000D01*
X140375472Y-99034505D02*
X140030000Y-98689033D01*
X141884400Y-95224600D02*
X143535400Y-95224600D01*
%TO.N,/D7*%
X140021918Y-99388058D02*
X139530000Y-98896140D01*
X142240000Y-93980000D02*
X142240000Y-94180000D01*
X139530000Y-98896140D02*
X139530000Y-96890000D01*
X139530000Y-96890000D02*
X142240000Y-94180000D01*
%TO.N,/D8*%
X139030000Y-99103247D02*
X139030000Y-96690000D01*
X139668365Y-99741612D02*
X139030000Y-99103247D01*
X139700000Y-93980000D02*
X139700000Y-96020000D01*
X139700000Y-96020000D02*
X139030000Y-96690000D01*
%TO.N,/D9*%
X138530000Y-95350000D02*
X137160000Y-93980000D01*
X139314812Y-100095165D02*
X138530000Y-99310353D01*
X138530000Y-99310353D02*
X138530000Y-95350000D01*
%TO.N,/D10*%
X138961258Y-100448718D02*
X137986720Y-99474180D01*
X137986720Y-99474180D02*
X137986720Y-97346720D01*
X137986720Y-97346720D02*
X134620000Y-93980000D01*
%TO.N,/D11{slash}MOSI*%
X132080000Y-93980000D02*
X133299680Y-95199680D01*
X137530000Y-97550400D02*
X135178800Y-95199200D01*
X133299680Y-95199680D02*
X135178320Y-95199680D01*
X138607705Y-100802272D02*
X137530000Y-99724567D01*
X137530000Y-99724567D02*
X137530000Y-97550400D01*
X135178320Y-95199680D02*
X135178800Y-95199200D01*
%TO.N,/D12{slash}MISO*%
X138254152Y-101155825D02*
X137030000Y-99931673D01*
X134899400Y-95656400D02*
X131216400Y-95656400D01*
X137030000Y-97787000D02*
X134899400Y-95656400D01*
X129540000Y-93980000D02*
X131216400Y-95656400D01*
X137030000Y-99931673D02*
X137030000Y-97787000D01*
%TO.N,/D13{slash}SCK*%
X130350000Y-109220000D02*
X129540000Y-109220000D01*
X133130000Y-107890000D02*
X136430000Y-104590000D01*
X137174225Y-102145775D02*
X136430000Y-102890000D01*
X138254152Y-102145775D02*
X137174225Y-102145775D01*
X131680000Y-107890000D02*
X130350000Y-109220000D01*
X133130000Y-107890000D02*
X131680000Y-107890000D01*
X136430000Y-104590000D02*
X136430000Y-102890000D01*
%TO.N,/A6*%
X134772400Y-107041740D02*
X134772400Y-107442000D01*
X138961258Y-102852882D02*
X134772400Y-107041740D01*
%TO.N,/A7*%
X140021918Y-103913542D02*
X138025000Y-105910460D01*
X138025000Y-105910460D02*
X138025000Y-106500800D01*
X138025000Y-106500800D02*
X137464800Y-107061000D01*
%TO.N,/A0*%
X139230000Y-105412567D02*
X140375472Y-104267095D01*
X137160000Y-108508800D02*
X139230000Y-106438800D01*
X137160000Y-109220000D02*
X137160000Y-108508800D01*
X139230000Y-106438800D02*
X139230000Y-105412567D01*
%TO.N,/A1*%
X139700000Y-105649675D02*
X140729025Y-104620650D01*
X139700000Y-109220000D02*
X139700000Y-105649675D01*
%TO.N,/A2*%
X142029993Y-104931666D02*
X141718975Y-104620648D01*
X142029993Y-109009993D02*
X142029993Y-104931666D01*
X142240000Y-109220000D02*
X142029993Y-109009993D01*
%TO.N,/A3*%
X142072528Y-104267095D02*
X142530000Y-104724567D01*
X142530000Y-106970000D02*
X144780000Y-109220000D01*
X142530000Y-104724567D02*
X142530000Y-106970000D01*
%TO.N,/A4*%
X147116800Y-107950000D02*
X147320000Y-108153200D01*
X143030000Y-104517460D02*
X143030000Y-106690000D01*
X147116800Y-107950000D02*
X144290000Y-107950000D01*
X143030000Y-106690000D02*
X144290000Y-107950000D01*
X147320000Y-108153200D02*
X147320000Y-109220000D01*
X142426082Y-103913542D02*
X143030000Y-104517460D01*
%TO.N,/A5*%
X149453600Y-107492800D02*
X149860000Y-107899200D01*
X144732800Y-107492800D02*
X149453600Y-107492800D01*
X144732800Y-107492800D02*
X143530000Y-106290000D01*
X143530000Y-104310353D02*
X143530000Y-106290000D01*
X149860000Y-107899200D02*
X149860000Y-109220000D01*
X142779635Y-103559988D02*
X143530000Y-104310353D01*
%TO.N,/D0{slash}RX*%
X144038260Y-103404400D02*
X143486742Y-102852882D01*
X150300000Y-102375000D02*
X147771578Y-102375000D01*
X151207895Y-102375000D02*
X151975695Y-101607200D01*
X158869800Y-101607200D02*
X164150000Y-96327000D01*
X146742178Y-103404400D02*
X144038260Y-103404400D01*
X151975695Y-101607200D02*
X158869800Y-101607200D01*
X164150000Y-96327000D02*
X164150000Y-96075000D01*
X150300000Y-102375000D02*
X151207895Y-102375000D01*
X147771578Y-102375000D02*
X146742178Y-103404400D01*
%TO.N,/D1{slash}TX*%
X151325000Y-101150000D02*
X157930000Y-101150000D01*
X144288161Y-102947200D02*
X143840293Y-102499332D01*
X157930000Y-101150000D02*
X165100000Y-93980000D01*
X151050000Y-101425000D02*
X151325000Y-101150000D01*
X150875000Y-101600000D02*
X147900000Y-101600000D01*
X151050000Y-101425000D02*
X150875000Y-101600000D01*
X147900000Y-101600000D02*
X146552800Y-102947200D01*
X146552800Y-102947200D02*
X144288161Y-102947200D01*
%TO.N,/D2*%
X153670000Y-95250000D02*
X154940000Y-93980000D01*
X151866600Y-95250000D02*
X153670000Y-95250000D01*
X150088600Y-97790000D02*
X150088600Y-97028000D01*
X148030000Y-99848600D02*
X150088600Y-97790000D01*
X148030000Y-100490000D02*
X148030000Y-99848600D01*
X146030000Y-102490000D02*
X148030000Y-100490000D01*
X144193848Y-102145775D02*
X144538073Y-102490000D01*
X144538073Y-102490000D02*
X146030000Y-102490000D01*
X150088600Y-97028000D02*
X151866600Y-95250000D01*
%TO.N,Net-(RP1D-1)*%
X152550000Y-105250000D02*
X153600000Y-104200000D01*
X153600000Y-104200000D02*
X153600000Y-103375000D01*
D25*
%TO.N,Net-(RP2B-2)*%
X153636000Y-100076000D02*
X152340600Y-98780600D01*
X152340600Y-98780600D02*
X151892000Y-98780600D01*
D29*
%TO.N,+5V*%
X165100000Y-105850000D02*
X165100000Y-109220000D01*
X163950000Y-104700000D02*
X165100000Y-105850000D01*
X155778000Y-106050000D02*
X157128000Y-104700000D01*
X157128000Y-104700000D02*
X163950000Y-104700000D01*
%TD*%
%TA.AperFunction,Conductor*%
%TO.N,COM*%
G36*
X139591310Y-103519777D02*
G01*
X139615397Y-103521500D01*
X139623669Y-103526816D01*
X139630103Y-103528216D01*
X139655919Y-103547542D01*
X139680811Y-103572434D01*
X139711407Y-103628465D01*
X139706852Y-103692143D01*
X139680813Y-103732662D01*
X139648524Y-103764952D01*
X139564371Y-103849105D01*
X139562903Y-103851018D01*
X139533869Y-103888853D01*
X139533868Y-103888855D01*
X139528595Y-103895727D01*
X139526935Y-103894453D01*
X139518033Y-103908308D01*
X139315855Y-104110485D01*
X139306321Y-104125534D01*
X137806349Y-105625509D01*
X137740050Y-105691807D01*
X137740048Y-105691810D01*
X137693167Y-105773009D01*
X137668900Y-105863578D01*
X137668900Y-106306366D01*
X137661001Y-106333267D01*
X137655038Y-106360671D01*
X137651610Y-106365248D01*
X137650914Y-106367621D01*
X137635710Y-106386486D01*
X137628015Y-106394180D01*
X137571981Y-106424772D01*
X137533021Y-106425122D01*
X137532931Y-106426046D01*
X137527394Y-106425500D01*
X137527391Y-106425500D01*
X137402209Y-106425500D01*
X137402205Y-106425500D01*
X137279428Y-106449922D01*
X137279422Y-106449924D01*
X137163786Y-106497822D01*
X137163772Y-106497829D01*
X137059696Y-106567371D01*
X137059689Y-106567377D01*
X136971177Y-106655889D01*
X136971171Y-106655896D01*
X136901629Y-106759972D01*
X136901622Y-106759986D01*
X136853724Y-106875622D01*
X136853722Y-106875628D01*
X136829300Y-106998405D01*
X136829300Y-107123594D01*
X136853722Y-107246371D01*
X136853724Y-107246377D01*
X136901622Y-107362013D01*
X136901629Y-107362027D01*
X136971171Y-107466103D01*
X136971177Y-107466110D01*
X137059689Y-107554622D01*
X137059696Y-107554628D01*
X137163772Y-107624170D01*
X137163786Y-107624177D01*
X137273873Y-107669777D01*
X137323582Y-107709835D01*
X137343743Y-107770408D01*
X137327954Y-107832266D01*
X137310630Y-107854567D01*
X137087690Y-108077506D01*
X137031658Y-108108102D01*
X137025300Y-108109296D01*
X136898185Y-108129430D01*
X136898178Y-108129432D01*
X136730798Y-108183816D01*
X136730794Y-108183818D01*
X136573988Y-108263715D01*
X136431607Y-108367160D01*
X136307160Y-108491607D01*
X136203715Y-108633988D01*
X136123818Y-108790794D01*
X136123816Y-108790798D01*
X136069432Y-108958178D01*
X136069430Y-108958186D01*
X136041900Y-109132005D01*
X136041900Y-109307994D01*
X136069430Y-109481813D01*
X136069431Y-109481819D01*
X136069432Y-109481822D01*
X136123816Y-109649201D01*
X136203715Y-109806012D01*
X136307161Y-109948393D01*
X136431607Y-110072839D01*
X136549237Y-110158302D01*
X136588220Y-110208857D01*
X136593683Y-110272463D01*
X136563891Y-110328926D01*
X136508302Y-110360318D01*
X136482641Y-110363263D01*
X135297347Y-110363273D01*
X135236092Y-110345288D01*
X135194285Y-110297040D01*
X135185199Y-110233850D01*
X135211719Y-110175778D01*
X135230745Y-110158314D01*
X135348393Y-110072839D01*
X135472839Y-109948393D01*
X135576285Y-109806012D01*
X135656184Y-109649201D01*
X135710568Y-109481822D01*
X135738100Y-109307996D01*
X135738100Y-109132004D01*
X135710568Y-108958178D01*
X135656184Y-108790799D01*
X135656178Y-108790788D01*
X135654872Y-108787632D01*
X135652920Y-108769471D01*
X135646539Y-108752362D01*
X135649579Y-108738383D01*
X135648051Y-108724157D01*
X135656227Y-108707824D01*
X135660109Y-108689980D01*
X135675359Y-108669608D01*
X135676630Y-108667070D01*
X135679407Y-108664192D01*
X135718321Y-108625279D01*
X135718326Y-108625275D01*
X135727648Y-108615952D01*
X135727650Y-108615952D01*
X135793950Y-108549652D01*
X135840832Y-108468451D01*
X135865099Y-108377882D01*
X135865099Y-107206678D01*
X135883085Y-107145423D01*
X135898279Y-107126568D01*
X139102816Y-103922030D01*
X139114965Y-103915396D01*
X139320034Y-103710326D01*
X139329803Y-103703000D01*
X139332233Y-103699754D01*
X139333011Y-103699463D01*
X139339498Y-103694485D01*
X139339501Y-103694484D01*
X139379251Y-103663982D01*
X139495693Y-103547539D01*
X139502949Y-103543576D01*
X139507906Y-103536956D01*
X139530522Y-103528520D01*
X139551719Y-103516946D01*
X139559972Y-103517536D01*
X139567721Y-103514646D01*
X139591310Y-103519777D01*
G37*
%TD.AperFunction*%
%TA.AperFunction,Conductor*%
G36*
X163743177Y-105251886D02*
G01*
X163762037Y-105267085D01*
X164532915Y-106037963D01*
X164563511Y-106093994D01*
X164566100Y-106118078D01*
X164566100Y-107988600D01*
X164548114Y-108049855D01*
X164499867Y-108091661D01*
X164452800Y-108101900D01*
X164188434Y-108101900D01*
X164121610Y-108115192D01*
X164045828Y-108165828D01*
X163995192Y-108241610D01*
X163981900Y-108308434D01*
X163981900Y-110131565D01*
X163995193Y-110198390D01*
X163998504Y-110206384D01*
X164005326Y-110269858D01*
X163976749Y-110326946D01*
X163921844Y-110359520D01*
X163893828Y-110363039D01*
X163280023Y-110363044D01*
X163218768Y-110345059D01*
X163176961Y-110296811D01*
X163167875Y-110233621D01*
X163194395Y-110175549D01*
X163213426Y-110158082D01*
X163222258Y-110151665D01*
X162720826Y-109650234D01*
X162736473Y-109646042D01*
X162840727Y-109585851D01*
X162925851Y-109500727D01*
X162986042Y-109396473D01*
X162990234Y-109380826D01*
X163491665Y-109882258D01*
X163491666Y-109882257D01*
X163537577Y-109819067D01*
X163537582Y-109819060D01*
X163619256Y-109658765D01*
X163619257Y-109658764D01*
X163674855Y-109487648D01*
X163674856Y-109487644D01*
X163703000Y-109309954D01*
X163703000Y-109130045D01*
X163674856Y-108952355D01*
X163674855Y-108952351D01*
X163619256Y-108781235D01*
X163537582Y-108620941D01*
X163537578Y-108620935D01*
X163491666Y-108557741D01*
X163491665Y-108557740D01*
X162990234Y-109059172D01*
X162986042Y-109043527D01*
X162925851Y-108939273D01*
X162840727Y-108854149D01*
X162736473Y-108793958D01*
X162720824Y-108789765D01*
X163222257Y-108288333D01*
X163222257Y-108288332D01*
X163159064Y-108242421D01*
X163159058Y-108242417D01*
X162998764Y-108160743D01*
X162998764Y-108160742D01*
X162827648Y-108105144D01*
X162827644Y-108105143D01*
X162649954Y-108077000D01*
X162470046Y-108077000D01*
X162292355Y-108105143D01*
X162292351Y-108105144D01*
X162121235Y-108160742D01*
X162121235Y-108160743D01*
X161960940Y-108242417D01*
X161960926Y-108242426D01*
X161897741Y-108288331D01*
X161897741Y-108288333D01*
X162399173Y-108789765D01*
X162383527Y-108793958D01*
X162279273Y-108854149D01*
X162194149Y-108939273D01*
X162133958Y-109043527D01*
X162129765Y-109059173D01*
X161628333Y-108557741D01*
X161628331Y-108557741D01*
X161582426Y-108620926D01*
X161582417Y-108620940D01*
X161500743Y-108781235D01*
X161500742Y-108781235D01*
X161445144Y-108952351D01*
X161445143Y-108952355D01*
X161417000Y-109130045D01*
X161417000Y-109309954D01*
X161445143Y-109487644D01*
X161445144Y-109487648D01*
X161500743Y-109658764D01*
X161582417Y-109819058D01*
X161582421Y-109819064D01*
X161628332Y-109882257D01*
X161628333Y-109882257D01*
X162129765Y-109380826D01*
X162133958Y-109396473D01*
X162194149Y-109500727D01*
X162279273Y-109585851D01*
X162383527Y-109646042D01*
X162399172Y-109650234D01*
X161897740Y-110151665D01*
X161897740Y-110151666D01*
X161906588Y-110158094D01*
X161945572Y-110208650D01*
X161951035Y-110272256D01*
X161921243Y-110328719D01*
X161865654Y-110360111D01*
X161839993Y-110363056D01*
X160697633Y-110363065D01*
X160636378Y-110345080D01*
X160594571Y-110296832D01*
X160585485Y-110233642D01*
X160612005Y-110175570D01*
X160631030Y-110158107D01*
X160748393Y-110072839D01*
X160872839Y-109948393D01*
X160976285Y-109806012D01*
X161056184Y-109649201D01*
X161110568Y-109481822D01*
X161138100Y-109307996D01*
X161138100Y-109132004D01*
X161110568Y-108958178D01*
X161056184Y-108790799D01*
X160976285Y-108633988D01*
X160872839Y-108491607D01*
X160748393Y-108367161D01*
X160606012Y-108263715D01*
X160449201Y-108183816D01*
X160281822Y-108129432D01*
X160281819Y-108129431D01*
X160281813Y-108129430D01*
X160154691Y-108109296D01*
X160107996Y-108101900D01*
X159932004Y-108101900D01*
X159885309Y-108109296D01*
X159758186Y-108129430D01*
X159758178Y-108129432D01*
X159590798Y-108183816D01*
X159590794Y-108183818D01*
X159433988Y-108263715D01*
X159291607Y-108367160D01*
X159167160Y-108491607D01*
X159063715Y-108633988D01*
X158983818Y-108790794D01*
X158983816Y-108790798D01*
X158929432Y-108958178D01*
X158929430Y-108958186D01*
X158901900Y-109132005D01*
X158901900Y-109307994D01*
X158929430Y-109481813D01*
X158929431Y-109481819D01*
X158929432Y-109481822D01*
X158983816Y-109649201D01*
X159063715Y-109806012D01*
X159167161Y-109948393D01*
X159291607Y-110072839D01*
X159328828Y-110099882D01*
X159408978Y-110158114D01*
X159447962Y-110208670D01*
X159453425Y-110272276D01*
X159423633Y-110328739D01*
X159368044Y-110360132D01*
X159342383Y-110363076D01*
X158157604Y-110363086D01*
X158096349Y-110345101D01*
X158054542Y-110296853D01*
X158045456Y-110233663D01*
X158071976Y-110175591D01*
X158091001Y-110158129D01*
X158208393Y-110072839D01*
X158332839Y-109948393D01*
X158436285Y-109806012D01*
X158516184Y-109649201D01*
X158570568Y-109481822D01*
X158598100Y-109307996D01*
X158598100Y-109132004D01*
X158570568Y-108958178D01*
X158516184Y-108790799D01*
X158436285Y-108633988D01*
X158332839Y-108491607D01*
X158208393Y-108367161D01*
X158066012Y-108263715D01*
X157909201Y-108183816D01*
X157741822Y-108129432D01*
X157741819Y-108129431D01*
X157741813Y-108129430D01*
X157614691Y-108109296D01*
X157567996Y-108101900D01*
X157392004Y-108101900D01*
X157345309Y-108109296D01*
X157218186Y-108129430D01*
X157218178Y-108129432D01*
X157050798Y-108183816D01*
X157050794Y-108183818D01*
X156893988Y-108263715D01*
X156751607Y-108367160D01*
X156627160Y-108491607D01*
X156523715Y-108633988D01*
X156443818Y-108790794D01*
X156443816Y-108790798D01*
X156389432Y-108958178D01*
X156389430Y-108958186D01*
X156361900Y-109132005D01*
X156361900Y-109307994D01*
X156389430Y-109481813D01*
X156389431Y-109481819D01*
X156389432Y-109481822D01*
X156443816Y-109649201D01*
X156523715Y-109806012D01*
X156627161Y-109948393D01*
X156751607Y-110072839D01*
X156868950Y-110158094D01*
X156869007Y-110158135D01*
X156907991Y-110208691D01*
X156913454Y-110272297D01*
X156883662Y-110328760D01*
X156828073Y-110360153D01*
X156802412Y-110363097D01*
X155617576Y-110363107D01*
X155556321Y-110345122D01*
X155514514Y-110296874D01*
X155505428Y-110233684D01*
X155531948Y-110175612D01*
X155550976Y-110158146D01*
X155668393Y-110072839D01*
X155792839Y-109948393D01*
X155896285Y-109806012D01*
X155976184Y-109649201D01*
X156030568Y-109481822D01*
X156058100Y-109307996D01*
X156058100Y-109132004D01*
X156030568Y-108958178D01*
X155976184Y-108790799D01*
X155896285Y-108633988D01*
X155792839Y-108491607D01*
X155668393Y-108367161D01*
X155526012Y-108263715D01*
X155369201Y-108183816D01*
X155201822Y-108129432D01*
X155201819Y-108129431D01*
X155201813Y-108129430D01*
X155074691Y-108109296D01*
X155027996Y-108101900D01*
X154852004Y-108101900D01*
X154805309Y-108109296D01*
X154678186Y-108129430D01*
X154678178Y-108129432D01*
X154510798Y-108183816D01*
X154510794Y-108183818D01*
X154353988Y-108263715D01*
X154211607Y-108367160D01*
X154087160Y-108491607D01*
X153983715Y-108633988D01*
X153903818Y-108790794D01*
X153903816Y-108790798D01*
X153849432Y-108958178D01*
X153849430Y-108958186D01*
X153821900Y-109132005D01*
X153821900Y-109307994D01*
X153849430Y-109481813D01*
X153849431Y-109481819D01*
X153849432Y-109481822D01*
X153903816Y-109649201D01*
X153983715Y-109806012D01*
X154087161Y-109948393D01*
X154211607Y-110072839D01*
X154329020Y-110158145D01*
X154329036Y-110158156D01*
X154368020Y-110208712D01*
X154373483Y-110272318D01*
X154343691Y-110328781D01*
X154288102Y-110360174D01*
X154262441Y-110363118D01*
X153077547Y-110363127D01*
X153016292Y-110345141D01*
X152974485Y-110296894D01*
X152965399Y-110233704D01*
X152991919Y-110175632D01*
X153010947Y-110158168D01*
X153128393Y-110072839D01*
X153252839Y-109948393D01*
X153356285Y-109806012D01*
X153436184Y-109649201D01*
X153490568Y-109481822D01*
X153518100Y-109307996D01*
X153518100Y-109132004D01*
X153490568Y-108958178D01*
X153436184Y-108790799D01*
X153356285Y-108633988D01*
X153252839Y-108491607D01*
X153128393Y-108367161D01*
X152986012Y-108263715D01*
X152829201Y-108183816D01*
X152661822Y-108129432D01*
X152661819Y-108129431D01*
X152661813Y-108129430D01*
X152534691Y-108109296D01*
X152487996Y-108101900D01*
X152312004Y-108101900D01*
X152265309Y-108109296D01*
X152138186Y-108129430D01*
X152138178Y-108129432D01*
X151970798Y-108183816D01*
X151970794Y-108183818D01*
X151813988Y-108263715D01*
X151671607Y-108367160D01*
X151547160Y-108491607D01*
X151443715Y-108633988D01*
X151363818Y-108790794D01*
X151363816Y-108790798D01*
X151309432Y-108958178D01*
X151309430Y-108958186D01*
X151281900Y-109132005D01*
X151281900Y-109307994D01*
X151309430Y-109481813D01*
X151309431Y-109481819D01*
X151309432Y-109481822D01*
X151363816Y-109649201D01*
X151443715Y-109806012D01*
X151547161Y-109948393D01*
X151671607Y-110072839D01*
X151789065Y-110158177D01*
X151828048Y-110208732D01*
X151833511Y-110272338D01*
X151803719Y-110328801D01*
X151748130Y-110360193D01*
X151722469Y-110363138D01*
X150537518Y-110363148D01*
X150476263Y-110345163D01*
X150434456Y-110296915D01*
X150425370Y-110233725D01*
X150451890Y-110175653D01*
X150470917Y-110158189D01*
X150588393Y-110072839D01*
X150712839Y-109948393D01*
X150816285Y-109806012D01*
X150896184Y-109649201D01*
X150950568Y-109481822D01*
X150978100Y-109307996D01*
X150978100Y-109132004D01*
X150950568Y-108958178D01*
X150896184Y-108790799D01*
X150816285Y-108633988D01*
X150712839Y-108491607D01*
X150588393Y-108367161D01*
X150446012Y-108263715D01*
X150363812Y-108221832D01*
X150289199Y-108183814D01*
X150286044Y-108182508D01*
X150236334Y-108142451D01*
X150216172Y-108081878D01*
X150216100Y-108077832D01*
X150216100Y-107852318D01*
X150209597Y-107828051D01*
X150191833Y-107761750D01*
X150144951Y-107680549D01*
X150078651Y-107614249D01*
X150074699Y-107610297D01*
X150074688Y-107610287D01*
X149991716Y-107527315D01*
X149961120Y-107471284D01*
X149965675Y-107407606D01*
X150003933Y-107356499D01*
X150063748Y-107334189D01*
X150071831Y-107333900D01*
X155098288Y-107333900D01*
X155098289Y-107333900D01*
X155234078Y-107297516D01*
X155355822Y-107227226D01*
X155895533Y-106687513D01*
X155951562Y-106656919D01*
X155953549Y-106656506D01*
X155961497Y-106654925D01*
X155961497Y-106654924D01*
X155961502Y-106654924D01*
X156075991Y-106607501D01*
X156179028Y-106538654D01*
X156266654Y-106451028D01*
X156335501Y-106347991D01*
X156382924Y-106233502D01*
X156384506Y-106225549D01*
X156414093Y-106168978D01*
X156415455Y-106167591D01*
X157315964Y-105267085D01*
X157371996Y-105236489D01*
X157396079Y-105233900D01*
X163681922Y-105233900D01*
X163743177Y-105251886D01*
G37*
%TD.AperFunction*%
%TA.AperFunction,Conductor*%
G36*
X128389500Y-94182600D02*
G01*
X128438729Y-94223246D01*
X128452654Y-94251739D01*
X128503816Y-94409201D01*
X128583715Y-94566012D01*
X128687161Y-94708393D01*
X128811607Y-94832839D01*
X128953988Y-94936285D01*
X129075182Y-94998036D01*
X129121595Y-95041870D01*
X129136941Y-95103839D01*
X129116348Y-95164267D01*
X129067105Y-95203662D01*
X129026812Y-95220352D01*
X129026811Y-95220353D01*
X128915057Y-95295024D01*
X128820024Y-95390057D01*
X128745353Y-95501810D01*
X128693921Y-95625979D01*
X128667700Y-95757797D01*
X128667700Y-95849004D01*
X128649714Y-95910259D01*
X128634515Y-95929119D01*
X128347674Y-96215960D01*
X128290762Y-96314534D01*
X128290760Y-96314541D01*
X128261463Y-96423879D01*
X128261442Y-96423960D01*
X128261300Y-96424488D01*
X128261300Y-97491386D01*
X128243314Y-97552641D01*
X128195067Y-97594447D01*
X128131876Y-97603533D01*
X128085054Y-97585592D01*
X128033468Y-97551123D01*
X127905349Y-97498055D01*
X127769341Y-97471000D01*
X127540500Y-97471000D01*
X127540500Y-97925000D01*
X127159500Y-97925000D01*
X127159500Y-97471000D01*
X126930658Y-97471000D01*
X126794650Y-97498055D01*
X126666531Y-97551123D01*
X126551224Y-97628169D01*
X126453169Y-97726224D01*
X126376123Y-97841531D01*
X126323053Y-97969655D01*
X126320100Y-97984499D01*
X126320101Y-97984500D01*
X126836946Y-97984500D01*
X126788060Y-98033386D01*
X126750000Y-98125272D01*
X126750000Y-98224728D01*
X126788060Y-98316614D01*
X126836946Y-98365500D01*
X126320101Y-98365500D01*
X126323053Y-98380344D01*
X126376123Y-98508468D01*
X126453169Y-98623775D01*
X126551224Y-98721830D01*
X126666531Y-98798876D01*
X126797257Y-98853024D01*
X126846966Y-98893082D01*
X126867127Y-98953656D01*
X126851339Y-99015513D01*
X126804614Y-99059016D01*
X126753900Y-99071000D01*
X126601790Y-99071000D01*
X126541773Y-99077451D01*
X126541764Y-99077453D01*
X126405974Y-99128101D01*
X126405969Y-99128104D01*
X126289953Y-99214952D01*
X126289952Y-99214953D01*
X126203104Y-99330969D01*
X126203101Y-99330975D01*
X126152453Y-99466763D01*
X126146000Y-99526792D01*
X126146000Y-100084500D01*
X127159500Y-100084500D01*
X127159500Y-99071000D01*
X127143615Y-99055115D01*
X127113019Y-98999084D01*
X127117574Y-98935406D01*
X127143615Y-98894885D01*
X127159500Y-98879000D01*
X127159500Y-98425000D01*
X127540500Y-98425000D01*
X127540500Y-98879000D01*
X127556385Y-98894885D01*
X127586981Y-98950916D01*
X127582426Y-99014594D01*
X127556385Y-99055115D01*
X127540500Y-99071000D01*
X127540500Y-100084500D01*
X128534378Y-100084500D01*
X128595633Y-100102486D01*
X128597265Y-100103555D01*
X128649110Y-100138197D01*
X128649111Y-100138198D01*
X128763595Y-100185619D01*
X128763597Y-100185620D01*
X128763598Y-100185620D01*
X128763600Y-100185621D01*
X128885141Y-100209797D01*
X128885144Y-100209797D01*
X129007983Y-100209797D01*
X129069238Y-100227783D01*
X129111044Y-100276030D01*
X129115499Y-100287360D01*
X129120900Y-100303611D01*
X129120901Y-100313562D01*
X129127210Y-100361491D01*
X129172232Y-100458043D01*
X129174300Y-100464263D01*
X129175204Y-100489884D01*
X129179055Y-100515235D01*
X129176417Y-100524218D01*
X129176553Y-100528063D01*
X129174051Y-100532275D01*
X129169469Y-100547881D01*
X129127212Y-100638503D01*
X129127210Y-100638509D01*
X129120900Y-100686437D01*
X129120900Y-100963554D01*
X129120902Y-100963571D01*
X129127209Y-101011488D01*
X129127210Y-101011492D01*
X129169469Y-101102119D01*
X129179055Y-101165235D01*
X129169469Y-101197881D01*
X129127212Y-101288503D01*
X129127210Y-101288509D01*
X129120900Y-101336437D01*
X129120900Y-101613554D01*
X129120902Y-101613571D01*
X129127209Y-101661488D01*
X129127210Y-101661492D01*
X129169469Y-101752119D01*
X129179055Y-101815235D01*
X129169469Y-101847881D01*
X129127212Y-101938503D01*
X129127210Y-101938509D01*
X129120900Y-101986437D01*
X129120900Y-102263554D01*
X129120902Y-102263571D01*
X129127209Y-102311488D01*
X129127209Y-102311489D01*
X129156317Y-102373912D01*
X129165903Y-102437029D01*
X129155420Y-102471555D01*
X129106025Y-102572592D01*
X129104290Y-102584500D01*
X130945710Y-102584500D01*
X130943974Y-102572591D01*
X130894580Y-102471556D01*
X130883835Y-102408626D01*
X130893679Y-102373918D01*
X130922790Y-102311491D01*
X130929100Y-102263563D01*
X130929099Y-101986438D01*
X130927054Y-101970899D01*
X130925249Y-101957185D01*
X130935088Y-101894107D01*
X130977467Y-101846362D01*
X131037580Y-101829100D01*
X131633078Y-101829100D01*
X131633082Y-101829101D01*
X131726318Y-101829101D01*
X131797345Y-101810068D01*
X131816378Y-101804969D01*
X131897123Y-101758351D01*
X131963051Y-101692423D01*
X131963051Y-101692421D01*
X131972374Y-101683099D01*
X131972378Y-101683094D01*
X132294562Y-101360909D01*
X132350591Y-101330315D01*
X132387054Y-101329998D01*
X132387197Y-101328554D01*
X132392736Y-101329099D01*
X132392739Y-101329100D01*
X132392742Y-101329100D01*
X132516658Y-101329100D01*
X132516661Y-101329100D01*
X132638202Y-101304924D01*
X132752691Y-101257501D01*
X132855728Y-101188654D01*
X132943354Y-101101028D01*
X133012201Y-100997991D01*
X133059624Y-100883502D01*
X133083800Y-100761961D01*
X133083800Y-100638039D01*
X133059624Y-100516498D01*
X133012201Y-100402009D01*
X132971534Y-100341147D01*
X132943357Y-100298976D01*
X132943351Y-100298969D01*
X132855730Y-100211348D01*
X132855723Y-100211342D01*
X132752698Y-100142503D01*
X132752692Y-100142500D01*
X132752693Y-100142500D01*
X132752691Y-100142499D01*
X132682590Y-100113462D01*
X132638206Y-100095077D01*
X132638204Y-100095076D01*
X132516664Y-100070900D01*
X132516661Y-100070900D01*
X132505168Y-100070900D01*
X132443913Y-100052914D01*
X132402107Y-100004667D01*
X132393021Y-99941476D01*
X132400493Y-99914241D01*
X132412253Y-99885848D01*
X132412254Y-99885846D01*
X132412253Y-99885846D01*
X132412255Y-99885844D01*
X132436431Y-99764303D01*
X132436431Y-99640381D01*
X132412255Y-99518840D01*
X132364832Y-99404351D01*
X132352066Y-99385246D01*
X132295988Y-99301318D01*
X132295982Y-99301311D01*
X132208361Y-99213690D01*
X132208354Y-99213684D01*
X132105329Y-99144845D01*
X132105323Y-99144842D01*
X132105324Y-99144842D01*
X132105322Y-99144841D01*
X132051353Y-99122486D01*
X131990837Y-99097419D01*
X131990835Y-99097418D01*
X131869295Y-99073242D01*
X131869292Y-99073242D01*
X131745370Y-99073242D01*
X131745366Y-99073242D01*
X131623826Y-99097418D01*
X131623824Y-99097419D01*
X131509338Y-99144842D01*
X131509332Y-99144845D01*
X131406307Y-99213684D01*
X131406300Y-99213690D01*
X131318679Y-99301311D01*
X131318672Y-99301320D01*
X131313908Y-99308450D01*
X131264921Y-99349387D01*
X131201578Y-99357342D01*
X131143990Y-99329787D01*
X131125502Y-99308450D01*
X131064836Y-99217657D01*
X130977210Y-99130031D01*
X130977208Y-99130029D01*
X130977205Y-99130027D01*
X130874180Y-99061188D01*
X130874179Y-99061187D01*
X130874175Y-99061185D01*
X130874173Y-99061184D01*
X130818131Y-99037970D01*
X130768425Y-98997915D01*
X130748264Y-98937341D01*
X130748841Y-98921184D01*
X130754000Y-98873205D01*
X130754000Y-98465500D01*
X129990500Y-98465500D01*
X129990500Y-99366191D01*
X129985000Y-99384920D01*
X129981876Y-99409548D01*
X129971258Y-99435181D01*
X129947082Y-99556720D01*
X129947082Y-99632600D01*
X129944751Y-99640536D01*
X129945929Y-99648724D01*
X129935898Y-99670686D01*
X129929096Y-99693855D01*
X129922843Y-99699272D01*
X129919408Y-99706796D01*
X129899096Y-99719849D01*
X129880849Y-99735661D01*
X129871241Y-99737751D01*
X129865702Y-99741311D01*
X129833782Y-99745900D01*
X129689502Y-99745900D01*
X129628247Y-99727914D01*
X129586441Y-99679667D01*
X129576202Y-99632600D01*
X129576202Y-99518738D01*
X129576202Y-99518736D01*
X129562061Y-99447645D01*
X129562353Y-99444379D01*
X129560997Y-99441389D01*
X129565178Y-99412814D01*
X129567751Y-99384062D01*
X129569855Y-99380851D01*
X129570240Y-99378221D01*
X129575650Y-99372008D01*
X129593070Y-99345428D01*
X129609500Y-99328998D01*
X129609500Y-98084500D01*
X129990500Y-98084500D01*
X130753999Y-98084500D01*
X130753999Y-97676790D01*
X130747548Y-97616773D01*
X130747546Y-97616764D01*
X130696898Y-97480974D01*
X130696895Y-97480969D01*
X130610047Y-97364953D01*
X130610046Y-97364952D01*
X130494030Y-97278104D01*
X130494024Y-97278101D01*
X130358236Y-97227453D01*
X130298208Y-97221000D01*
X129990500Y-97221000D01*
X129990500Y-98084500D01*
X129609500Y-98084500D01*
X129609500Y-97221000D01*
X129301789Y-97221000D01*
X129251306Y-97226426D01*
X129188480Y-97215088D01*
X129141758Y-97171584D01*
X129125900Y-97113775D01*
X129125900Y-96707394D01*
X129133799Y-96680489D01*
X129139759Y-96653095D01*
X129143188Y-96648513D01*
X129143886Y-96646139D01*
X129159081Y-96627283D01*
X129245879Y-96540484D01*
X129301910Y-96509889D01*
X129325994Y-96507300D01*
X129417198Y-96507300D01*
X129417201Y-96507300D01*
X129549019Y-96481079D01*
X129673190Y-96429646D01*
X129784941Y-96354977D01*
X129879977Y-96259941D01*
X129954646Y-96148190D01*
X130006079Y-96024019D01*
X130032300Y-95892201D01*
X130032300Y-95757799D01*
X130006079Y-95625981D01*
X129954646Y-95501810D01*
X129879977Y-95390059D01*
X129784941Y-95295023D01*
X129770832Y-95285596D01*
X129757315Y-95276564D01*
X129716377Y-95227578D01*
X129708421Y-95164235D01*
X129735974Y-95106646D01*
X129785600Y-95074491D01*
X129793906Y-95071821D01*
X129801822Y-95070568D01*
X129969201Y-95016184D01*
X129972873Y-95014312D01*
X129981057Y-95011683D01*
X130008533Y-95010987D01*
X130035843Y-95008053D01*
X130040107Y-95010187D01*
X130044877Y-95010067D01*
X130068368Y-95024337D01*
X130092929Y-95036633D01*
X130095833Y-95039435D01*
X130931449Y-95875051D01*
X130997749Y-95941351D01*
X131078950Y-95988233D01*
X131098089Y-95993361D01*
X131169519Y-96012501D01*
X131263281Y-96012501D01*
X131263285Y-96012500D01*
X134704968Y-96012500D01*
X134766223Y-96030486D01*
X134785083Y-96045685D01*
X136640715Y-97901316D01*
X136671311Y-97957347D01*
X136673900Y-97981431D01*
X136673900Y-99884792D01*
X136673900Y-99978554D01*
X136698167Y-100069123D01*
X136745049Y-100150324D01*
X137252081Y-100657356D01*
X137743558Y-101148832D01*
X137762774Y-101174447D01*
X137766101Y-101180512D01*
X137766103Y-101180514D01*
X137795654Y-101219025D01*
X137796610Y-101220270D01*
X138147026Y-101570684D01*
X138150989Y-101577942D01*
X138157611Y-101582899D01*
X138166049Y-101605521D01*
X138177622Y-101626715D01*
X138177031Y-101634965D01*
X138179922Y-101642714D01*
X138174790Y-101666304D01*
X138173068Y-101690393D01*
X138167751Y-101698665D01*
X138166353Y-101705096D01*
X138147028Y-101730913D01*
X138121453Y-101756489D01*
X138065422Y-101787085D01*
X138041336Y-101789675D01*
X137127344Y-101789675D01*
X137036774Y-101813942D01*
X136955575Y-101860823D01*
X136955572Y-101860825D01*
X136145050Y-102671347D01*
X136145048Y-102671350D01*
X136098167Y-102752549D01*
X136073900Y-102843118D01*
X136073900Y-104395568D01*
X136055914Y-104456823D01*
X136040715Y-104475683D01*
X133015683Y-107500715D01*
X132959652Y-107531311D01*
X132935568Y-107533900D01*
X131633119Y-107533900D01*
X131542549Y-107558167D01*
X131461350Y-107605048D01*
X131461347Y-107605050D01*
X130563208Y-108503189D01*
X130507177Y-108533785D01*
X130443499Y-108529230D01*
X130396678Y-108494180D01*
X130395729Y-108494992D01*
X130392844Y-108491615D01*
X130392839Y-108491607D01*
X130268393Y-108367161D01*
X130126012Y-108263715D01*
X129969201Y-108183816D01*
X129801822Y-108129432D01*
X129801819Y-108129431D01*
X129801813Y-108129430D01*
X129674691Y-108109296D01*
X129627996Y-108101900D01*
X129452004Y-108101900D01*
X129405309Y-108109296D01*
X129278186Y-108129430D01*
X129278178Y-108129432D01*
X129110798Y-108183816D01*
X129110794Y-108183818D01*
X128953988Y-108263715D01*
X128811607Y-108367160D01*
X128687160Y-108491607D01*
X128583715Y-108633988D01*
X128503818Y-108790794D01*
X128503816Y-108790798D01*
X128452655Y-108948258D01*
X128416620Y-109000957D01*
X128357815Y-109025808D01*
X128294910Y-109014922D01*
X128247876Y-108971755D01*
X128235461Y-108942571D01*
X128208319Y-108841277D01*
X128193410Y-108785634D01*
X128099852Y-108585000D01*
X127972876Y-108403660D01*
X127816340Y-108247124D01*
X127635000Y-108120148D01*
X127609168Y-108108102D01*
X127434364Y-108026589D01*
X127434360Y-108026588D01*
X127220542Y-107969295D01*
X127220530Y-107969293D01*
X127000000Y-107950000D01*
X126779469Y-107969293D01*
X126779457Y-107969295D01*
X126565639Y-108026588D01*
X126565635Y-108026589D01*
X126365001Y-108120147D01*
X126365000Y-108120148D01*
X126183660Y-108247124D01*
X126183658Y-108247125D01*
X126183655Y-108247128D01*
X126050415Y-108380369D01*
X125994384Y-108410965D01*
X125930706Y-108406410D01*
X125879599Y-108368152D01*
X125857289Y-108308337D01*
X125857000Y-108300254D01*
X125857000Y-103423209D01*
X126146001Y-103423209D01*
X126152451Y-103483226D01*
X126152453Y-103483235D01*
X126203101Y-103619025D01*
X126203104Y-103619030D01*
X126289952Y-103735046D01*
X126289953Y-103735047D01*
X126405969Y-103821895D01*
X126405975Y-103821898D01*
X126541763Y-103872546D01*
X126601792Y-103878999D01*
X126753897Y-103878999D01*
X126815152Y-103896985D01*
X126856959Y-103945232D01*
X126866045Y-104008423D01*
X126839525Y-104066494D01*
X126797257Y-104096974D01*
X126666535Y-104151121D01*
X126666532Y-104151123D01*
X126551224Y-104228169D01*
X126453169Y-104326224D01*
X126376123Y-104441531D01*
X126323053Y-104569655D01*
X126320100Y-104584499D01*
X126320101Y-104584500D01*
X126836946Y-104584500D01*
X126788060Y-104633386D01*
X126750000Y-104725272D01*
X126750000Y-104824728D01*
X126788060Y-104916614D01*
X126836946Y-104965500D01*
X126320101Y-104965500D01*
X126323053Y-104980344D01*
X126376123Y-105108468D01*
X126453169Y-105223775D01*
X126551224Y-105321830D01*
X126666531Y-105398876D01*
X126794650Y-105451944D01*
X126930658Y-105478999D01*
X126930665Y-105479000D01*
X127159500Y-105479000D01*
X127159500Y-105025000D01*
X127540500Y-105025000D01*
X127540500Y-105479000D01*
X127769335Y-105479000D01*
X127769341Y-105478999D01*
X127905349Y-105451944D01*
X128033468Y-105398876D01*
X128148775Y-105321830D01*
X128197396Y-105273209D01*
X128846001Y-105273209D01*
X128852451Y-105333226D01*
X128852453Y-105333235D01*
X128903101Y-105469025D01*
X128903104Y-105469030D01*
X128989952Y-105585046D01*
X128989953Y-105585047D01*
X129105969Y-105671895D01*
X129105975Y-105671898D01*
X129241763Y-105722546D01*
X129301792Y-105728999D01*
X129609499Y-105728999D01*
X129990500Y-105728999D01*
X130298210Y-105728999D01*
X130358226Y-105722548D01*
X130358235Y-105722546D01*
X130494025Y-105671898D01*
X130494030Y-105671895D01*
X130610046Y-105585047D01*
X130610047Y-105585046D01*
X130696895Y-105469030D01*
X130696898Y-105469024D01*
X130747546Y-105333236D01*
X130754000Y-105273207D01*
X130754000Y-104865500D01*
X129990500Y-104865500D01*
X129990500Y-105728999D01*
X129609499Y-105728999D01*
X129609500Y-105728998D01*
X129609500Y-104865500D01*
X128846001Y-104865500D01*
X128846001Y-105273209D01*
X128197396Y-105273209D01*
X128246830Y-105223775D01*
X128323876Y-105108468D01*
X128376946Y-104980344D01*
X128379899Y-104965500D01*
X127863054Y-104965500D01*
X127911940Y-104916614D01*
X127950000Y-104824728D01*
X127950000Y-104725272D01*
X127911940Y-104633386D01*
X127863054Y-104584500D01*
X128379899Y-104584500D01*
X128379899Y-104584499D01*
X128376946Y-104569655D01*
X128323876Y-104441531D01*
X128246830Y-104326224D01*
X128148776Y-104228170D01*
X128148769Y-104228164D01*
X128065960Y-104172833D01*
X127898404Y-104095070D01*
X127877569Y-104076792D01*
X128846000Y-104076792D01*
X128846000Y-104484500D01*
X129609500Y-104484500D01*
X129990500Y-104484500D01*
X130753999Y-104484500D01*
X130753999Y-104076790D01*
X130747548Y-104016773D01*
X130747546Y-104016764D01*
X130696898Y-103880974D01*
X130696895Y-103880969D01*
X130610047Y-103764953D01*
X130610046Y-103764952D01*
X130494030Y-103678104D01*
X130494024Y-103678101D01*
X130358236Y-103627453D01*
X130298208Y-103621000D01*
X129990500Y-103621000D01*
X129990500Y-104484500D01*
X129609500Y-104484500D01*
X129609500Y-103621000D01*
X129301790Y-103621000D01*
X129241773Y-103627451D01*
X129241764Y-103627453D01*
X129105974Y-103678101D01*
X129105969Y-103678104D01*
X128989953Y-103764952D01*
X128989952Y-103764953D01*
X128903104Y-103880969D01*
X128903101Y-103880975D01*
X128852453Y-104016763D01*
X128846000Y-104076792D01*
X127877569Y-104076792D01*
X127876116Y-104075517D01*
X127853033Y-104056916D01*
X127852258Y-104054587D01*
X127850413Y-104052969D01*
X127842234Y-104024472D01*
X127832872Y-103996343D01*
X127833478Y-103993964D01*
X127832802Y-103991606D01*
X127841325Y-103963221D01*
X127848660Y-103934485D01*
X127850457Y-103932811D01*
X127851163Y-103930462D01*
X127873677Y-103911193D01*
X127895385Y-103890983D01*
X127898019Y-103890360D01*
X127899665Y-103888952D01*
X127909989Y-103887531D01*
X127946100Y-103878999D01*
X128098210Y-103878999D01*
X128158226Y-103872548D01*
X128158235Y-103872546D01*
X128294025Y-103821898D01*
X128294030Y-103821895D01*
X128410046Y-103735047D01*
X128410047Y-103735046D01*
X128496895Y-103619030D01*
X128496898Y-103619024D01*
X128547546Y-103483236D01*
X128554000Y-103423207D01*
X128554000Y-102965500D01*
X129104290Y-102965500D01*
X129106025Y-102977409D01*
X129157913Y-103083546D01*
X129241451Y-103167084D01*
X129347597Y-103218976D01*
X129416401Y-103229000D01*
X129834500Y-103229000D01*
X130215500Y-103229000D01*
X130633599Y-103229000D01*
X130702402Y-103218976D01*
X130808548Y-103167084D01*
X130892086Y-103083546D01*
X130943974Y-102977409D01*
X130945710Y-102965500D01*
X130215500Y-102965500D01*
X130215500Y-103229000D01*
X129834500Y-103229000D01*
X129834500Y-102965500D01*
X129104290Y-102965500D01*
X128554000Y-102965500D01*
X128554000Y-102865500D01*
X127540500Y-102865500D01*
X127540500Y-103878999D01*
X127556385Y-103894884D01*
X127586981Y-103950915D01*
X127582426Y-104014593D01*
X127556386Y-104055113D01*
X127540500Y-104070999D01*
X127540500Y-104525000D01*
X127159500Y-104525000D01*
X127159500Y-104071000D01*
X127143614Y-104055114D01*
X127113018Y-103999083D01*
X127117573Y-103935405D01*
X127143615Y-103894883D01*
X127159500Y-103878998D01*
X127159500Y-102865500D01*
X126146001Y-102865500D01*
X126146001Y-103423209D01*
X125857000Y-103423209D01*
X125857000Y-101926792D01*
X126146000Y-101926792D01*
X126146000Y-102484500D01*
X127159500Y-102484500D01*
X127540500Y-102484500D01*
X128553999Y-102484500D01*
X128553999Y-101926790D01*
X128547548Y-101866773D01*
X128547546Y-101866764D01*
X128496898Y-101730974D01*
X128496895Y-101730969D01*
X128410047Y-101614953D01*
X128410046Y-101614952D01*
X128344254Y-101565701D01*
X128305996Y-101514594D01*
X128301441Y-101450916D01*
X128332037Y-101394885D01*
X128344254Y-101384299D01*
X128410046Y-101335047D01*
X128410047Y-101335046D01*
X128496895Y-101219030D01*
X128496898Y-101219024D01*
X128547546Y-101083236D01*
X128554000Y-101023207D01*
X128554000Y-100465500D01*
X127540500Y-100465500D01*
X127540500Y-102484500D01*
X127159500Y-102484500D01*
X127159500Y-100465500D01*
X126146001Y-100465500D01*
X126146001Y-101023209D01*
X126152451Y-101083226D01*
X126152453Y-101083235D01*
X126203101Y-101219025D01*
X126203104Y-101219030D01*
X126289951Y-101335045D01*
X126355746Y-101384299D01*
X126394004Y-101435406D01*
X126398558Y-101499084D01*
X126367962Y-101555116D01*
X126355746Y-101565701D01*
X126289951Y-101614954D01*
X126203104Y-101730969D01*
X126203101Y-101730975D01*
X126152453Y-101866763D01*
X126146000Y-101926792D01*
X125857000Y-101926792D01*
X125857000Y-94899746D01*
X125874986Y-94838491D01*
X125923233Y-94796685D01*
X125986424Y-94787599D01*
X126044496Y-94814120D01*
X126050415Y-94819631D01*
X126183660Y-94952876D01*
X126365000Y-95079852D01*
X126565634Y-95173410D01*
X126636911Y-95192508D01*
X126779457Y-95230704D01*
X126779463Y-95230705D01*
X126779467Y-95230706D01*
X127000000Y-95250000D01*
X127220533Y-95230706D01*
X127220537Y-95230704D01*
X127220542Y-95230704D01*
X127322751Y-95203317D01*
X127434366Y-95173410D01*
X127635000Y-95079852D01*
X127816340Y-94952876D01*
X127972876Y-94796340D01*
X128099852Y-94615000D01*
X128193410Y-94414366D01*
X128235462Y-94257424D01*
X128268687Y-94202916D01*
X128326111Y-94175021D01*
X128389500Y-94182600D01*
G37*
%TD.AperFunction*%
%TA.AperFunction,Conductor*%
G36*
X166332709Y-94312210D02*
G01*
X166347524Y-94310080D01*
X166363540Y-94317394D01*
X166380907Y-94320315D01*
X166391982Y-94330383D01*
X166405596Y-94336601D01*
X166415116Y-94351414D01*
X166428145Y-94363259D01*
X166438962Y-94388520D01*
X166440111Y-94390307D01*
X166440824Y-94392850D01*
X166446590Y-94414366D01*
X166540148Y-94615000D01*
X166667124Y-94796340D01*
X166823660Y-94952876D01*
X167005000Y-95079852D01*
X167205634Y-95173410D01*
X167276911Y-95192508D01*
X167419457Y-95230704D01*
X167419463Y-95230705D01*
X167419467Y-95230706D01*
X167640000Y-95250000D01*
X167860533Y-95230706D01*
X167860537Y-95230704D01*
X167860542Y-95230704D01*
X167962751Y-95203317D01*
X168074366Y-95173410D01*
X168275000Y-95079852D01*
X168456340Y-94952876D01*
X168589585Y-94819631D01*
X168645616Y-94789035D01*
X168709294Y-94793590D01*
X168760401Y-94831848D01*
X168782711Y-94891663D01*
X168783000Y-94899746D01*
X168783000Y-108300254D01*
X168765014Y-108361509D01*
X168716767Y-108403315D01*
X168653576Y-108412401D01*
X168595504Y-108385880D01*
X168589585Y-108380369D01*
X168456344Y-108247128D01*
X168456340Y-108247124D01*
X168275000Y-108120148D01*
X168249168Y-108108102D01*
X168074364Y-108026589D01*
X168074360Y-108026588D01*
X167860542Y-107969295D01*
X167860530Y-107969293D01*
X167640000Y-107950000D01*
X167419469Y-107969293D01*
X167419457Y-107969295D01*
X167205639Y-108026588D01*
X167205635Y-108026589D01*
X167005001Y-108120147D01*
X167005000Y-108120148D01*
X166823660Y-108247124D01*
X166823658Y-108247125D01*
X166823655Y-108247128D01*
X166667128Y-108403655D01*
X166667125Y-108403658D01*
X166667124Y-108403660D01*
X166597433Y-108503189D01*
X166540147Y-108585001D01*
X166446589Y-108785635D01*
X166446588Y-108785639D01*
X166440839Y-108807096D01*
X166407612Y-108861609D01*
X166350188Y-108889503D01*
X166286799Y-108881924D01*
X166237571Y-108841277D01*
X166218132Y-108780468D01*
X166218100Y-108777772D01*
X166218100Y-108308440D01*
X166218099Y-108308434D01*
X166216472Y-108300254D01*
X166204807Y-108241610D01*
X166154172Y-108165828D01*
X166085806Y-108120148D01*
X166078389Y-108115192D01*
X166011565Y-108101900D01*
X166011562Y-108101900D01*
X165747200Y-108101900D01*
X165685945Y-108083914D01*
X165644139Y-108035667D01*
X165633900Y-107988600D01*
X165633900Y-105779710D01*
X165610347Y-105691809D01*
X165597516Y-105643922D01*
X165527226Y-105522178D01*
X165427822Y-105422774D01*
X164277822Y-104272774D01*
X164239950Y-104250908D01*
X164156083Y-104202486D01*
X164156075Y-104202483D01*
X164020289Y-104166100D01*
X157057711Y-104166100D01*
X156921924Y-104202483D01*
X156921916Y-104202486D01*
X156800175Y-104272775D01*
X155660465Y-105412485D01*
X155604434Y-105443081D01*
X155602458Y-105443492D01*
X155594501Y-105445074D01*
X155594496Y-105445076D01*
X155480010Y-105492498D01*
X155480001Y-105492503D01*
X155376976Y-105561342D01*
X155376969Y-105561348D01*
X155289348Y-105648969D01*
X155289342Y-105648976D01*
X155220503Y-105752001D01*
X155220498Y-105752010D01*
X155173076Y-105866496D01*
X155173074Y-105866501D01*
X155171492Y-105874458D01*
X155141899Y-105931026D01*
X155140485Y-105932465D01*
X154840037Y-106232915D01*
X154784006Y-106263511D01*
X154759922Y-106266100D01*
X149719201Y-106266100D01*
X149657946Y-106248114D01*
X149656287Y-106247027D01*
X149593537Y-106205099D01*
X149593535Y-106205098D01*
X149593528Y-106205094D01*
X149479056Y-106157678D01*
X149479050Y-106157676D01*
X149357510Y-106133500D01*
X149357507Y-106133500D01*
X149233585Y-106133500D01*
X149233581Y-106133500D01*
X149112041Y-106157676D01*
X149112035Y-106157678D01*
X148997563Y-106205094D01*
X148997556Y-106205098D01*
X148997555Y-106205099D01*
X148934835Y-106247006D01*
X148873913Y-106266082D01*
X148871891Y-106266100D01*
X147553221Y-106266100D01*
X147491966Y-106248114D01*
X147473106Y-106232915D01*
X146672767Y-105432576D01*
X146642171Y-105376545D01*
X146641772Y-105374630D01*
X146623622Y-105283381D01*
X146572189Y-105159210D01*
X146497520Y-105047459D01*
X146402484Y-104952423D01*
X146290733Y-104877754D01*
X146290734Y-104877754D01*
X146290732Y-104877753D01*
X146166563Y-104826321D01*
X146034745Y-104800100D01*
X146034744Y-104800100D01*
X145900342Y-104800100D01*
X145900340Y-104800100D01*
X145768522Y-104826321D01*
X145644353Y-104877753D01*
X145532600Y-104952424D01*
X145437567Y-105047457D01*
X145362896Y-105159210D01*
X145311464Y-105283379D01*
X145285243Y-105415197D01*
X145285243Y-105502206D01*
X145267257Y-105563461D01*
X145219010Y-105605267D01*
X145155819Y-105614353D01*
X145097747Y-105587832D01*
X145067268Y-105545564D01*
X145034650Y-105466818D01*
X145034646Y-105466811D01*
X145034646Y-105466810D01*
X144959977Y-105355059D01*
X144864941Y-105260023D01*
X144864937Y-105260020D01*
X144834452Y-105239650D01*
X144793514Y-105190664D01*
X144784100Y-105145446D01*
X144784100Y-104456631D01*
X144784100Y-104456629D01*
X144759969Y-104366569D01*
X144758047Y-104359395D01*
X144760297Y-104358791D01*
X144754711Y-104306900D01*
X144783279Y-104249808D01*
X144838178Y-104217224D01*
X144866214Y-104213700D01*
X150768778Y-104213700D01*
X150768782Y-104213701D01*
X150862018Y-104213701D01*
X150933045Y-104194668D01*
X150952078Y-104189569D01*
X151032823Y-104142951D01*
X151098751Y-104077023D01*
X151098751Y-104077022D01*
X151108076Y-104067698D01*
X151108079Y-104067692D01*
X152463488Y-102712285D01*
X152488094Y-102698848D01*
X152511683Y-102683689D01*
X152517347Y-102682874D01*
X152519519Y-102681689D01*
X152543603Y-102679100D01*
X152678186Y-102679100D01*
X152739441Y-102697086D01*
X152781247Y-102745333D01*
X152790333Y-102808524D01*
X152786153Y-102826497D01*
X152770900Y-102922802D01*
X152770900Y-103827197D01*
X152786072Y-103922991D01*
X152786074Y-103922997D01*
X152837778Y-104024472D01*
X152844906Y-104038460D01*
X152936540Y-104130094D01*
X152949800Y-104136850D01*
X152996214Y-104180684D01*
X153011561Y-104242652D01*
X152990969Y-104303081D01*
X152978480Y-104317917D01*
X152753022Y-104543375D01*
X152696991Y-104573971D01*
X152650805Y-104574383D01*
X152617209Y-104567701D01*
X152617203Y-104567700D01*
X152617201Y-104567700D01*
X152482799Y-104567700D01*
X152482797Y-104567700D01*
X152350979Y-104593921D01*
X152226810Y-104645353D01*
X152115057Y-104720024D01*
X152020024Y-104815057D01*
X151945353Y-104926810D01*
X151893921Y-105050979D01*
X151867700Y-105182797D01*
X151867700Y-105317202D01*
X151893921Y-105449020D01*
X151945353Y-105573189D01*
X151955137Y-105587832D01*
X152020023Y-105684941D01*
X152115059Y-105779977D01*
X152226810Y-105854646D01*
X152350981Y-105906079D01*
X152482799Y-105932300D01*
X152482802Y-105932300D01*
X152617198Y-105932300D01*
X152617201Y-105932300D01*
X152749019Y-105906079D01*
X152873190Y-105854646D01*
X152984941Y-105779977D01*
X153079977Y-105684941D01*
X153154646Y-105573190D01*
X153206079Y-105449019D01*
X153232300Y-105317201D01*
X153232300Y-105182799D01*
X153225616Y-105149198D01*
X153231304Y-105085611D01*
X153256621Y-105046978D01*
X153809322Y-104494278D01*
X153809327Y-104494274D01*
X153818649Y-104484951D01*
X153818651Y-104484951D01*
X153884951Y-104418651D01*
X153931833Y-104337450D01*
X153945062Y-104288077D01*
X153978289Y-104233564D01*
X154035712Y-104205669D01*
X154047779Y-104204661D01*
X154047763Y-104204449D01*
X154052194Y-104204100D01*
X154147995Y-104188927D01*
X154263460Y-104130094D01*
X154355094Y-104038460D01*
X154413927Y-103922995D01*
X154424525Y-103856080D01*
X154425920Y-103847272D01*
X154846000Y-103847272D01*
X154848750Y-103876598D01*
X154848750Y-103876599D01*
X154891958Y-104000081D01*
X154891961Y-104000086D01*
X154969649Y-104105350D01*
X155074913Y-104183038D01*
X155074918Y-104183041D01*
X155198400Y-104226249D01*
X155227727Y-104228999D01*
X155227737Y-104229000D01*
X155509500Y-104229000D01*
X155890500Y-104229000D01*
X156172263Y-104229000D01*
X156172272Y-104228999D01*
X156201598Y-104226249D01*
X156201599Y-104226249D01*
X156325081Y-104183041D01*
X156325086Y-104183038D01*
X156430350Y-104105350D01*
X156508038Y-104000086D01*
X156508041Y-104000081D01*
X156551249Y-103876599D01*
X156551249Y-103876598D01*
X156553999Y-103847272D01*
X156554000Y-103847263D01*
X156554000Y-103565500D01*
X155890500Y-103565500D01*
X155890500Y-104229000D01*
X155509500Y-104229000D01*
X155509500Y-103565500D01*
X154846000Y-103565500D01*
X154846000Y-103847272D01*
X154425920Y-103847272D01*
X154429100Y-103827197D01*
X154429100Y-102922802D01*
X154412532Y-102818198D01*
X154413789Y-102817998D01*
X154412238Y-102763592D01*
X154445207Y-102708924D01*
X154502499Y-102680759D01*
X154521814Y-102679100D01*
X154757058Y-102679100D01*
X154818313Y-102697086D01*
X154860119Y-102745333D01*
X154869205Y-102808524D01*
X154864000Y-102829820D01*
X154848750Y-102873400D01*
X154848750Y-102873401D01*
X154846000Y-102902727D01*
X154846000Y-103184500D01*
X156554000Y-103184500D01*
X156554000Y-102902737D01*
X156553999Y-102902727D01*
X156551249Y-102873401D01*
X156551249Y-102873400D01*
X156536000Y-102829820D01*
X156532746Y-102766063D01*
X156564478Y-102710667D01*
X156621122Y-102681221D01*
X156642942Y-102679100D01*
X158286867Y-102679100D01*
X158348122Y-102697086D01*
X158381073Y-102729455D01*
X158387051Y-102738402D01*
X158387055Y-102738407D01*
X158474676Y-102826028D01*
X158474683Y-102826034D01*
X158577708Y-102894873D01*
X158577710Y-102894874D01*
X158577716Y-102894878D01*
X158682232Y-102938170D01*
X158692200Y-102942299D01*
X158692202Y-102942300D01*
X158692203Y-102942300D01*
X158692205Y-102942301D01*
X158813746Y-102966477D01*
X158813749Y-102966477D01*
X158937665Y-102966477D01*
X158937668Y-102966477D01*
X159059209Y-102942301D01*
X159173698Y-102894878D01*
X159276735Y-102826031D01*
X159364361Y-102738405D01*
X159433208Y-102635368D01*
X159480631Y-102520879D01*
X159504807Y-102399338D01*
X159504807Y-102275416D01*
X159480631Y-102153875D01*
X159433208Y-102039386D01*
X159400163Y-101989931D01*
X159364364Y-101936353D01*
X159364358Y-101936346D01*
X159284421Y-101856409D01*
X159253825Y-101800378D01*
X159258380Y-101736700D01*
X159284419Y-101696181D01*
X164200514Y-96780085D01*
X164256543Y-96749491D01*
X164258437Y-96749097D01*
X164349019Y-96731079D01*
X164473190Y-96679646D01*
X164584941Y-96604977D01*
X164679977Y-96509941D01*
X164754646Y-96398190D01*
X164806079Y-96274019D01*
X164832300Y-96142201D01*
X164832300Y-96007799D01*
X164806079Y-95875981D01*
X164754646Y-95751810D01*
X164679977Y-95640059D01*
X164584941Y-95545023D01*
X164473190Y-95470354D01*
X164473191Y-95470354D01*
X164473189Y-95470353D01*
X164375329Y-95429819D01*
X164351982Y-95411004D01*
X164327985Y-95393041D01*
X164327252Y-95391076D01*
X164325620Y-95389761D01*
X164316150Y-95361309D01*
X164305676Y-95333225D01*
X164306121Y-95331177D01*
X164305459Y-95329187D01*
X164312875Y-95300130D01*
X164319246Y-95270844D01*
X164320921Y-95268605D01*
X164321247Y-95267330D01*
X164338565Y-95245035D01*
X164452318Y-95131282D01*
X164508348Y-95100689D01*
X164532431Y-95098100D01*
X166011559Y-95098100D01*
X166011562Y-95098100D01*
X166078390Y-95084807D01*
X166154172Y-95034172D01*
X166204807Y-94958390D01*
X166218100Y-94891562D01*
X166218100Y-94422227D01*
X166223060Y-94405332D01*
X166223480Y-94387728D01*
X166231869Y-94375333D01*
X166236086Y-94360972D01*
X166249394Y-94349440D01*
X166259264Y-94334858D01*
X166273022Y-94328966D01*
X166284333Y-94319166D01*
X166301761Y-94316659D01*
X166317950Y-94309728D01*
X166332709Y-94312210D01*
G37*
%TD.AperFunction*%
%TA.AperFunction,Conductor*%
G36*
X147626319Y-100119289D02*
G01*
X147665783Y-100169471D01*
X147673900Y-100211582D01*
X147673900Y-100295568D01*
X147655914Y-100356823D01*
X147640715Y-100375683D01*
X145915683Y-102100715D01*
X145859652Y-102131311D01*
X145835568Y-102133900D01*
X144747602Y-102133900D01*
X144686347Y-102115914D01*
X144657716Y-102089574D01*
X144651393Y-102081334D01*
X144609437Y-102039378D01*
X144300971Y-101730914D01*
X144270377Y-101674885D01*
X144274931Y-101611207D01*
X144300973Y-101570686D01*
X144436252Y-101435406D01*
X144651393Y-101220264D01*
X144681897Y-101180514D01*
X144681900Y-101180505D01*
X144685221Y-101174454D01*
X144704436Y-101148837D01*
X145673989Y-100179285D01*
X145730020Y-100148689D01*
X145754104Y-100146100D01*
X147398881Y-100146100D01*
X147489450Y-100121833D01*
X147503949Y-100113461D01*
X147565989Y-100098410D01*
X147626319Y-100119289D01*
G37*
%TD.AperFunction*%
%TA.AperFunction,Conductor*%
G36*
X163955049Y-92855025D02*
G01*
X163996856Y-92903272D01*
X164005942Y-92966462D01*
X163998471Y-92993696D01*
X163995193Y-93001609D01*
X163981900Y-93068434D01*
X163981900Y-94547568D01*
X163963914Y-94608823D01*
X163948715Y-94627683D01*
X157815683Y-100760715D01*
X157759652Y-100791311D01*
X157735568Y-100793900D01*
X156648245Y-100793900D01*
X156586990Y-100775914D01*
X156545184Y-100727667D01*
X156536098Y-100664476D01*
X156547293Y-100629165D01*
X156549925Y-100623999D01*
X156549925Y-100623998D01*
X156549927Y-100623995D01*
X156561982Y-100547881D01*
X156565100Y-100528197D01*
X156565100Y-99623802D01*
X156555580Y-99563695D01*
X156549927Y-99528005D01*
X156491094Y-99412540D01*
X156399460Y-99320906D01*
X156399459Y-99320905D01*
X156283997Y-99262074D01*
X156283992Y-99262072D01*
X156238486Y-99254865D01*
X156180800Y-99227518D01*
X156147056Y-99173324D01*
X156142911Y-99142960D01*
X156142911Y-98310200D01*
X156145241Y-98302263D01*
X156144064Y-98294076D01*
X156154094Y-98272113D01*
X156160897Y-98248945D01*
X156167149Y-98243527D01*
X156170585Y-98236004D01*
X156190896Y-98222950D01*
X156209144Y-98207139D01*
X156218751Y-98205048D01*
X156224291Y-98201489D01*
X156256211Y-98196900D01*
X156367052Y-98196900D01*
X156428307Y-98214886D01*
X156447167Y-98230085D01*
X156537059Y-98319977D01*
X156648810Y-98394646D01*
X156772981Y-98446079D01*
X156904799Y-98472300D01*
X156904802Y-98472300D01*
X157039198Y-98472300D01*
X157039201Y-98472300D01*
X157171019Y-98446079D01*
X157295190Y-98394646D01*
X157406941Y-98319977D01*
X157501977Y-98224941D01*
X157576646Y-98113190D01*
X157628079Y-97989019D01*
X157654300Y-97857201D01*
X157654300Y-97722799D01*
X157628079Y-97590981D01*
X157576646Y-97466810D01*
X157501977Y-97355059D01*
X157406941Y-97260023D01*
X157348538Y-97221000D01*
X157295189Y-97185353D01*
X157171020Y-97133921D01*
X157039202Y-97107700D01*
X157039201Y-97107700D01*
X156904799Y-97107700D01*
X156904797Y-97107700D01*
X156772979Y-97133921D01*
X156721758Y-97155138D01*
X156658283Y-97161962D01*
X156601195Y-97133385D01*
X156568619Y-97078482D01*
X156565100Y-97050462D01*
X156565100Y-96575802D01*
X156550097Y-96481079D01*
X156549927Y-96480005D01*
X156491094Y-96364540D01*
X156399460Y-96272906D01*
X156399459Y-96272905D01*
X156283997Y-96214074D01*
X156283996Y-96214073D01*
X156283995Y-96214073D01*
X156283993Y-96214072D01*
X156283991Y-96214072D01*
X156188198Y-96198900D01*
X156188194Y-96198900D01*
X155283806Y-96198900D01*
X155283802Y-96198900D01*
X155188008Y-96214072D01*
X155188002Y-96214074D01*
X155072540Y-96272905D01*
X154980905Y-96364540D01*
X154922074Y-96480002D01*
X154922072Y-96480008D01*
X154906900Y-96575802D01*
X154906900Y-97480197D01*
X154922072Y-97575991D01*
X154922074Y-97575997D01*
X154979601Y-97688900D01*
X154980906Y-97691460D01*
X155072540Y-97783094D01*
X155188005Y-97841927D01*
X155233535Y-97849138D01*
X155291222Y-97876485D01*
X155324966Y-97930678D01*
X155329111Y-97961043D01*
X155329111Y-99142956D01*
X155311125Y-99204211D01*
X155262878Y-99246017D01*
X155233537Y-99254861D01*
X155188007Y-99262072D01*
X155188002Y-99262074D01*
X155072540Y-99320905D01*
X154980905Y-99412540D01*
X154922074Y-99528002D01*
X154922072Y-99528008D01*
X154906900Y-99623802D01*
X154906900Y-100528197D01*
X154922072Y-100623991D01*
X154922074Y-100623999D01*
X154924707Y-100629165D01*
X154936489Y-100691909D01*
X154912479Y-100751063D01*
X154860299Y-100787845D01*
X154823755Y-100793900D01*
X154548245Y-100793900D01*
X154486990Y-100775914D01*
X154445184Y-100727667D01*
X154436098Y-100664476D01*
X154447293Y-100629165D01*
X154449925Y-100623999D01*
X154449925Y-100623998D01*
X154449927Y-100623995D01*
X154461982Y-100547881D01*
X154465100Y-100528197D01*
X154465100Y-99623802D01*
X154455580Y-99563695D01*
X154449927Y-99528005D01*
X154391094Y-99412540D01*
X154299460Y-99320906D01*
X154299459Y-99320905D01*
X154183997Y-99262074D01*
X154183996Y-99262073D01*
X154183995Y-99262073D01*
X154183993Y-99262072D01*
X154183991Y-99262072D01*
X154088198Y-99246900D01*
X154088194Y-99246900D01*
X153393352Y-99246900D01*
X153332097Y-99228914D01*
X153313237Y-99213715D01*
X152959716Y-98860194D01*
X152574847Y-98475324D01*
X152551741Y-98461984D01*
X152489895Y-98426277D01*
X152452340Y-98391102D01*
X152421977Y-98345659D01*
X152326941Y-98250623D01*
X152240555Y-98192902D01*
X152215189Y-98175953D01*
X152091020Y-98124521D01*
X151959202Y-98098300D01*
X151959201Y-98098300D01*
X151824799Y-98098300D01*
X151824797Y-98098300D01*
X151692979Y-98124521D01*
X151568810Y-98175953D01*
X151457057Y-98250624D01*
X151362024Y-98345657D01*
X151287353Y-98457410D01*
X151235921Y-98581579D01*
X151209700Y-98713397D01*
X151209700Y-98847802D01*
X151235921Y-98979620D01*
X151287353Y-99103789D01*
X151313524Y-99142956D01*
X151362023Y-99215541D01*
X151457059Y-99310577D01*
X151568810Y-99385246D01*
X151692981Y-99436679D01*
X151824799Y-99462900D01*
X151824802Y-99462900D01*
X151959198Y-99462900D01*
X151959201Y-99462900D01*
X152091019Y-99436679D01*
X152215190Y-99385246D01*
X152215193Y-99385243D01*
X152215195Y-99385243D01*
X152252094Y-99360588D01*
X152313017Y-99341511D01*
X152374583Y-99358401D01*
X152395155Y-99374678D01*
X152773715Y-99753237D01*
X152804311Y-99809268D01*
X152806900Y-99833352D01*
X152806900Y-100528197D01*
X152822072Y-100623991D01*
X152822074Y-100623999D01*
X152824707Y-100629165D01*
X152836489Y-100691909D01*
X152812479Y-100751063D01*
X152760299Y-100787845D01*
X152723755Y-100793900D01*
X151378835Y-100793900D01*
X151371884Y-100793899D01*
X151371881Y-100793899D01*
X151331857Y-100793899D01*
X151331852Y-100793897D01*
X151288502Y-100785275D01*
X151249021Y-100768921D01*
X151117202Y-100742700D01*
X151117201Y-100742700D01*
X150982799Y-100742700D01*
X150982797Y-100742700D01*
X150850979Y-100768921D01*
X150726810Y-100820353D01*
X150615057Y-100895024D01*
X150520024Y-100990057D01*
X150445353Y-101101811D01*
X150445352Y-101101812D01*
X150415470Y-101173957D01*
X150375412Y-101223667D01*
X150314839Y-101243828D01*
X150310794Y-101243900D01*
X148053231Y-101243900D01*
X147991976Y-101225914D01*
X147950170Y-101177667D01*
X147941084Y-101114476D01*
X147967605Y-101056404D01*
X147973116Y-101050485D01*
X148025610Y-100997991D01*
X148314951Y-100708651D01*
X148361833Y-100627450D01*
X148386100Y-100536881D01*
X148386100Y-100443119D01*
X148386100Y-100043032D01*
X148404086Y-99981777D01*
X148419285Y-99962917D01*
X149392617Y-98989585D01*
X150373551Y-98008651D01*
X150420433Y-97927450D01*
X150444700Y-97836881D01*
X150444700Y-97743119D01*
X150444700Y-97222431D01*
X150452599Y-97195526D01*
X150458559Y-97168132D01*
X150461988Y-97163550D01*
X150462686Y-97161176D01*
X150477881Y-97142320D01*
X150494528Y-97125673D01*
X150550558Y-97095078D01*
X150614236Y-97099633D01*
X150665343Y-97137891D01*
X150685765Y-97183685D01*
X150696722Y-97238771D01*
X150696724Y-97238777D01*
X150744622Y-97354413D01*
X150744629Y-97354427D01*
X150814171Y-97458503D01*
X150814177Y-97458510D01*
X150902689Y-97547022D01*
X150902696Y-97547028D01*
X151006772Y-97616570D01*
X151006786Y-97616577D01*
X151122422Y-97664475D01*
X151122428Y-97664477D01*
X151122429Y-97664477D01*
X151122431Y-97664478D01*
X151245209Y-97688900D01*
X151245212Y-97688900D01*
X151370388Y-97688900D01*
X151370391Y-97688900D01*
X151493169Y-97664478D01*
X151493173Y-97664476D01*
X151493177Y-97664475D01*
X151608813Y-97616577D01*
X151608816Y-97616575D01*
X151608822Y-97616573D01*
X151608824Y-97616571D01*
X151608827Y-97616570D01*
X151704503Y-97552641D01*
X151712908Y-97547025D01*
X151801425Y-97458508D01*
X151850132Y-97385613D01*
X151869349Y-97356854D01*
X151918335Y-97315915D01*
X151963554Y-97306500D01*
X152693600Y-97306500D01*
X152754855Y-97324486D01*
X152796661Y-97372733D01*
X152806900Y-97419800D01*
X152806900Y-97480197D01*
X152822072Y-97575991D01*
X152822074Y-97575997D01*
X152879601Y-97688900D01*
X152880906Y-97691460D01*
X152972540Y-97783094D01*
X153088005Y-97841927D01*
X153129062Y-97848429D01*
X153183802Y-97857100D01*
X153183806Y-97857100D01*
X154088198Y-97857100D01*
X154138465Y-97849138D01*
X154183995Y-97841927D01*
X154299460Y-97783094D01*
X154391094Y-97691460D01*
X154449927Y-97575995D01*
X154462271Y-97498055D01*
X154465100Y-97480197D01*
X154465100Y-96575802D01*
X154450097Y-96481079D01*
X154449927Y-96480005D01*
X154391094Y-96364540D01*
X154299460Y-96272906D01*
X154299459Y-96272905D01*
X154183997Y-96214074D01*
X154183996Y-96214073D01*
X154183995Y-96214073D01*
X154183993Y-96214072D01*
X154183991Y-96214072D01*
X154088198Y-96198900D01*
X154088194Y-96198900D01*
X153183806Y-96198900D01*
X153183802Y-96198900D01*
X153088008Y-96214072D01*
X153088002Y-96214074D01*
X152972540Y-96272905D01*
X152880905Y-96364540D01*
X152842527Y-96439861D01*
X152822073Y-96480005D01*
X152822072Y-96480006D01*
X152821242Y-96481637D01*
X152777407Y-96528050D01*
X152720291Y-96543500D01*
X151722921Y-96543500D01*
X151661666Y-96525514D01*
X151659976Y-96524406D01*
X151608825Y-96490228D01*
X151608813Y-96490222D01*
X151493177Y-96442324D01*
X151493171Y-96442322D01*
X151438085Y-96431365D01*
X151381516Y-96401774D01*
X151349926Y-96346297D01*
X151353343Y-96282548D01*
X151380074Y-96240127D01*
X151607701Y-96012501D01*
X151980917Y-95639285D01*
X152036948Y-95608689D01*
X152061032Y-95606100D01*
X153716881Y-95606100D01*
X153807450Y-95581833D01*
X153888651Y-95534951D01*
X154384166Y-95039433D01*
X154440195Y-95008839D01*
X154503873Y-95013393D01*
X154507632Y-95014872D01*
X154510788Y-95016178D01*
X154510799Y-95016184D01*
X154678178Y-95070568D01*
X154852004Y-95098100D01*
X154852006Y-95098100D01*
X155027994Y-95098100D01*
X155027996Y-95098100D01*
X155201822Y-95070568D01*
X155369201Y-95016184D01*
X155526012Y-94936285D01*
X155668393Y-94832839D01*
X155792839Y-94708393D01*
X155896285Y-94566012D01*
X155976184Y-94409201D01*
X156030568Y-94241822D01*
X156058100Y-94067996D01*
X156058100Y-93892004D01*
X156030568Y-93718178D01*
X155976184Y-93550799D01*
X155896285Y-93393988D01*
X155792839Y-93251607D01*
X155668393Y-93127161D01*
X155668390Y-93127159D01*
X155551273Y-93042068D01*
X155512289Y-92991512D01*
X155506826Y-92927905D01*
X155536618Y-92871443D01*
X155592207Y-92840050D01*
X155617856Y-92837107D01*
X156759782Y-92837098D01*
X156821034Y-92855082D01*
X156862841Y-92903330D01*
X156871927Y-92966520D01*
X156845407Y-93024592D01*
X156826376Y-93042059D01*
X156817741Y-93048332D01*
X156817741Y-93048333D01*
X157319173Y-93549765D01*
X157303527Y-93553958D01*
X157199273Y-93614149D01*
X157114149Y-93699273D01*
X157053958Y-93803527D01*
X157049765Y-93819173D01*
X156548333Y-93317741D01*
X156548331Y-93317741D01*
X156502426Y-93380926D01*
X156502417Y-93380940D01*
X156420743Y-93541235D01*
X156420742Y-93541235D01*
X156365144Y-93712351D01*
X156365143Y-93712355D01*
X156337000Y-93890045D01*
X156337000Y-94069954D01*
X156365143Y-94247644D01*
X156365144Y-94247648D01*
X156420743Y-94418764D01*
X156502417Y-94579058D01*
X156502421Y-94579064D01*
X156548332Y-94642257D01*
X156548333Y-94642257D01*
X157049765Y-94140826D01*
X157053958Y-94156473D01*
X157114149Y-94260727D01*
X157199273Y-94345851D01*
X157303527Y-94406042D01*
X157319172Y-94410234D01*
X156817740Y-94911665D01*
X156817741Y-94911666D01*
X156880935Y-94957578D01*
X156880941Y-94957582D01*
X157041235Y-95039256D01*
X157041235Y-95039257D01*
X157212351Y-95094855D01*
X157212355Y-95094856D01*
X157390046Y-95123000D01*
X157569954Y-95123000D01*
X157747644Y-95094856D01*
X157747648Y-95094855D01*
X157918764Y-95039257D01*
X157918765Y-95039256D01*
X158079060Y-94957582D01*
X158079067Y-94957577D01*
X158142257Y-94911666D01*
X158142258Y-94911665D01*
X157640826Y-94410234D01*
X157656473Y-94406042D01*
X157760727Y-94345851D01*
X157845851Y-94260727D01*
X157906042Y-94156473D01*
X157910234Y-94140826D01*
X158411665Y-94642258D01*
X158411666Y-94642257D01*
X158457577Y-94579067D01*
X158457582Y-94579060D01*
X158539256Y-94418765D01*
X158539257Y-94418764D01*
X158594855Y-94247648D01*
X158594856Y-94247644D01*
X158623000Y-94069954D01*
X158623000Y-93890045D01*
X158594856Y-93712355D01*
X158594855Y-93712351D01*
X158539256Y-93541235D01*
X158457582Y-93380941D01*
X158457578Y-93380935D01*
X158411666Y-93317741D01*
X158411665Y-93317740D01*
X157910234Y-93819172D01*
X157906042Y-93803527D01*
X157845851Y-93699273D01*
X157760727Y-93614149D01*
X157656473Y-93553958D01*
X157640824Y-93549765D01*
X158142257Y-93048333D01*
X158142257Y-93048331D01*
X158133606Y-93042046D01*
X158094622Y-92991491D01*
X158089159Y-92927884D01*
X158118951Y-92871422D01*
X158174540Y-92840029D01*
X158200189Y-92837086D01*
X159342174Y-92837076D01*
X159403426Y-92855061D01*
X159445233Y-92903309D01*
X159454319Y-92966499D01*
X159427799Y-93024571D01*
X159408768Y-93042037D01*
X159291612Y-93127155D01*
X159167160Y-93251607D01*
X159063715Y-93393988D01*
X158983818Y-93550794D01*
X158983816Y-93550798D01*
X158929432Y-93718178D01*
X158929430Y-93718186D01*
X158915906Y-93803573D01*
X158901900Y-93892004D01*
X158901900Y-94067996D01*
X158902210Y-94069954D01*
X158929430Y-94241813D01*
X158929431Y-94241819D01*
X158929432Y-94241822D01*
X158983816Y-94409201D01*
X159063715Y-94566012D01*
X159167161Y-94708393D01*
X159291607Y-94832839D01*
X159433988Y-94936285D01*
X159590799Y-95016184D01*
X159758178Y-95070568D01*
X159932004Y-95098100D01*
X159932006Y-95098100D01*
X160107994Y-95098100D01*
X160107996Y-95098100D01*
X160281822Y-95070568D01*
X160449201Y-95016184D01*
X160606012Y-94936285D01*
X160748393Y-94832839D01*
X160872839Y-94708393D01*
X160976285Y-94566012D01*
X161056184Y-94409201D01*
X161110568Y-94241822D01*
X161138100Y-94067996D01*
X161138100Y-93892004D01*
X161110568Y-93718178D01*
X161056184Y-93550799D01*
X160976285Y-93393988D01*
X160872839Y-93251607D01*
X160748393Y-93127161D01*
X160748390Y-93127159D01*
X160667562Y-93068434D01*
X160631215Y-93042026D01*
X160592232Y-92991471D01*
X160586769Y-92927865D01*
X160616561Y-92871402D01*
X160672150Y-92840009D01*
X160697802Y-92837065D01*
X161882203Y-92837056D01*
X161943454Y-92855040D01*
X161985261Y-92903288D01*
X161994347Y-92966478D01*
X161967827Y-93024550D01*
X161948797Y-93042016D01*
X161831608Y-93127159D01*
X161707160Y-93251607D01*
X161603715Y-93393988D01*
X161523818Y-93550794D01*
X161523816Y-93550798D01*
X161469432Y-93718178D01*
X161469430Y-93718186D01*
X161455906Y-93803573D01*
X161441900Y-93892004D01*
X161441900Y-94067996D01*
X161442210Y-94069954D01*
X161469430Y-94241813D01*
X161469431Y-94241819D01*
X161469432Y-94241822D01*
X161523816Y-94409201D01*
X161603715Y-94566012D01*
X161707161Y-94708393D01*
X161831607Y-94832839D01*
X161973988Y-94936285D01*
X162130799Y-95016184D01*
X162298178Y-95070568D01*
X162472004Y-95098100D01*
X162472006Y-95098100D01*
X162647994Y-95098100D01*
X162647996Y-95098100D01*
X162821822Y-95070568D01*
X162989201Y-95016184D01*
X163146012Y-94936285D01*
X163288393Y-94832839D01*
X163412839Y-94708393D01*
X163516285Y-94566012D01*
X163596184Y-94409201D01*
X163650568Y-94241822D01*
X163678100Y-94067996D01*
X163678100Y-93892004D01*
X163650568Y-93718178D01*
X163596184Y-93550799D01*
X163516285Y-93393988D01*
X163412839Y-93251607D01*
X163288393Y-93127161D01*
X163288390Y-93127159D01*
X163228938Y-93083965D01*
X163171186Y-93042005D01*
X163132203Y-92991450D01*
X163126740Y-92927844D01*
X163156532Y-92871381D01*
X163212121Y-92839988D01*
X163237771Y-92837045D01*
X163893796Y-92837039D01*
X163955049Y-92855025D01*
G37*
%TD.AperFunction*%
%TA.AperFunction,Conductor*%
G36*
X147466823Y-95699086D02*
G01*
X147485683Y-95714285D01*
X147860715Y-96089317D01*
X147891311Y-96145348D01*
X147893900Y-96169432D01*
X147893900Y-96556435D01*
X147875914Y-96617690D01*
X147827667Y-96659496D01*
X147764476Y-96668582D01*
X147706404Y-96642061D01*
X147689771Y-96624163D01*
X147667439Y-96594214D01*
X147604816Y-96531592D01*
X147604814Y-96531592D01*
X146718104Y-97418304D01*
X145831392Y-98305015D01*
X145894020Y-98367642D01*
X145894024Y-98367645D01*
X145950549Y-98409796D01*
X145950555Y-98409799D01*
X146063870Y-98448700D01*
X146067228Y-98449261D01*
X146071430Y-98451295D01*
X146072753Y-98451750D01*
X146072698Y-98451909D01*
X146124687Y-98477085D01*
X146155046Y-98522264D01*
X146190603Y-98619955D01*
X146220483Y-98658894D01*
X146302074Y-98740485D01*
X146332670Y-98796516D01*
X146328115Y-98860194D01*
X146289857Y-98911301D01*
X146230042Y-98933611D01*
X146221959Y-98933900D01*
X145406404Y-98933900D01*
X145406388Y-98933899D01*
X145399448Y-98933899D01*
X145305686Y-98933899D01*
X145287990Y-98938640D01*
X145239639Y-98951595D01*
X145239640Y-98951596D01*
X145215115Y-98958167D01*
X145215111Y-98958169D01*
X145160700Y-98989585D01*
X145133917Y-99005048D01*
X145133914Y-99005050D01*
X144805715Y-99333249D01*
X144749683Y-99363845D01*
X144686006Y-99359290D01*
X144634899Y-99321032D01*
X144612589Y-99261217D01*
X144612300Y-99253134D01*
X144612300Y-99222801D01*
X144612300Y-99222799D01*
X144586079Y-99090981D01*
X144534646Y-98966810D01*
X144459977Y-98855059D01*
X144364941Y-98760023D01*
X144253190Y-98685354D01*
X144253191Y-98685354D01*
X144253189Y-98685353D01*
X144129020Y-98633921D01*
X143997202Y-98607700D01*
X143997201Y-98607700D01*
X143862799Y-98607700D01*
X143862795Y-98607700D01*
X143829196Y-98614384D01*
X143765609Y-98608694D01*
X143726977Y-98583376D01*
X143665865Y-98522264D01*
X143563051Y-98419449D01*
X143481850Y-98372567D01*
X143391280Y-98348299D01*
X143384127Y-98347358D01*
X143383252Y-98346970D01*
X143382305Y-98347103D01*
X143354141Y-98334093D01*
X143325744Y-98321531D01*
X143325216Y-98320731D01*
X143324349Y-98320331D01*
X143307683Y-98294150D01*
X143290592Y-98268239D01*
X143290411Y-98267017D01*
X143290067Y-98266476D01*
X143289791Y-98262820D01*
X143285616Y-98234536D01*
X143285654Y-98225579D01*
X143286101Y-98223914D01*
X143286101Y-98130151D01*
X143286100Y-98130147D01*
X143286100Y-97269032D01*
X143304086Y-97207777D01*
X143319285Y-97188917D01*
X143523197Y-96985005D01*
X143579228Y-96954409D01*
X143603312Y-96951820D01*
X144622791Y-96951820D01*
X144684046Y-96969806D01*
X144725852Y-97018053D01*
X144736091Y-97065120D01*
X144736091Y-97095024D01*
X144776389Y-97205740D01*
X144788098Y-97221000D01*
X144806269Y-97244680D01*
X145208105Y-97646516D01*
X145208109Y-97646519D01*
X145208111Y-97646521D01*
X145247046Y-97676397D01*
X145344734Y-97711953D01*
X145396143Y-97749805D01*
X145417736Y-97799763D01*
X145418296Y-97803119D01*
X145457202Y-97916447D01*
X145499357Y-97972982D01*
X145561983Y-98035607D01*
X145561985Y-98035607D01*
X146448696Y-97148896D01*
X147335407Y-96262184D01*
X147335407Y-96262183D01*
X147272779Y-96199557D01*
X147272775Y-96199554D01*
X147216250Y-96157403D01*
X147216244Y-96157400D01*
X147102921Y-96118496D01*
X147099563Y-96117936D01*
X147095362Y-96115901D01*
X147094047Y-96115450D01*
X147094101Y-96115290D01*
X147042107Y-96090109D01*
X147011753Y-96044934D01*
X147010310Y-96040969D01*
X146976197Y-95947246D01*
X146946321Y-95908311D01*
X146946319Y-95908309D01*
X146946316Y-95908305D01*
X146912526Y-95874515D01*
X146881930Y-95818484D01*
X146886485Y-95754806D01*
X146924743Y-95703699D01*
X146984558Y-95681389D01*
X146992641Y-95681100D01*
X147405568Y-95681100D01*
X147466823Y-95699086D01*
G37*
%TD.AperFunction*%
%TA.AperFunction,Conductor*%
G36*
X142565743Y-96056366D02*
G01*
X142607549Y-96104613D01*
X142616635Y-96167804D01*
X142590114Y-96225876D01*
X142584603Y-96231795D01*
X142195413Y-96620984D01*
X142145050Y-96671347D01*
X142145048Y-96671350D01*
X142098167Y-96752549D01*
X142073900Y-96843118D01*
X142073900Y-97775494D01*
X142055914Y-97836749D01*
X142040715Y-97855609D01*
X141725962Y-98170361D01*
X141700351Y-98189575D01*
X141694287Y-98192902D01*
X141654529Y-98223410D01*
X141304116Y-98573826D01*
X141248085Y-98604422D01*
X141184407Y-98599868D01*
X141143886Y-98573826D01*
X140919285Y-98349226D01*
X140888689Y-98293195D01*
X140886100Y-98269111D01*
X140886100Y-97433832D01*
X140904086Y-97372577D01*
X140919285Y-97353717D01*
X142201437Y-96071565D01*
X142226043Y-96058128D01*
X142249632Y-96042969D01*
X142255296Y-96042154D01*
X142257468Y-96040969D01*
X142281552Y-96038380D01*
X142504488Y-96038380D01*
X142565743Y-96056366D01*
G37*
%TD.AperFunction*%
%TD*%
M02*
