M48
; DRILL file {KiCad 9.0.1} date 2025-04-20T22:50:34-0400
; FORMAT={-:-/ absolute / inch / decimal}
; #@! TF.CreationDate,2025-04-20T22:50:34-04:00
; #@! TF.GenerationSoftware,Kicad,Pcbnew,9.0.1
; #@! TF.FileFunction,Plated,1,2,PTH
FMAT,2
INCH
; #@! TA.AperFunction,Plated,PTH,ViaDrill
T1C0.0157
; #@! TA.AperFunction,Plated,PTH,ViaDrill
T2C0.0197
; #@! TA.AperFunction,Plated,PTH,ComponentDrill
T3C0.0197
; #@! TA.AperFunction,Plated,PTH,ComponentDrill
T4C0.0360
%
G90
G05
T1
X5.0767Y-3.9205
X5.1408Y-3.922
X5.1893Y-3.9253
X5.2148Y-3.9646
X5.3691Y-4.2233
X5.8778Y-4.2033
X6.133Y-4.1752
X6.2224Y-4.0827
X6.2549Y-4.029
T2
X5.056Y-4.243
X5.0925Y-3.7726
X5.2185Y-4.0659
X5.2697Y-3.7982
X5.2815Y-3.9528
X5.306Y-4.23
X5.3189Y-4.062
X5.375Y-3.9715
X5.4067Y-4.0665
X5.412Y-4.215
X5.5098Y-4.001
X5.5602Y-3.9366
X5.5681Y-3.8382
X5.6132Y-3.999
X5.6665Y-3.8382
X5.6665Y-3.9091
X5.6862Y-4.165
X5.7116Y-4.002
X5.7468Y-4.1529
X5.7776Y-3.9596
X5.8789Y-3.9596
X5.9173Y-4.0305
X5.9469Y-3.9931
X5.957Y-3.821
X5.98Y-3.889
X5.995Y-3.846
X6.0Y-3.7859
X6.0059Y-4.1437
X6.1388Y-3.7589
X6.18Y-3.85
X6.22Y-4.177
X6.3Y-4.187
X6.3199Y-3.814
X6.4626Y-3.7825
T4
X5.1Y-3.7
X5.1Y-4.3
X5.2Y-3.7
X5.2Y-4.3
X5.3Y-3.7
X5.3Y-4.3
X5.4Y-3.7
X5.4Y-4.3
X5.5Y-3.7
X5.5Y-4.3
X5.6Y-3.7
X5.6Y-4.3
X5.7Y-3.7
X5.7Y-4.3
X5.8Y-3.7
X5.8Y-4.3
X5.9Y-3.7
X5.9Y-4.3
X6.0Y-3.7
X6.0Y-4.3
X6.1Y-3.7
X6.1Y-4.3
X6.2Y-3.7
X6.2Y-4.3
X6.3Y-3.7
X6.3Y-4.3
X6.4Y-3.7
X6.4Y-4.3
X6.5Y-3.7
X6.5Y-4.3
T3
G00X5.0Y-3.8652
M15
G01X5.0276Y-3.8652
M16
G05
G00X5.0Y-4.125
M15
G01X5.0276Y-4.125
M16
G05
M30
