%TF.GenerationSoftware,KiCad,Pcbnew,9.0.1*%
%TF.CreationDate,2025-04-20T22:50:28-04:00*%
%TF.ProjectId,NanoV3.3_Min,4e616e6f-5633-42e3-935f-4d696e2e6b69,rev?*%
%TF.SameCoordinates,Original*%
%TF.FileFunction,Paste,Top*%
%TF.FilePolarity,Positive*%
%FSLAX46Y46*%
G04 Gerber Fmt 4.6, Leading zero omitted, Abs format (unit mm)*
G04 Created by KiCad (PCBNEW 9.0.1) date 2025-04-20 22:50:28*
%MOMM*%
%LPD*%
G01*
G04 APERTURE LIST*
G04 Aperture macros list*
%AMRoundRect*
0 Rectangle with rounded corners*
0 $1 Rounding radius*
0 $2 $3 $4 $5 $6 $7 $8 $9 X,Y pos of 4 corners*
0 Add a 4 corners polygon primitive as box body*
4,1,4,$2,$3,$4,$5,$6,$7,$8,$9,$2,$3,0*
0 Add four circle primitives for the rounded corners*
1,1,$1+$1,$2,$3*
1,1,$1+$1,$4,$5*
1,1,$1+$1,$6,$7*
1,1,$1+$1,$8,$9*
0 Add four rect primitives between the rounded corners*
20,1,$1+$1,$2,$3,$4,$5,0*
20,1,$1+$1,$4,$5,$6,$7,0*
20,1,$1+$1,$6,$7,$8,$9,0*
20,1,$1+$1,$8,$9,$2,$3,0*%
G04 Aperture macros list end*
%ADD10C,0.000000*%
%ADD11RoundRect,0.157140X0.366660X0.366660X-0.366660X0.366660X-0.366660X-0.366660X0.366660X-0.366660X0*%
%ADD12RoundRect,0.082140X-0.459619X-0.730668X0.730668X0.459619X0.459619X0.730668X-0.730668X-0.459619X0*%
%ADD13RoundRect,0.157140X-0.366660X-0.366660X0.366660X-0.366660X0.366660X0.366660X-0.366660X0.366660X0*%
%ADD14RoundRect,0.100000X-0.575000X0.100000X-0.575000X-0.100000X0.575000X-0.100000X0.575000X0.100000X0*%
%ADD15O,1.600000X0.900000*%
%ADD16RoundRect,0.250000X-0.450000X0.550000X-0.450000X-0.550000X0.450000X-0.550000X0.450000X0.550000X0*%
%ADD17RoundRect,0.250000X-0.700000X0.700000X-0.700000X-0.700000X0.700000X-0.700000X0.700000X0.700000X0*%
%ADD18RoundRect,0.051040X-0.166538X-0.148492X-0.148492X-0.166538X0.166538X0.148492X0.148492X0.166538X0*%
%ADD19RoundRect,0.051040X0.148492X-0.166538X0.166538X-0.148492X-0.148492X0.166538X-0.166538X0.148492X0*%
G04 APERTURE END LIST*
D10*
%TO.C,IC1*%
G36*
X142122026Y-101650800D02*
G01*
X141224000Y-102548826D01*
X140325974Y-101650800D01*
X141224000Y-100752774D01*
X142122026Y-101650800D01*
G37*
%TD*%
D11*
%TO.C,TX1*%
X155736000Y-97028000D03*
X153636000Y-97028000D03*
%TD*%
%TO.C,RX1*%
X155736000Y-100076000D03*
X153636000Y-100076000D03*
%TD*%
D12*
%TO.C,Y1*%
X145876293Y-96576493D03*
X146583400Y-97283600D03*
X147290507Y-97990707D03*
%TD*%
D13*
%TO.C,PWR1*%
X153600000Y-103375000D03*
X155700000Y-103375000D03*
%TD*%
D14*
%TO.C,J3*%
X130025000Y-100175000D03*
X130025000Y-100825000D03*
X130025000Y-101475000D03*
X130025000Y-102125000D03*
X130025000Y-102775000D03*
D15*
X127350000Y-98175000D03*
D16*
X129800000Y-98275000D03*
D17*
X127350000Y-100275000D03*
X127350000Y-102675000D03*
D16*
X129800000Y-104675000D03*
D15*
X127350000Y-104775000D03*
%TD*%
D18*
%TO.C,IC1*%
X144193848Y-101155825D03*
X143840295Y-100802272D03*
X143486742Y-100448718D03*
X143133188Y-100095165D03*
X142779635Y-99741612D03*
X142426082Y-99388058D03*
X142072528Y-99034505D03*
X141718975Y-98680952D03*
D19*
X140729025Y-98680952D03*
X140375472Y-99034505D03*
X140021918Y-99388058D03*
X139668365Y-99741612D03*
X139314812Y-100095165D03*
X138961258Y-100448718D03*
X138607705Y-100802272D03*
X138254152Y-101155825D03*
D18*
X138254152Y-102145775D03*
X138607705Y-102499328D03*
X138961258Y-102852882D03*
X139314812Y-103206435D03*
X139668365Y-103559988D03*
X140021918Y-103913542D03*
X140375472Y-104267095D03*
X140729025Y-104620648D03*
D19*
X141718975Y-104620648D03*
X142072528Y-104267095D03*
X142426082Y-103913542D03*
X142779635Y-103559988D03*
X143133188Y-103206435D03*
X143486742Y-102852882D03*
X143840295Y-102499328D03*
X144193848Y-102145775D03*
%TD*%
M02*
