%TF.GenerationSoftware,KiCad,Pcbnew,9.0.1*%
%TF.CreationDate,2025-04-20T22:50:28-04:00*%
%TF.ProjectId,NanoV3.3_Min,4e616e6f-5633-42e3-935f-4d696e2e6b69,rev?*%
%TF.SameCoordinates,Original*%
%TF.FileFunction,Copper,L2,Bot*%
%TF.FilePolarity,Positive*%
%FSLAX46Y46*%
G04 Gerber Fmt 4.6, Leading zero omitted, Abs format (unit mm)*
G04 Created by KiCad (PCBNEW 9.0.1) date 2025-04-20 22:50:28*
%MOMM*%
%LPD*%
G01*
G04 APERTURE LIST*
G04 Aperture macros list*
%AMRoundRect*
0 Rectangle with rounded corners*
0 $1 Rounding radius*
0 $2 $3 $4 $5 $6 $7 $8 $9 X,Y pos of 4 corners*
0 Add a 4 corners polygon primitive as box body*
4,1,4,$2,$3,$4,$5,$6,$7,$8,$9,$2,$3,0*
0 Add four circle primitives for the rounded corners*
1,1,$1+$1,$2,$3*
1,1,$1+$1,$4,$5*
1,1,$1+$1,$6,$7*
1,1,$1+$1,$8,$9*
0 Add four rect primitives between the rounded corners*
20,1,$1+$1,$2,$3,$4,$5,0*
20,1,$1+$1,$4,$5,$6,$7,0*
20,1,$1+$1,$6,$7,$8,$9,0*
20,1,$1+$1,$8,$9,$2,$3,0*%
G04 Aperture macros list end*
%TA.AperFunction,SMDPad,CuDef*%
%ADD10RoundRect,0.500000X-0.000010X-0.000010X0.000010X-0.000010X0.000010X0.000010X-0.000010X0.000010X0*%
%TD*%
%TA.AperFunction,ComponentPad*%
%ADD11O,1.600000X0.900000*%
%TD*%
%TA.AperFunction,SMDPad,CuDef*%
%ADD12RoundRect,0.359360X-0.089840X0.190640X-0.089840X-0.190640X0.089840X-0.190640X0.089840X0.190640X0*%
%TD*%
%TA.AperFunction,SMDPad,CuDef*%
%ADD13RoundRect,0.381000X0.889000X-0.952500X0.889000X0.952500X-0.889000X0.952500X-0.889000X-0.952500X0*%
%TD*%
%TA.AperFunction,SMDPad,CuDef*%
%ADD14RoundRect,0.114300X0.520700X-0.266700X0.520700X0.266700X-0.520700X0.266700X-0.520700X-0.266700X0*%
%TD*%
%TA.AperFunction,ComponentPad*%
%ADD15R,1.778000X1.778000*%
%TD*%
%TA.AperFunction,ComponentPad*%
%ADD16C,1.778000*%
%TD*%
%TA.AperFunction,SMDPad,CuDef*%
%ADD17RoundRect,0.359360X0.089840X-0.190640X0.089840X0.190640X-0.089840X0.190640X-0.089840X-0.190640X0*%
%TD*%
%TA.AperFunction,SMDPad,CuDef*%
%ADD18RoundRect,0.076200X0.248800X-0.173800X0.248800X0.173800X-0.248800X0.173800X-0.248800X-0.173800X0*%
%TD*%
%TA.AperFunction,SMDPad,CuDef*%
%ADD19RoundRect,0.167640X0.721360X-0.391160X0.721360X0.391160X-0.721360X0.391160X-0.721360X-0.391160X0*%
%TD*%
%TA.AperFunction,SMDPad,CuDef*%
%ADD20RoundRect,0.076200X-0.248800X0.173800X-0.248800X-0.173800X0.248800X-0.173800X0.248800X0.173800X0*%
%TD*%
%TA.AperFunction,SMDPad,CuDef*%
%ADD21RoundRect,0.190500X0.000010X0.825500X-0.000010X0.825500X-0.000010X-0.825500X0.000010X-0.825500X0*%
%TD*%
%TA.AperFunction,SMDPad,CuDef*%
%ADD22RoundRect,0.142500X-0.332500X-0.357500X0.332500X-0.357500X0.332500X0.357500X-0.332500X0.357500X0*%
%TD*%
%TA.AperFunction,SMDPad,CuDef*%
%ADD23RoundRect,0.359360X0.190640X0.089840X-0.190640X0.089840X-0.190640X-0.089840X0.190640X-0.089840X0*%
%TD*%
%TA.AperFunction,SMDPad,CuDef*%
%ADD24RoundRect,0.167640X-0.391160X-0.721360X0.391160X-0.721360X0.391160X0.721360X-0.391160X0.721360X0*%
%TD*%
%TA.AperFunction,ViaPad*%
%ADD25C,0.812800*%
%TD*%
%TA.AperFunction,ViaPad*%
%ADD26C,0.800000*%
%TD*%
%TA.AperFunction,ViaPad*%
%ADD27C,0.906400*%
%TD*%
%TA.AperFunction,Conductor*%
%ADD28C,0.304800*%
%TD*%
%TA.AperFunction,Conductor*%
%ADD29C,0.355600*%
%TD*%
%TA.AperFunction,Conductor*%
%ADD30C,0.250000*%
%TD*%
%TA.AperFunction,Conductor*%
%ADD31C,0.254000*%
%TD*%
%TA.AperFunction,Conductor*%
%ADD32C,0.406400*%
%TD*%
%TA.AperFunction,Conductor*%
%ADD33C,0.609600*%
%TD*%
%TA.AperFunction,Conductor*%
%ADD34C,0.812800*%
%TD*%
G04 APERTURE END LIST*
D10*
%TO.P,D+1,X,P$1*%
%TO.N,Net-(D+1-P$1)*%
X126650000Y-96225000D03*
%TD*%
D11*
%TO.P,J3,6,Shield*%
%TO.N,COM*%
X127350000Y-98175000D03*
X127350000Y-104775000D03*
%TD*%
D10*
%TO.P,D-1,X,P$1*%
%TO.N,Net-(D-1-P$1)*%
X128050000Y-95475000D03*
%TD*%
D12*
%TO.P,C4,1,1*%
%TO.N,+5V*%
X144703800Y-104368600D03*
%TO.P,C4,2,2*%
%TO.N,COM*%
X146481800Y-104368600D03*
%TD*%
D13*
%TO.P,D1,1,K*%
%TO.N,+5V*%
X154305000Y-98871000D03*
D14*
%TO.P,D1,2,A*%
%TO.N,VUSB*%
X154305000Y-96521000D03*
%TD*%
D15*
%TO.P,J1,1,1*%
%TO.N,/D1{slash}TX*%
X165100000Y-93980000D03*
D16*
%TO.P,J1,2,2*%
%TO.N,/D0{slash}RX*%
X162560000Y-93980000D03*
%TO.P,J1,3,3*%
%TO.N,/RESET*%
X160020000Y-93980000D03*
%TO.P,J1,4,4*%
%TO.N,COM*%
X157480000Y-93980000D03*
%TO.P,J1,5,5*%
%TO.N,/D2*%
X154940000Y-93980000D03*
%TO.P,J1,6,6*%
%TO.N,/D3*%
X152400000Y-93980000D03*
%TO.P,J1,7,7*%
%TO.N,/D4*%
X149860000Y-93980000D03*
%TO.P,J1,8,8*%
%TO.N,/D5*%
X147320000Y-93980000D03*
%TO.P,J1,9,9*%
%TO.N,/D6*%
X144780000Y-93980000D03*
%TO.P,J1,10,10*%
%TO.N,/D7*%
X142240000Y-93980000D03*
%TO.P,J1,11,11*%
%TO.N,/D8*%
X139700000Y-93980000D03*
%TO.P,J1,12,12*%
%TO.N,/D9*%
X137160000Y-93980000D03*
%TO.P,J1,13,13*%
%TO.N,/D10*%
X134620000Y-93980000D03*
%TO.P,J1,14,14*%
%TO.N,/D11{slash}MOSI*%
X132080000Y-93980000D03*
%TO.P,J1,15,15*%
%TO.N,/D12{slash}MISO*%
X129540000Y-93980000D03*
%TD*%
D17*
%TO.P,C5,1,1*%
%TO.N,/RESET*%
X143433800Y-104444800D03*
%TO.P,C5,2,2*%
%TO.N,Net-(IC2-DTR#)*%
X141655800Y-104444800D03*
%TD*%
D18*
%TO.P,RP2,1,1*%
%TO.N,COM*%
X148677000Y-99498000D03*
%TO.P,RP2,2,1*%
%TO.N,Net-(IC2-CBUS0)*%
X148677000Y-98698000D03*
%TO.P,RP2,3,1*%
%TO.N,COM*%
X148677000Y-97898000D03*
%TO.P,RP2,4,1*%
%TO.N,Net-(IC2-CBUS1)*%
X148677000Y-97098000D03*
%TO.P,RP2,5,2*%
%TO.N,Net-(RP2D-2)*%
X150027000Y-97098000D03*
%TO.P,RP2,6,2*%
%TO.N,COM*%
X150027000Y-97898000D03*
%TO.P,RP2,7,2*%
%TO.N,Net-(RP2B-2)*%
X150027000Y-98698000D03*
%TO.P,RP2,8,2*%
%TO.N,COM*%
X150027000Y-99498000D03*
%TD*%
D12*
%TO.P,C7,1,1*%
%TO.N,VUSB*%
X156133800Y-96647000D03*
%TO.P,C7,2,2*%
%TO.N,COM*%
X157911800Y-96647000D03*
%TD*%
D17*
%TO.P,C1,1,1*%
%TO.N,/AREF*%
X133654000Y-107467400D03*
%TO.P,C1,2,2*%
%TO.N,COM*%
X131876000Y-107467400D03*
%TD*%
D19*
%TO.P,C6,1,+*%
%TO.N,VUSB*%
X127325000Y-102847000D03*
%TO.P,C6,2,-*%
%TO.N,COM*%
X127325000Y-100053000D03*
%TD*%
D15*
%TO.P,J2,1,1*%
%TO.N,+5V*%
X165100000Y-109220000D03*
D16*
%TO.P,J2,2,2*%
%TO.N,COM*%
X162560000Y-109220000D03*
%TO.P,J2,3,3*%
%TO.N,/RESET*%
X160020000Y-109220000D03*
%TO.P,J2,4,4*%
%TO.N,+5V*%
X157480000Y-109220000D03*
%TO.P,J2,5,5*%
%TO.N,/A7*%
X154940000Y-109220000D03*
%TO.P,J2,6,6*%
%TO.N,/A6*%
X152400000Y-109220000D03*
%TO.P,J2,7,7*%
%TO.N,/A5*%
X149860000Y-109220000D03*
%TO.P,J2,8,8*%
%TO.N,/A4*%
X147320000Y-109220000D03*
%TO.P,J2,9,9*%
%TO.N,/A3*%
X144780000Y-109220000D03*
%TO.P,J2,10,10*%
%TO.N,/A2*%
X142240000Y-109220000D03*
%TO.P,J2,11,11*%
%TO.N,/A1*%
X139700000Y-109220000D03*
%TO.P,J2,12,12*%
%TO.N,/A0*%
X137160000Y-109220000D03*
%TO.P,J2,13,13*%
%TO.N,/AREF*%
X134620000Y-109220000D03*
%TO.P,J2,14,14*%
%TO.N,3V3*%
X132080000Y-109220000D03*
%TO.P,J2,15,15*%
%TO.N,/D13{slash}SCK*%
X129540000Y-109220000D03*
%TD*%
D20*
%TO.P,RP1,1,1*%
%TO.N,/D0{slash}RX*%
X150025000Y-103500000D03*
%TO.P,RP1,2,1*%
%TO.N,/D1{slash}TX*%
X150025000Y-104300000D03*
%TO.P,RP1,3,1*%
%TO.N,COM*%
X150025000Y-105100000D03*
%TO.P,RP1,4,1*%
%TO.N,Net-(RP1D-1)*%
X150025000Y-105900000D03*
%TO.P,RP1,5,2*%
%TO.N,+5V*%
X148675000Y-105900000D03*
%TO.P,RP1,6,2*%
%TO.N,COM*%
X148675000Y-105100000D03*
%TO.P,RP1,7,2*%
%TO.N,/TX*%
X148675000Y-104300000D03*
%TO.P,RP1,8,2*%
%TO.N,/RX*%
X148675000Y-103500000D03*
%TD*%
D21*
%TO.P,IC2,1,TXD*%
%TO.N,/RX*%
X140335000Y-105181400D03*
%TO.P,IC2,2,DTR#*%
%TO.N,Net-(IC2-DTR#)*%
X139684800Y-105181400D03*
%TO.P,IC2,3,RTS#*%
%TO.N,unconnected-(IC2-RTS#-Pad3)*%
X139035000Y-105181400D03*
%TO.P,IC2,4,VCCIO*%
%TO.N,+5V*%
X138385000Y-105181400D03*
%TO.P,IC2,5,RXD*%
%TO.N,/TX*%
X137734800Y-105181400D03*
%TO.P,IC2,6,RI#*%
%TO.N,unconnected-(IC2-RI#-Pad6)*%
X137085100Y-105181400D03*
%TO.P,IC2,7,GND1*%
%TO.N,COM*%
X136435300Y-105181400D03*
%TO.P,IC2,8,NC1*%
%TO.N,unconnected-(IC2-NC1-Pad8)*%
X135785100Y-105181400D03*
%TO.P,IC2,9,DSR#*%
%TO.N,unconnected-(IC2-DSR#-Pad9)*%
X135135100Y-105181400D03*
%TO.P,IC2,10,DCD#*%
%TO.N,unconnected-(IC2-DCD#-Pad10)*%
X134484900Y-105181400D03*
%TO.P,IC2,11,CTS#*%
%TO.N,unconnected-(IC2-CTS#-Pad11)*%
X133834600Y-105181400D03*
%TO.P,IC2,12,CBUS4*%
%TO.N,unconnected-(IC2-CBUS4-Pad12)*%
X133184900Y-105181400D03*
%TO.P,IC2,13,CBUS2*%
%TO.N,unconnected-(IC2-CBUS2-Pad13)*%
X132535200Y-105181400D03*
%TO.P,IC2,14,CBUS3*%
%TO.N,unconnected-(IC2-CBUS3-Pad14)*%
X131884900Y-105181400D03*
%TO.P,IC2,15,USBDP*%
%TO.N,Net-(D+1-P$1)*%
X131884900Y-98069400D03*
%TO.P,IC2,16,USBDM*%
%TO.N,Net-(D-1-P$1)*%
X132535200Y-98069400D03*
%TO.P,IC2,17,3V3OUT*%
%TO.N,3V3*%
X133184900Y-98069400D03*
%TO.P,IC2,18,GND2*%
%TO.N,COM*%
X133834600Y-98069400D03*
%TO.P,IC2,19,RESET#*%
%TO.N,unconnected-(IC2-RESET#-Pad19)*%
X134484900Y-98069400D03*
%TO.P,IC2,20,VCC*%
%TO.N,+5V*%
X135135100Y-98069400D03*
%TO.P,IC2,21,GND3*%
%TO.N,COM*%
X135785100Y-98069400D03*
%TO.P,IC2,22,CBUS1*%
%TO.N,Net-(IC2-CBUS1)*%
X136435300Y-98069400D03*
%TO.P,IC2,23,CBUS0*%
%TO.N,Net-(IC2-CBUS0)*%
X137085100Y-98069400D03*
%TO.P,IC2,24,NC2*%
%TO.N,unconnected-(IC2-NC2-Pad24)*%
X137734800Y-98069400D03*
%TO.P,IC2,25,AGND*%
%TO.N,COM*%
X138385000Y-98069400D03*
%TO.P,IC2,26,TEST*%
X139035000Y-98069400D03*
%TO.P,IC2,27,OSCI*%
%TO.N,unconnected-(IC2-OSCI-Pad27)*%
X139685300Y-98069400D03*
%TO.P,IC2,28,OSCO*%
%TO.N,unconnected-(IC2-OSCO-Pad28)*%
X140335000Y-98069400D03*
%TD*%
D22*
%TO.P,F1,1,1*%
%TO.N,VUSB*%
X127600000Y-106275000D03*
%TO.P,F1,2,2*%
%TO.N,Net-(J3-VBUS)*%
X129200000Y-106275000D03*
%TD*%
D23*
%TO.P,C8,1,1*%
%TO.N,COM*%
X131175000Y-100697000D03*
%TO.P,C8,2,2*%
%TO.N,3V3*%
X131175000Y-102475000D03*
%TD*%
D24*
%TO.P,C3,1,+*%
%TO.N,+5V*%
X157251400Y-99339400D03*
%TO.P,C3,2,-*%
%TO.N,COM*%
X160045400Y-99339400D03*
%TD*%
D17*
%TO.P,C2,1,1*%
%TO.N,+5V*%
X156260800Y-101219000D03*
%TO.P,C2,2,2*%
%TO.N,COM*%
X154482800Y-101219000D03*
%TD*%
D25*
%TO.N,COM*%
X152400000Y-96163000D03*
X155925000Y-95475000D03*
X145075000Y-101650000D03*
D26*
X136375000Y-107270600D03*
D27*
%TO.N,/RESET*%
X144430000Y-105790000D03*
D26*
X158875707Y-102337377D03*
%TO.N,Net-(D+1-P$1)*%
X131807331Y-99702342D03*
%TO.N,Net-(D-1-P$1)*%
X132454700Y-100700000D03*
%TO.N,Net-(J3-VBUS)*%
X130576182Y-99618685D03*
D25*
%TO.N,COM*%
X142575000Y-101575000D03*
X132550000Y-103275000D03*
D27*
X141230000Y-99990000D03*
D26*
X158050000Y-103700000D03*
D25*
X149325000Y-100575000D03*
D27*
X141430000Y-97490000D03*
D25*
X157988000Y-106095800D03*
D27*
X139950000Y-101625000D03*
D25*
X134150000Y-100400000D03*
D27*
X143930000Y-97490000D03*
D25*
X152273000Y-97688400D03*
X146750000Y-100575000D03*
X128422400Y-107772200D03*
X133850000Y-96475000D03*
X135100000Y-103175000D03*
D27*
X136525000Y-100875000D03*
D25*
X160020000Y-106349800D03*
X160525000Y-96875000D03*
D27*
%TO.N,+5V*%
X143930000Y-99290000D03*
X156972000Y-97790000D03*
D26*
X155778000Y-106050000D03*
D27*
X137330000Y-103290000D03*
D26*
X149295546Y-106762600D03*
D27*
X145967543Y-105482400D03*
D26*
%TO.N,VUSB*%
X128947102Y-99580697D03*
D27*
X129350000Y-95825000D03*
D25*
%TO.N,/A6*%
X134772400Y-107442000D03*
%TO.N,/A7*%
X137464800Y-107061000D03*
%TO.N,/D0{slash}RX*%
X150300000Y-102375000D03*
D27*
X164150000Y-96075000D03*
%TO.N,/D1{slash}TX*%
X151050000Y-101425000D03*
%TO.N,Net-(RP1D-1)*%
X152550000Y-105250000D03*
%TO.N,Net-(RP2B-2)*%
X151892000Y-98780600D03*
D25*
%TO.N,Net-(RP2D-2)*%
X151307800Y-97053400D03*
%TD*%
D28*
%TO.N,Net-(D+1-P$1)*%
X128350000Y-97175000D02*
X130990500Y-97175000D01*
X130990500Y-97175000D02*
X131884900Y-98069400D01*
X127400000Y-96225000D02*
X128350000Y-97175000D01*
X126650000Y-96225000D02*
X127400000Y-96225000D01*
%TO.N,Net-(D-1-P$1)*%
X132535200Y-97035200D02*
X132535200Y-98069400D01*
X132150000Y-96650000D02*
X132535200Y-97035200D01*
X129000000Y-96650000D02*
X132150000Y-96650000D01*
X128050000Y-95700000D02*
X129000000Y-96650000D01*
X128050000Y-95475000D02*
X128050000Y-95700000D01*
D29*
%TO.N,VUSB*%
X153034000Y-95250000D02*
X154304000Y-96520000D01*
X129925000Y-95250000D02*
X153034000Y-95250000D01*
X129350000Y-95825000D02*
X129925000Y-95250000D01*
D28*
%TO.N,/AREF*%
X133654000Y-107467400D02*
X133654000Y-108254000D01*
X133654000Y-108254000D02*
X134620000Y-109220000D01*
%TO.N,/RESET*%
X143433800Y-104444800D02*
X143433800Y-104793800D01*
X143433800Y-104793800D02*
X144430000Y-105790000D01*
D30*
X158875000Y-102338084D02*
X158875000Y-108075000D01*
X158875707Y-102337377D02*
X158875000Y-102336670D01*
X158875000Y-102336670D02*
X158875000Y-95125000D01*
X158875000Y-108075000D02*
X160020000Y-109220000D01*
X158875000Y-95125000D02*
X160020000Y-93980000D01*
X158875707Y-102337377D02*
X158875000Y-102338084D01*
D28*
%TO.N,Net-(IC2-DTR#)*%
X141351000Y-103632000D02*
X141655800Y-103936800D01*
X139684800Y-104025717D02*
X139684800Y-105181400D01*
X140078517Y-103632000D02*
X139684800Y-104025717D01*
X141351000Y-103632000D02*
X140078517Y-103632000D01*
X141655800Y-103936800D02*
X141655800Y-104444800D01*
D30*
%TO.N,Net-(D+1-P$1)*%
X131807331Y-99702342D02*
X131884900Y-99624773D01*
X131884900Y-99624773D02*
X131884900Y-98069400D01*
%TO.N,Net-(D-1-P$1)*%
X132535200Y-100619500D02*
X132535200Y-98069400D01*
X132454700Y-100700000D02*
X132535200Y-100619500D01*
%TO.N,Net-(J3-VBUS)*%
X129200000Y-100994867D02*
X129200000Y-106275000D01*
X130576182Y-99618685D02*
X129200000Y-100994867D01*
D31*
%TO.N,/RX*%
X147275000Y-104286600D02*
X148062800Y-103498800D01*
X140335000Y-106426000D02*
X140538200Y-106629200D01*
X140335000Y-105181400D02*
X140335000Y-106426000D01*
X148062800Y-103498800D02*
X148677000Y-103498800D01*
X146070800Y-106629200D02*
X147275000Y-105425000D01*
X147275000Y-105425000D02*
X147275000Y-104286600D01*
X140538200Y-106629200D02*
X146070800Y-106629200D01*
%TO.N,/TX*%
X137734800Y-105181400D02*
X137734800Y-106213400D01*
X147732200Y-105614378D02*
X147732200Y-104642800D01*
X138607800Y-107086400D02*
X146260178Y-107086400D01*
X137734800Y-106213400D02*
X138607800Y-107086400D01*
X147732200Y-104642800D02*
X148076200Y-104298800D01*
X146260178Y-107086400D02*
X147732200Y-105614378D01*
X148076200Y-104298800D02*
X148677000Y-104298800D01*
%TO.N,Net-(IC2-CBUS1)*%
X148677000Y-97098000D02*
X148251400Y-96672400D01*
X136677400Y-96672400D02*
X136435300Y-96914500D01*
X148251400Y-96672400D02*
X136677400Y-96672400D01*
X136435300Y-96914500D02*
X136435300Y-98069400D01*
%TO.N,Net-(IC2-CBUS0)*%
X140280000Y-100290000D02*
X138230000Y-100290000D01*
X148658000Y-98679000D02*
X148319000Y-98679000D01*
X137085100Y-99145100D02*
X138230000Y-100290000D01*
X140780000Y-100790000D02*
X140280000Y-100290000D01*
X141980000Y-100790000D02*
X140780000Y-100790000D01*
X148130000Y-98490000D02*
X143530000Y-98490000D01*
X143030000Y-99740000D02*
X143030000Y-98990000D01*
X137085100Y-98069400D02*
X137085100Y-99145100D01*
X141980000Y-100790000D02*
X143030000Y-99740000D01*
X148658000Y-98679000D02*
X148677000Y-98698000D01*
X143030000Y-98990000D02*
X143530000Y-98490000D01*
X148319000Y-98679000D02*
X148130000Y-98490000D01*
D32*
%TO.N,COM*%
X148677000Y-97898000D02*
X150027000Y-97898000D01*
D30*
X148675000Y-105100000D02*
X150025000Y-105100000D01*
D29*
%TO.N,+5V*%
X157251400Y-98069400D02*
X157251400Y-99339400D01*
D33*
X145817600Y-105482400D02*
X144703800Y-104368600D01*
D34*
X154305000Y-98871000D02*
X154773400Y-99339400D01*
X157251400Y-100228400D02*
X156260800Y-101219000D01*
D28*
X145930000Y-102590000D02*
X145930000Y-100790000D01*
D33*
X137723000Y-102897000D02*
X137330000Y-103290000D01*
D28*
X145736400Y-102783600D02*
X145930000Y-102590000D01*
D33*
X144703800Y-103809800D02*
X144703800Y-104368600D01*
D28*
X145730000Y-102783600D02*
X145736400Y-102783600D01*
D34*
X155778000Y-107518000D02*
X157480000Y-109220000D01*
X154773400Y-99339400D02*
X157251400Y-99339400D01*
X155778000Y-106050000D02*
X155778000Y-107518000D01*
D28*
X138384991Y-105181400D02*
X138384991Y-102897000D01*
D33*
X145967543Y-105482400D02*
X145817600Y-105482400D01*
D28*
X145730000Y-102783600D02*
X144703800Y-103809800D01*
X144430000Y-99290000D02*
X143930000Y-99290000D01*
D30*
X148675000Y-105900000D02*
X148675000Y-106142054D01*
D31*
X137330000Y-103290000D02*
X135135100Y-101095100D01*
D33*
X143891000Y-102897000D02*
X137723000Y-102897000D01*
X144703800Y-103809800D02*
X143891000Y-102897000D01*
D34*
X155778000Y-106050000D02*
X156260800Y-105567200D01*
X157251400Y-99339400D02*
X157251400Y-100228400D01*
D29*
X156972000Y-97790000D02*
X157251400Y-98069400D01*
D28*
X145930000Y-100790000D02*
X144430000Y-99290000D01*
D34*
X156260800Y-105567200D02*
X156260800Y-101219000D01*
D31*
X135135100Y-101095100D02*
X135135100Y-98069400D01*
D30*
X148675000Y-106142054D02*
X149295546Y-106762600D01*
D31*
%TO.N,3V3*%
X131975000Y-102475000D02*
X131175000Y-102475000D01*
D28*
X131175000Y-102475000D02*
X130550000Y-103100000D01*
X130550000Y-107675000D02*
X132080000Y-109205000D01*
D31*
X133184900Y-98069400D02*
X133184900Y-101265100D01*
D28*
X130550000Y-103100000D02*
X130550000Y-107675000D01*
X132080000Y-109205000D02*
X132080000Y-109220000D01*
D31*
X133184900Y-101265100D02*
X131975000Y-102475000D01*
D32*
%TO.N,VUSB*%
X128650000Y-105225000D02*
X128650000Y-104172000D01*
X128650000Y-104172000D02*
X127325000Y-102847000D01*
X127441000Y-102870000D02*
X128270000Y-102870000D01*
X128270000Y-102870000D02*
X128620400Y-102519600D01*
X128620400Y-99907399D02*
X128947102Y-99580697D01*
X127600000Y-106275000D02*
X128650000Y-105225000D01*
X128620400Y-102519600D02*
X128620400Y-99907399D01*
D33*
X156007800Y-96521000D02*
X154305000Y-96521000D01*
X156133800Y-96647000D02*
X156007800Y-96521000D01*
D31*
%TO.N,/A6*%
X135331200Y-108000800D02*
X150672800Y-108000800D01*
X152019000Y-108839000D02*
X152400000Y-109220000D01*
X134772400Y-107442000D02*
X135331200Y-108000800D01*
X150672800Y-108000800D02*
X151511000Y-108839000D01*
X151511000Y-108839000D02*
X152019000Y-108839000D01*
%TO.N,/A7*%
X153670000Y-107950000D02*
X154940000Y-109220000D01*
X151485600Y-107543600D02*
X151892000Y-107950000D01*
X151892000Y-107950000D02*
X153670000Y-107950000D01*
X137947400Y-107543600D02*
X137464800Y-107061000D01*
X151485600Y-107543600D02*
X137947400Y-107543600D01*
%TO.N,/D0{slash}RX*%
X164150000Y-95951000D02*
X162560000Y-94361000D01*
X150300000Y-102375000D02*
X150027000Y-102648000D01*
X164150000Y-96075000D02*
X164150000Y-95951000D01*
X162560000Y-94361000D02*
X162560000Y-93980000D01*
X150027000Y-102648000D02*
X150027000Y-103498800D01*
%TO.N,/D1{slash}TX*%
X150412400Y-104298800D02*
X150027000Y-104298800D01*
X151050000Y-103661200D02*
X150412400Y-104298800D01*
X151050000Y-101425000D02*
X151050000Y-103661200D01*
%TO.N,Net-(RP1D-1)*%
X151900000Y-105900000D02*
X150025000Y-105900000D01*
X152550000Y-105250000D02*
X151900000Y-105900000D01*
%TO.N,Net-(RP2B-2)*%
X150027000Y-98698000D02*
X151809400Y-98698000D01*
X151809400Y-98698000D02*
X151892000Y-98780600D01*
D28*
%TO.N,Net-(RP2D-2)*%
X151263200Y-97098000D02*
X151307800Y-97053400D01*
X150027000Y-97098000D02*
X151263200Y-97098000D01*
%TD*%
%TA.AperFunction,Conductor*%
%TO.N,COM*%
G36*
X126044496Y-96642054D02*
G01*
X126066728Y-96668197D01*
X126074189Y-96680292D01*
X126194708Y-96800811D01*
X126339772Y-96890287D01*
X126339773Y-96890287D01*
X126339776Y-96890289D01*
X126416886Y-96915840D01*
X126501560Y-96943898D01*
X126601421Y-96954100D01*
X126698578Y-96954099D01*
X126698579Y-96954098D01*
X126698596Y-96954098D01*
X126798432Y-96943899D01*
X126798433Y-96943898D01*
X126798440Y-96943898D01*
X126921932Y-96902977D01*
X126960223Y-96890289D01*
X126960224Y-96890288D01*
X126960228Y-96890287D01*
X127105292Y-96800811D01*
X127190675Y-96715428D01*
X127246706Y-96684832D01*
X127310384Y-96689387D01*
X127350905Y-96715428D01*
X127926085Y-97290608D01*
X127956681Y-97346639D01*
X127952126Y-97410317D01*
X127913868Y-97461424D01*
X127854053Y-97483734D01*
X127823867Y-97481846D01*
X127769344Y-97471000D01*
X127540500Y-97471000D01*
X127540500Y-97925000D01*
X127159500Y-97925000D01*
X127159500Y-97471000D01*
X126930658Y-97471000D01*
X126794650Y-97498055D01*
X126666531Y-97551123D01*
X126551224Y-97628169D01*
X126453169Y-97726224D01*
X126376123Y-97841531D01*
X126323053Y-97969655D01*
X126320100Y-97984499D01*
X126320101Y-97984500D01*
X126836946Y-97984500D01*
X126788060Y-98033386D01*
X126750000Y-98125272D01*
X126750000Y-98224728D01*
X126788060Y-98316614D01*
X126836946Y-98365500D01*
X126320101Y-98365500D01*
X126323053Y-98380344D01*
X126376123Y-98508468D01*
X126453169Y-98623775D01*
X126551224Y-98721830D01*
X126666531Y-98798876D01*
X126794650Y-98851944D01*
X126930658Y-98878999D01*
X126930665Y-98879000D01*
X127159500Y-98879000D01*
X127159500Y-98425000D01*
X127540500Y-98425000D01*
X127540500Y-98879000D01*
X127769335Y-98879000D01*
X127769341Y-98878999D01*
X127905349Y-98851944D01*
X128033468Y-98798876D01*
X128148775Y-98721830D01*
X128246830Y-98623775D01*
X128323876Y-98508468D01*
X128376946Y-98380344D01*
X128379899Y-98365500D01*
X127863054Y-98365500D01*
X127911940Y-98316614D01*
X127950000Y-98224728D01*
X127950000Y-98125272D01*
X127911940Y-98033386D01*
X127863054Y-97984500D01*
X128379899Y-97984500D01*
X128379899Y-97984499D01*
X128376946Y-97969655D01*
X128323876Y-97841531D01*
X128251188Y-97732746D01*
X128232112Y-97671822D01*
X128249002Y-97610256D01*
X128296496Y-97567595D01*
X128345394Y-97556500D01*
X128400225Y-97556500D01*
X130785547Y-97556500D01*
X130846802Y-97574486D01*
X130865662Y-97589685D01*
X131432115Y-98156138D01*
X131462711Y-98212169D01*
X131465300Y-98236253D01*
X131465300Y-98927920D01*
X131469050Y-98951597D01*
X131480862Y-99026176D01*
X131480864Y-99026182D01*
X131487492Y-99039190D01*
X131499275Y-99101934D01*
X131475266Y-99161088D01*
X131463624Y-99173664D01*
X131456998Y-99179814D01*
X131406303Y-99213688D01*
X131318677Y-99301314D01*
X131306527Y-99319496D01*
X131296788Y-99328538D01*
X131279630Y-99337095D01*
X131264921Y-99349387D01*
X131251638Y-99351055D01*
X131239658Y-99357030D01*
X131220601Y-99354952D01*
X131201578Y-99357342D01*
X131189501Y-99351563D01*
X131176194Y-99350113D01*
X131161284Y-99338062D01*
X131143990Y-99329787D01*
X131127497Y-99310753D01*
X131126543Y-99309982D01*
X131126365Y-99309447D01*
X131125502Y-99308451D01*
X131064836Y-99217657D01*
X130977210Y-99130031D01*
X130977208Y-99130029D01*
X130977205Y-99130027D01*
X130874180Y-99061188D01*
X130874174Y-99061185D01*
X130874175Y-99061185D01*
X130874173Y-99061184D01*
X130820204Y-99038829D01*
X130759688Y-99013762D01*
X130759686Y-99013761D01*
X130638146Y-98989585D01*
X130638143Y-98989585D01*
X130514221Y-98989585D01*
X130514217Y-98989585D01*
X130392677Y-99013761D01*
X130392675Y-99013762D01*
X130278189Y-99061185D01*
X130278183Y-99061188D01*
X130175158Y-99130027D01*
X130175151Y-99130033D01*
X130087530Y-99217654D01*
X130087524Y-99217661D01*
X130018685Y-99320686D01*
X130018682Y-99320692D01*
X129971259Y-99435178D01*
X129971258Y-99435180D01*
X129947082Y-99556720D01*
X129947082Y-99680650D01*
X129947627Y-99686184D01*
X129945402Y-99686403D01*
X129940586Y-99740194D01*
X129915270Y-99778822D01*
X129687597Y-100006496D01*
X129631566Y-100037092D01*
X129567888Y-100032537D01*
X129516781Y-99994279D01*
X129494471Y-99934464D01*
X129502807Y-99883022D01*
X129504600Y-99878691D01*
X129504603Y-99878688D01*
X129552026Y-99764199D01*
X129576202Y-99642658D01*
X129576202Y-99518736D01*
X129552026Y-99397195D01*
X129504603Y-99282706D01*
X129496463Y-99270524D01*
X129435759Y-99179673D01*
X129435753Y-99179666D01*
X129348132Y-99092045D01*
X129348125Y-99092039D01*
X129245100Y-99023200D01*
X129245094Y-99023197D01*
X129245095Y-99023197D01*
X129245093Y-99023196D01*
X129191124Y-99000841D01*
X129130608Y-98975774D01*
X129130606Y-98975773D01*
X129009066Y-98951597D01*
X129009063Y-98951597D01*
X128885141Y-98951597D01*
X128885137Y-98951597D01*
X128763597Y-98975773D01*
X128763595Y-98975774D01*
X128649109Y-99023197D01*
X128649103Y-99023200D01*
X128546078Y-99092039D01*
X128546071Y-99092045D01*
X128458447Y-99179669D01*
X128405256Y-99259276D01*
X128356270Y-99300214D01*
X128292927Y-99308170D01*
X128259615Y-99297280D01*
X128178283Y-99255840D01*
X128178274Y-99255837D01*
X128079542Y-99240200D01*
X127515500Y-99240200D01*
X127515500Y-100865799D01*
X128074800Y-100865799D01*
X128136055Y-100883785D01*
X128177861Y-100932032D01*
X128188100Y-100979099D01*
X128188100Y-101945800D01*
X128170114Y-102007055D01*
X128121867Y-102048861D01*
X128074800Y-102059100D01*
X126572417Y-102059100D01*
X126488521Y-102072388D01*
X126479513Y-102073815D01*
X126479511Y-102073815D01*
X126479508Y-102073817D01*
X126367535Y-102130869D01*
X126278669Y-102219735D01*
X126278668Y-102219737D01*
X126221617Y-102331707D01*
X126221614Y-102331716D01*
X126215858Y-102368059D01*
X126208861Y-102412242D01*
X126206900Y-102424621D01*
X126206900Y-103269382D01*
X126218434Y-103342201D01*
X126221615Y-103362287D01*
X126221616Y-103362290D01*
X126221617Y-103362291D01*
X126261791Y-103441139D01*
X126278670Y-103474265D01*
X126367535Y-103563130D01*
X126479513Y-103620185D01*
X126572419Y-103634900D01*
X127454604Y-103634899D01*
X127515858Y-103652885D01*
X127534719Y-103668084D01*
X127744220Y-103877585D01*
X127774816Y-103933616D01*
X127770261Y-103997294D01*
X127732003Y-104048401D01*
X127672188Y-104070711D01*
X127664105Y-104071000D01*
X127540500Y-104071000D01*
X127540500Y-104525000D01*
X127159500Y-104525000D01*
X127159500Y-104071000D01*
X126930658Y-104071000D01*
X126794650Y-104098055D01*
X126666531Y-104151123D01*
X126551224Y-104228169D01*
X126453169Y-104326224D01*
X126376123Y-104441531D01*
X126323053Y-104569655D01*
X126320100Y-104584499D01*
X126320101Y-104584500D01*
X126836946Y-104584500D01*
X126788060Y-104633386D01*
X126750000Y-104725272D01*
X126750000Y-104824728D01*
X126788060Y-104916614D01*
X126836946Y-104965500D01*
X126320101Y-104965500D01*
X126323053Y-104980344D01*
X126376123Y-105108468D01*
X126453169Y-105223775D01*
X126551224Y-105321830D01*
X126666531Y-105398876D01*
X126794649Y-105451944D01*
X126931134Y-105479093D01*
X126987702Y-105508684D01*
X127019293Y-105564160D01*
X127015876Y-105627909D01*
X126989146Y-105670330D01*
X126960892Y-105698584D01*
X126906423Y-105810003D01*
X126906422Y-105810006D01*
X126895900Y-105882234D01*
X126895900Y-106667758D01*
X126906424Y-106739998D01*
X126960892Y-106851415D01*
X127048585Y-106939108D01*
X127160003Y-106993576D01*
X127160006Y-106993577D01*
X127188694Y-106997756D01*
X127232235Y-107004100D01*
X127967764Y-107004099D01*
X128039997Y-106993576D01*
X128151414Y-106939108D01*
X128239108Y-106851414D01*
X128293576Y-106739997D01*
X128293576Y-106739996D01*
X128297440Y-106732093D01*
X128300060Y-106733374D01*
X128326989Y-106692715D01*
X128385421Y-106666997D01*
X128448480Y-106676952D01*
X128496148Y-106719419D01*
X128502051Y-106732338D01*
X128502559Y-106732091D01*
X128560892Y-106851415D01*
X128648585Y-106939108D01*
X128760003Y-106993576D01*
X128760006Y-106993577D01*
X128788694Y-106997756D01*
X128832235Y-107004100D01*
X129567764Y-107004099D01*
X129639997Y-106993576D01*
X129751414Y-106939108D01*
X129839108Y-106851414D01*
X129893576Y-106739997D01*
X129904100Y-106667765D01*
X129904099Y-105882236D01*
X129893576Y-105810003D01*
X129839108Y-105698586D01*
X129839107Y-105698585D01*
X129839107Y-105698584D01*
X129751414Y-105610891D01*
X129639996Y-105556423D01*
X129633944Y-105554553D01*
X129580732Y-105519281D01*
X129555036Y-105460840D01*
X129554100Y-105446305D01*
X129554100Y-101188469D01*
X129572086Y-101127214D01*
X129587281Y-101108358D01*
X129808139Y-100887500D01*
X130374882Y-100887500D01*
X130416970Y-101032369D01*
X130495861Y-101165763D01*
X130495863Y-101165766D01*
X130605433Y-101275336D01*
X130605436Y-101275338D01*
X130738827Y-101354227D01*
X130887650Y-101397464D01*
X130887646Y-101397464D01*
X130922417Y-101400199D01*
X130984499Y-101400198D01*
X130984500Y-101400198D01*
X130984500Y-100887500D01*
X130374882Y-100887500D01*
X129808139Y-100887500D01*
X130202904Y-100492734D01*
X130258935Y-100462139D01*
X130322613Y-100466694D01*
X130373623Y-100504822D01*
X130374883Y-100506500D01*
X131061700Y-100506500D01*
X131122955Y-100524486D01*
X131164761Y-100572733D01*
X131175000Y-100619800D01*
X131175000Y-100697000D01*
X131252200Y-100697000D01*
X131313455Y-100714986D01*
X131355261Y-100763233D01*
X131365500Y-100810300D01*
X131365500Y-101400199D01*
X131427582Y-101400199D01*
X131462353Y-101397464D01*
X131611173Y-101354226D01*
X131744563Y-101275338D01*
X131744566Y-101275336D01*
X131859182Y-101160721D01*
X131860526Y-101162065D01*
X131904262Y-101130463D01*
X131968008Y-101126983D01*
X132022175Y-101157157D01*
X132053669Y-101188651D01*
X132053676Y-101188657D01*
X132156701Y-101257496D01*
X132156703Y-101257497D01*
X132156709Y-101257501D01*
X132264645Y-101302209D01*
X132265611Y-101302610D01*
X132271198Y-101304924D01*
X132372143Y-101325003D01*
X132428712Y-101354593D01*
X132460303Y-101410070D01*
X132456886Y-101473819D01*
X132430155Y-101516241D01*
X131961611Y-101984785D01*
X131905580Y-102015381D01*
X131841902Y-102010826D01*
X131791610Y-101973643D01*
X131785335Y-101965465D01*
X131662409Y-101871141D01*
X131519259Y-101811846D01*
X131480910Y-101806797D01*
X131404214Y-101796700D01*
X131404212Y-101796700D01*
X130945788Y-101796700D01*
X130945785Y-101796700D01*
X130830741Y-101811846D01*
X130687590Y-101871141D01*
X130564665Y-101965465D01*
X130470341Y-102088390D01*
X130411046Y-102231541D01*
X130395900Y-102346585D01*
X130395900Y-102603419D01*
X130401539Y-102646250D01*
X130401002Y-102649690D01*
X130402219Y-102652953D01*
X130396122Y-102680979D01*
X130391701Y-102709328D01*
X130389173Y-102712921D01*
X130388649Y-102715335D01*
X130369324Y-102741152D01*
X130315753Y-102794723D01*
X130299818Y-102810659D01*
X130299816Y-102810659D01*
X130299817Y-102810660D01*
X130244722Y-102865754D01*
X130194500Y-102952742D01*
X130194499Y-102952746D01*
X130168500Y-103049775D01*
X130168500Y-107725225D01*
X130194499Y-107822254D01*
X130225202Y-107875433D01*
X130244724Y-107909247D01*
X130244728Y-107909251D01*
X131014943Y-108679466D01*
X131045539Y-108735497D01*
X131042583Y-108794592D01*
X130989432Y-108958178D01*
X130989430Y-108958186D01*
X130961900Y-109132005D01*
X130961900Y-109307994D01*
X130989430Y-109481813D01*
X130989431Y-109481819D01*
X130989432Y-109481822D01*
X131043816Y-109649201D01*
X131123715Y-109806012D01*
X131179111Y-109882258D01*
X131227160Y-109948392D01*
X131351607Y-110072839D01*
X131469293Y-110158343D01*
X131508277Y-110208899D01*
X131513740Y-110272505D01*
X131483948Y-110328968D01*
X131428359Y-110360361D01*
X131402698Y-110363305D01*
X130217289Y-110363315D01*
X130156034Y-110345330D01*
X130114227Y-110297082D01*
X130105141Y-110233892D01*
X130131661Y-110175820D01*
X130150687Y-110158357D01*
X130268393Y-110072839D01*
X130392839Y-109948393D01*
X130496285Y-109806012D01*
X130576184Y-109649201D01*
X130630568Y-109481822D01*
X130658100Y-109307996D01*
X130658100Y-109132004D01*
X130630568Y-108958178D01*
X130576184Y-108790799D01*
X130496285Y-108633988D01*
X130392839Y-108491607D01*
X130268393Y-108367161D01*
X130257376Y-108359157D01*
X130190666Y-108310689D01*
X130126012Y-108263715D01*
X129969201Y-108183816D01*
X129801822Y-108129432D01*
X129801819Y-108129431D01*
X129801813Y-108129430D01*
X129684383Y-108110831D01*
X129627996Y-108101900D01*
X129452004Y-108101900D01*
X129413226Y-108108042D01*
X129278186Y-108129430D01*
X129278178Y-108129432D01*
X129110798Y-108183816D01*
X129110794Y-108183818D01*
X128953988Y-108263715D01*
X128811607Y-108367160D01*
X128687160Y-108491607D01*
X128583715Y-108633988D01*
X128503818Y-108790794D01*
X128503816Y-108790798D01*
X128452655Y-108948258D01*
X128416620Y-109000957D01*
X128357815Y-109025808D01*
X128294910Y-109014922D01*
X128247876Y-108971755D01*
X128235461Y-108942571D01*
X128204851Y-108828333D01*
X128193410Y-108785634D01*
X128099852Y-108585000D01*
X127972876Y-108403660D01*
X127816340Y-108247124D01*
X127635000Y-108120148D01*
X127597472Y-108102648D01*
X127434364Y-108026589D01*
X127434360Y-108026588D01*
X127220542Y-107969295D01*
X127220530Y-107969293D01*
X127000000Y-107950000D01*
X126779469Y-107969293D01*
X126779457Y-107969295D01*
X126565639Y-108026588D01*
X126565635Y-108026589D01*
X126365001Y-108120147D01*
X126351744Y-108129430D01*
X126183660Y-108247124D01*
X126183658Y-108247125D01*
X126183655Y-108247128D01*
X126050415Y-108380369D01*
X125994384Y-108410965D01*
X125930706Y-108406410D01*
X125879599Y-108368152D01*
X125857289Y-108308337D01*
X125857000Y-108300254D01*
X125857000Y-100477346D01*
X126182001Y-100477346D01*
X126197638Y-100576078D01*
X126258273Y-100695082D01*
X126352717Y-100789526D01*
X126471719Y-100850160D01*
X126471725Y-100850162D01*
X126570457Y-100865799D01*
X127134499Y-100865799D01*
X127134500Y-100865798D01*
X127134500Y-100243500D01*
X126182001Y-100243500D01*
X126182001Y-100477346D01*
X125857000Y-100477346D01*
X125857000Y-99628657D01*
X126182000Y-99628657D01*
X126182000Y-99862500D01*
X127134500Y-99862500D01*
X127134500Y-99240200D01*
X126570452Y-99240200D01*
X126471721Y-99255838D01*
X126352717Y-99316473D01*
X126258273Y-99410917D01*
X126197639Y-99529919D01*
X126197637Y-99529925D01*
X126182000Y-99628657D01*
X125857000Y-99628657D01*
X125857000Y-96727680D01*
X125874986Y-96666425D01*
X125923233Y-96624619D01*
X125986424Y-96615533D01*
X126044496Y-96642054D01*
G37*
%TD.AperFunction*%
%TA.AperFunction,Conductor*%
G36*
X152879781Y-95674886D02*
G01*
X152898641Y-95690085D01*
X153407715Y-96199159D01*
X153438311Y-96255190D01*
X153440900Y-96279274D01*
X153440900Y-96827924D01*
X153440902Y-96827940D01*
X153447484Y-96877946D01*
X153447484Y-96877947D01*
X153457863Y-96900204D01*
X153498664Y-96987704D01*
X153584296Y-97073336D01*
X153625214Y-97092416D01*
X153673127Y-97134602D01*
X153690627Y-97195997D01*
X153672157Y-97257107D01*
X153623581Y-97298531D01*
X153577332Y-97308400D01*
X153354392Y-97308400D01*
X153319798Y-97311122D01*
X153171773Y-97354127D01*
X153039095Y-97432592D01*
X153039090Y-97432596D01*
X152930096Y-97541590D01*
X152930092Y-97541595D01*
X152851626Y-97674274D01*
X152808621Y-97822300D01*
X152808621Y-97822301D01*
X152805900Y-97856891D01*
X152805900Y-99885108D01*
X152808622Y-99919701D01*
X152851627Y-100067726D01*
X152930092Y-100200404D01*
X152930096Y-100200409D01*
X153039090Y-100309403D01*
X153039095Y-100309407D01*
X153171774Y-100387873D01*
X153319798Y-100430877D01*
X153319801Y-100430878D01*
X153354387Y-100433600D01*
X153846769Y-100433599D01*
X153908021Y-100451585D01*
X153949828Y-100499832D01*
X153958914Y-100563023D01*
X153932394Y-100621095D01*
X153926884Y-100627013D01*
X153904461Y-100649436D01*
X153825572Y-100782827D01*
X153782335Y-100931648D01*
X153779600Y-100966417D01*
X153779600Y-101028500D01*
X155185999Y-101028500D01*
X155185999Y-100966417D01*
X155183264Y-100931646D01*
X155140026Y-100782826D01*
X155061138Y-100649436D01*
X155061136Y-100649433D01*
X155038717Y-100627014D01*
X155008121Y-100570983D01*
X155012676Y-100507305D01*
X155050934Y-100456198D01*
X155110749Y-100433888D01*
X155118829Y-100433599D01*
X155255612Y-100433599D01*
X155290199Y-100430878D01*
X155438226Y-100387872D01*
X155455593Y-100377601D01*
X155570904Y-100309407D01*
X155570905Y-100309406D01*
X155570907Y-100309405D01*
X155679905Y-100200407D01*
X155688650Y-100185621D01*
X155758370Y-100067729D01*
X155758369Y-100067729D01*
X155758372Y-100067726D01*
X155761607Y-100056588D01*
X155795968Y-100002786D01*
X155853964Y-99976100D01*
X155870408Y-99974900D01*
X156332636Y-99974900D01*
X156393891Y-99992886D01*
X156435697Y-100041133D01*
X156444783Y-100104324D01*
X156418262Y-100162396D01*
X156412751Y-100168315D01*
X156169693Y-100411373D01*
X156113662Y-100441969D01*
X156104367Y-100443589D01*
X156017341Y-100455046D01*
X155874190Y-100514341D01*
X155751265Y-100608665D01*
X155656941Y-100731590D01*
X155597646Y-100874741D01*
X155582500Y-100989785D01*
X155582500Y-101448214D01*
X155590154Y-101506351D01*
X155597646Y-101563259D01*
X155616675Y-101609200D01*
X155625300Y-101652556D01*
X155625300Y-105257037D01*
X155607314Y-105318292D01*
X155592115Y-105337152D01*
X155284377Y-105644889D01*
X155284371Y-105644896D01*
X155214829Y-105748972D01*
X155214822Y-105748986D01*
X155166924Y-105864622D01*
X155166922Y-105864628D01*
X155142500Y-105987405D01*
X155142500Y-107580594D01*
X155166922Y-107703371D01*
X155166924Y-107703377D01*
X155214822Y-107819013D01*
X155214829Y-107819027D01*
X155284371Y-107923103D01*
X155284377Y-107923110D01*
X155298493Y-107937226D01*
X155329089Y-107993257D01*
X155324534Y-108056935D01*
X155286276Y-108108042D01*
X155226461Y-108130352D01*
X155200654Y-108129246D01*
X155066774Y-108108042D01*
X155027996Y-108101900D01*
X154852004Y-108101900D01*
X154813226Y-108108042D01*
X154678186Y-108129430D01*
X154678178Y-108129432D01*
X154510797Y-108183816D01*
X154507626Y-108185130D01*
X154444150Y-108191946D01*
X154387066Y-108163364D01*
X154384165Y-108160564D01*
X154160827Y-107937226D01*
X153888651Y-107665049D01*
X153807450Y-107618167D01*
X153716881Y-107593900D01*
X152086431Y-107593900D01*
X152025176Y-107575914D01*
X152006316Y-107560715D01*
X151704252Y-107258650D01*
X151704251Y-107258649D01*
X151623050Y-107211767D01*
X151532481Y-107187500D01*
X149970045Y-107187500D01*
X149908790Y-107169514D01*
X149866984Y-107121267D01*
X149857898Y-107058076D01*
X149865370Y-107030841D01*
X149880805Y-106993577D01*
X149900470Y-106946102D01*
X149924646Y-106824561D01*
X149924646Y-106700639D01*
X149900470Y-106579098D01*
X149882518Y-106535758D01*
X149875693Y-106472284D01*
X149904268Y-106415195D01*
X149959172Y-106382619D01*
X149987193Y-106379099D01*
X150319369Y-106379099D01*
X150319378Y-106379099D01*
X150344909Y-106376138D01*
X150449325Y-106330034D01*
X150490074Y-106289285D01*
X150546105Y-106258689D01*
X150570189Y-106256100D01*
X151946881Y-106256100D01*
X152037450Y-106231833D01*
X152118651Y-106184951D01*
X152346980Y-105956620D01*
X152403008Y-105926027D01*
X152449196Y-105925616D01*
X152466534Y-105929064D01*
X152482792Y-105932299D01*
X152482795Y-105932299D01*
X152482799Y-105932300D01*
X152482802Y-105932300D01*
X152617198Y-105932300D01*
X152617201Y-105932300D01*
X152749019Y-105906079D01*
X152873190Y-105854646D01*
X152984941Y-105779977D01*
X153079977Y-105684941D01*
X153154646Y-105573190D01*
X153206079Y-105449019D01*
X153232300Y-105317201D01*
X153232300Y-105182799D01*
X153206079Y-105050981D01*
X153154646Y-104926810D01*
X153079977Y-104815059D01*
X152984941Y-104720023D01*
X152897654Y-104661700D01*
X152873189Y-104645353D01*
X152749020Y-104593921D01*
X152617202Y-104567700D01*
X152617201Y-104567700D01*
X152482799Y-104567700D01*
X152482797Y-104567700D01*
X152350979Y-104593921D01*
X152226810Y-104645353D01*
X152115057Y-104720024D01*
X152020024Y-104815057D01*
X151945353Y-104926810D01*
X151893921Y-105050979D01*
X151867700Y-105182797D01*
X151867700Y-105317196D01*
X151867701Y-105317209D01*
X151874383Y-105350804D01*
X151873736Y-105358026D01*
X151876271Y-105364821D01*
X151870931Y-105389368D01*
X151868692Y-105414391D01*
X151863897Y-105421707D01*
X151862702Y-105427203D01*
X151843377Y-105453020D01*
X151785682Y-105510715D01*
X151729654Y-105541310D01*
X151705568Y-105543900D01*
X150690031Y-105543900D01*
X150628776Y-105525914D01*
X150586970Y-105477667D01*
X150577884Y-105414476D01*
X150587346Y-105382719D01*
X150597666Y-105360585D01*
X150597668Y-105360579D01*
X150603999Y-105312493D01*
X150604000Y-105312486D01*
X150604000Y-105290500D01*
X149463300Y-105290500D01*
X149463300Y-105384103D01*
X149505732Y-105475102D01*
X149503636Y-105476079D01*
X149519504Y-105523116D01*
X149509940Y-105573381D01*
X149473863Y-105655090D01*
X149473862Y-105655092D01*
X149473861Y-105655094D01*
X149470900Y-105680618D01*
X149470900Y-105680621D01*
X149470900Y-105899330D01*
X149470901Y-106020200D01*
X149468570Y-106028136D01*
X149469748Y-106036324D01*
X149459717Y-106058287D01*
X149452915Y-106081454D01*
X149446663Y-106086870D01*
X149443227Y-106094396D01*
X149422914Y-106107450D01*
X149404668Y-106123261D01*
X149395060Y-106125351D01*
X149389521Y-106128911D01*
X149357601Y-106133500D01*
X149342400Y-106133500D01*
X149281145Y-106115514D01*
X149239339Y-106067267D01*
X149229100Y-106020200D01*
X149229099Y-105680631D01*
X149229099Y-105680622D01*
X149226138Y-105655091D01*
X149190059Y-105573381D01*
X149181771Y-105510082D01*
X149195620Y-105475732D01*
X149194268Y-105475102D01*
X149236700Y-105384103D01*
X149236700Y-105290500D01*
X148788300Y-105290500D01*
X148727045Y-105272514D01*
X148685239Y-105224267D01*
X148675000Y-105177200D01*
X148675000Y-105022800D01*
X148692986Y-104961545D01*
X148741233Y-104919739D01*
X148788300Y-104909500D01*
X149236700Y-104909500D01*
X149236700Y-104815896D01*
X149463300Y-104815896D01*
X149463300Y-104909500D01*
X150604000Y-104909500D01*
X150604000Y-104887513D01*
X150603999Y-104887506D01*
X150597668Y-104839420D01*
X150597667Y-104839417D01*
X150554694Y-104747259D01*
X150545108Y-104684142D01*
X150571167Y-104625862D01*
X150600725Y-104601259D01*
X150631051Y-104583751D01*
X151334951Y-103879851D01*
X151346398Y-103860025D01*
X151381833Y-103798650D01*
X151393156Y-103756392D01*
X151406101Y-103708081D01*
X151406101Y-103614319D01*
X151406100Y-103614315D01*
X151406100Y-102068216D01*
X151424086Y-102006961D01*
X151456453Y-101974011D01*
X151484941Y-101954977D01*
X151579977Y-101859941D01*
X151654646Y-101748190D01*
X151706079Y-101624019D01*
X151732300Y-101492201D01*
X151732300Y-101471582D01*
X153779601Y-101471582D01*
X153782335Y-101506353D01*
X153825573Y-101655173D01*
X153904461Y-101788563D01*
X153904463Y-101788566D01*
X154014033Y-101898136D01*
X154014036Y-101898138D01*
X154147430Y-101977029D01*
X154292299Y-102019117D01*
X154292300Y-102019117D01*
X154673300Y-102019117D01*
X154818169Y-101977029D01*
X154951563Y-101898138D01*
X154951566Y-101898136D01*
X155061136Y-101788566D01*
X155061138Y-101788563D01*
X155140027Y-101655172D01*
X155183264Y-101506351D01*
X155186000Y-101471582D01*
X155186000Y-101409500D01*
X154673300Y-101409500D01*
X154673300Y-102019117D01*
X154292300Y-102019117D01*
X154292300Y-101409500D01*
X153779601Y-101409500D01*
X153779601Y-101471582D01*
X151732300Y-101471582D01*
X151732300Y-101357799D01*
X151706079Y-101225981D01*
X151654646Y-101101810D01*
X151579977Y-100990059D01*
X151484941Y-100895023D01*
X151373190Y-100820354D01*
X151373191Y-100820354D01*
X151373189Y-100820353D01*
X151249020Y-100768921D01*
X151117202Y-100742700D01*
X151117201Y-100742700D01*
X150982799Y-100742700D01*
X150982797Y-100742700D01*
X150850979Y-100768921D01*
X150726810Y-100820353D01*
X150615057Y-100895024D01*
X150520024Y-100990057D01*
X150445353Y-101101810D01*
X150393921Y-101225979D01*
X150367700Y-101357797D01*
X150367700Y-101492204D01*
X150389958Y-101604096D01*
X150384268Y-101667682D01*
X150345104Y-101718098D01*
X150284900Y-101739338D01*
X150278835Y-101739500D01*
X150237405Y-101739500D01*
X150114628Y-101763922D01*
X150114622Y-101763924D01*
X149998986Y-101811822D01*
X149998972Y-101811829D01*
X149894896Y-101881371D01*
X149894889Y-101881377D01*
X149806377Y-101969889D01*
X149806371Y-101969896D01*
X149736829Y-102073972D01*
X149736822Y-102073986D01*
X149688924Y-102189622D01*
X149688922Y-102189628D01*
X149664500Y-102312405D01*
X149664500Y-102437596D01*
X149680741Y-102519243D01*
X149679058Y-102570667D01*
X149670900Y-102601116D01*
X149670900Y-102965132D01*
X149652914Y-103026387D01*
X149604667Y-103068193D01*
X149603369Y-103068776D01*
X149600677Y-103069964D01*
X149600674Y-103069966D01*
X149519964Y-103150677D01*
X149473862Y-103255089D01*
X149473861Y-103255094D01*
X149470900Y-103280618D01*
X149470900Y-103719368D01*
X149470901Y-103719378D01*
X149473861Y-103744908D01*
X149522134Y-103854237D01*
X149526189Y-103885211D01*
X149530634Y-103916125D01*
X149530361Y-103917075D01*
X149530422Y-103917537D01*
X149529930Y-103918578D01*
X149522134Y-103945763D01*
X149504872Y-103984860D01*
X149473863Y-104055090D01*
X149473862Y-104055092D01*
X149473861Y-104055094D01*
X149470900Y-104080618D01*
X149470900Y-104519368D01*
X149470901Y-104519378D01*
X149473862Y-104544909D01*
X149509939Y-104626617D01*
X149518228Y-104689917D01*
X149504382Y-104724269D01*
X149505732Y-104724899D01*
X149463300Y-104815896D01*
X149236700Y-104815896D01*
X149194268Y-104724899D01*
X149196362Y-104723922D01*
X149180495Y-104676875D01*
X149190058Y-104626620D01*
X149226138Y-104544909D01*
X149229100Y-104519379D01*
X149229099Y-104080622D01*
X149226138Y-104055091D01*
X149195128Y-103984860D01*
X149177866Y-103945763D01*
X149173814Y-103914821D01*
X149169365Y-103883874D01*
X149169673Y-103883198D01*
X149169577Y-103882462D01*
X149177866Y-103854235D01*
X149194346Y-103816911D01*
X149226138Y-103744909D01*
X149229100Y-103719379D01*
X149229099Y-103280622D01*
X149226138Y-103255091D01*
X149180034Y-103150675D01*
X149099325Y-103069966D01*
X149099322Y-103069964D01*
X148994910Y-103023862D01*
X148994905Y-103023861D01*
X148973920Y-103021426D01*
X148969379Y-103020900D01*
X148969378Y-103020900D01*
X148380631Y-103020900D01*
X148380621Y-103020901D01*
X148355090Y-103023862D01*
X148250678Y-103069964D01*
X148250674Y-103069966D01*
X148211126Y-103109515D01*
X148155095Y-103140111D01*
X148131011Y-103142700D01*
X148015919Y-103142700D01*
X147925349Y-103166967D01*
X147844150Y-103213848D01*
X147844147Y-103213850D01*
X147777847Y-103280151D01*
X147237309Y-103820686D01*
X147181277Y-103851282D01*
X147117599Y-103846727D01*
X147066492Y-103808469D01*
X147060571Y-103799593D01*
X147060139Y-103799036D01*
X146950566Y-103689463D01*
X146950563Y-103689461D01*
X146817170Y-103610572D01*
X146672300Y-103568482D01*
X146672300Y-104255300D01*
X146654314Y-104316555D01*
X146606067Y-104358361D01*
X146559000Y-104368600D01*
X146481800Y-104368600D01*
X146481800Y-104445800D01*
X146463814Y-104507055D01*
X146415567Y-104548861D01*
X146368500Y-104559100D01*
X145765723Y-104559100D01*
X145738055Y-104574207D01*
X145674377Y-104569651D01*
X145633860Y-104543611D01*
X145415285Y-104325036D01*
X145402324Y-104301299D01*
X145387290Y-104278819D01*
X145386215Y-104271798D01*
X145384689Y-104269004D01*
X145382119Y-104246988D01*
X145382100Y-104245947D01*
X145382100Y-104139388D01*
X145379023Y-104116017D01*
X145778600Y-104116017D01*
X145778600Y-104178100D01*
X146291300Y-104178100D01*
X146291300Y-103568482D01*
X146146429Y-103610572D01*
X146013036Y-103689461D01*
X146013033Y-103689463D01*
X145903463Y-103799033D01*
X145903461Y-103799036D01*
X145824572Y-103932427D01*
X145781335Y-104081248D01*
X145778600Y-104116017D01*
X145379023Y-104116017D01*
X145366954Y-104024341D01*
X145307659Y-103881191D01*
X145307658Y-103881190D01*
X145307657Y-103881187D01*
X145303947Y-103874761D01*
X145305583Y-103873816D01*
X145286197Y-103823686D01*
X145299018Y-103761146D01*
X145318985Y-103734136D01*
X145944957Y-103108164D01*
X145968428Y-103090157D01*
X145970647Y-103088876D01*
X146041676Y-103017847D01*
X146235276Y-102824247D01*
X146285502Y-102737253D01*
X146311501Y-102640225D01*
X146311501Y-102539775D01*
X146311501Y-102532836D01*
X146311500Y-102532818D01*
X146311500Y-100739775D01*
X146299524Y-100695082D01*
X146285501Y-100642746D01*
X146284720Y-100641394D01*
X146264272Y-100605977D01*
X146235276Y-100555753D01*
X146164247Y-100484724D01*
X146160295Y-100480772D01*
X146160284Y-100480762D01*
X145401208Y-99721685D01*
X145390016Y-99710493D01*
X148098000Y-99710493D01*
X148104331Y-99758579D01*
X148104332Y-99758582D01*
X148153542Y-99864115D01*
X148153543Y-99864117D01*
X148235882Y-99946456D01*
X148235884Y-99946457D01*
X148341417Y-99995667D01*
X148341420Y-99995668D01*
X148389506Y-100001999D01*
X148389514Y-100002000D01*
X148486500Y-100002000D01*
X148867500Y-100002000D01*
X148964486Y-100002000D01*
X148964493Y-100001999D01*
X149012579Y-99995668D01*
X149012582Y-99995667D01*
X149118115Y-99946457D01*
X149118117Y-99946456D01*
X149200456Y-99864117D01*
X149200459Y-99864113D01*
X149238700Y-99782103D01*
X149465300Y-99782103D01*
X149503540Y-99864113D01*
X149503543Y-99864117D01*
X149585882Y-99946456D01*
X149585884Y-99946457D01*
X149691417Y-99995667D01*
X149691420Y-99995668D01*
X149739506Y-100001999D01*
X149739514Y-100002000D01*
X149836500Y-100002000D01*
X150217500Y-100002000D01*
X150314486Y-100002000D01*
X150314493Y-100001999D01*
X150362579Y-99995668D01*
X150362582Y-99995667D01*
X150468115Y-99946457D01*
X150468117Y-99946456D01*
X150550456Y-99864117D01*
X150550457Y-99864115D01*
X150599667Y-99758582D01*
X150599668Y-99758579D01*
X150605999Y-99710493D01*
X150606000Y-99710486D01*
X150606000Y-99688500D01*
X150217500Y-99688500D01*
X150217500Y-100002000D01*
X149836500Y-100002000D01*
X149836500Y-99688500D01*
X149465300Y-99688500D01*
X149465300Y-99782103D01*
X149238700Y-99782103D01*
X149238700Y-99688500D01*
X148867500Y-99688500D01*
X148867500Y-100002000D01*
X148486500Y-100002000D01*
X148486500Y-99688500D01*
X148098000Y-99688500D01*
X148098000Y-99710493D01*
X145390016Y-99710493D01*
X144719038Y-99039515D01*
X144688442Y-98983484D01*
X144692997Y-98919806D01*
X144731255Y-98868699D01*
X144791070Y-98846389D01*
X144799153Y-98846100D01*
X147935568Y-98846100D01*
X147962472Y-98853999D01*
X147989867Y-98859959D01*
X147994448Y-98863388D01*
X147996823Y-98864086D01*
X148015683Y-98879285D01*
X148100350Y-98963952D01*
X148114885Y-98972344D01*
X148158940Y-99018548D01*
X148171021Y-99081235D01*
X148155974Y-99122079D01*
X148157732Y-99122899D01*
X148104332Y-99237417D01*
X148104331Y-99237420D01*
X148098000Y-99285506D01*
X148098000Y-99307500D01*
X149238700Y-99307500D01*
X149238700Y-99213896D01*
X149196268Y-99122899D01*
X149198362Y-99121922D01*
X149182495Y-99074875D01*
X149192058Y-99024620D01*
X149228138Y-98942909D01*
X149231100Y-98917379D01*
X149231099Y-98478622D01*
X149228138Y-98453091D01*
X149192059Y-98371381D01*
X149183771Y-98308082D01*
X149197620Y-98273732D01*
X149196268Y-98273102D01*
X149238700Y-98182103D01*
X149465300Y-98182103D01*
X149507732Y-98273102D01*
X149505636Y-98274079D01*
X149521504Y-98321116D01*
X149511940Y-98371381D01*
X149475863Y-98453090D01*
X149475862Y-98453092D01*
X149475861Y-98453094D01*
X149472900Y-98478618D01*
X149472900Y-98917368D01*
X149472901Y-98917378D01*
X149475862Y-98942909D01*
X149511939Y-99024617D01*
X149520228Y-99087917D01*
X149506382Y-99122269D01*
X149507732Y-99122899D01*
X149465300Y-99213896D01*
X149465300Y-99307500D01*
X150606000Y-99307500D01*
X150606000Y-99285513D01*
X150605999Y-99285506D01*
X150599668Y-99237420D01*
X150599666Y-99237414D01*
X150589346Y-99215281D01*
X150579760Y-99152165D01*
X150605820Y-99093885D01*
X150659251Y-99058946D01*
X150692031Y-99054100D01*
X151193592Y-99054100D01*
X151254847Y-99072086D01*
X151287797Y-99104453D01*
X151362023Y-99215541D01*
X151457059Y-99310577D01*
X151568810Y-99385246D01*
X151692981Y-99436679D01*
X151824799Y-99462900D01*
X151824802Y-99462900D01*
X151959198Y-99462900D01*
X151959201Y-99462900D01*
X152091019Y-99436679D01*
X152215190Y-99385246D01*
X152326941Y-99310577D01*
X152421977Y-99215541D01*
X152496646Y-99103790D01*
X152548079Y-98979619D01*
X152574300Y-98847801D01*
X152574300Y-98713399D01*
X152548079Y-98581581D01*
X152496646Y-98457410D01*
X152421977Y-98345659D01*
X152326941Y-98250623D01*
X152271065Y-98213288D01*
X152215189Y-98175953D01*
X152091020Y-98124521D01*
X151959202Y-98098300D01*
X151959201Y-98098300D01*
X151824799Y-98098300D01*
X151824797Y-98098300D01*
X151692979Y-98124521D01*
X151568810Y-98175953D01*
X151457057Y-98250624D01*
X151457056Y-98250625D01*
X151398967Y-98308715D01*
X151342936Y-98339311D01*
X151318852Y-98341900D01*
X150692031Y-98341900D01*
X150630776Y-98323914D01*
X150588970Y-98275667D01*
X150579884Y-98212476D01*
X150589346Y-98180719D01*
X150599666Y-98158585D01*
X150599668Y-98158579D01*
X150605999Y-98110493D01*
X150606000Y-98110486D01*
X150606000Y-98088500D01*
X149465300Y-98088500D01*
X149465300Y-98182103D01*
X149238700Y-98182103D01*
X149238700Y-98088500D01*
X148098000Y-98088500D01*
X148085785Y-98100715D01*
X148029754Y-98131311D01*
X148005670Y-98133900D01*
X143583837Y-98133900D01*
X143583821Y-98133899D01*
X143576881Y-98133899D01*
X143483119Y-98133899D01*
X143411689Y-98153038D01*
X143411686Y-98153038D01*
X143392551Y-98158166D01*
X143392545Y-98158169D01*
X143311350Y-98205048D01*
X143311347Y-98205050D01*
X142745050Y-98771347D01*
X142745048Y-98771350D01*
X142698167Y-98852549D01*
X142673900Y-98943118D01*
X142673900Y-99545568D01*
X142655914Y-99606823D01*
X142640715Y-99625683D01*
X141865683Y-100400715D01*
X141809652Y-100431311D01*
X141785568Y-100433900D01*
X140974432Y-100433900D01*
X140913177Y-100415914D01*
X140894317Y-100400715D01*
X140498652Y-100005050D01*
X140498651Y-100005049D01*
X140417450Y-99958167D01*
X140326881Y-99933900D01*
X138424432Y-99933900D01*
X138363177Y-99915914D01*
X138344317Y-99900715D01*
X137894508Y-99450906D01*
X137882189Y-99428347D01*
X137867379Y-99407338D01*
X137867094Y-99400703D01*
X137863912Y-99394875D01*
X137865745Y-99369238D01*
X137864645Y-99343556D01*
X137867993Y-99337819D01*
X137868467Y-99331197D01*
X137883868Y-99310623D01*
X137896828Y-99288421D01*
X137904578Y-99282957D01*
X137906725Y-99280090D01*
X137923183Y-99269841D01*
X137984509Y-99238595D01*
X137984510Y-99238593D01*
X137991718Y-99234921D01*
X138054461Y-99223138D01*
X138110434Y-99244711D01*
X138174954Y-99292328D01*
X138194500Y-99299167D01*
X138575500Y-99299167D01*
X138595043Y-99292329D01*
X138642720Y-99257143D01*
X138702686Y-99235240D01*
X138764974Y-99249235D01*
X138777280Y-99257143D01*
X138824956Y-99292329D01*
X138844499Y-99299167D01*
X138844500Y-99299167D01*
X138844500Y-98259900D01*
X138575500Y-98259900D01*
X138575500Y-99299167D01*
X138194500Y-99299167D01*
X138194500Y-98182700D01*
X138212486Y-98121445D01*
X138260733Y-98079639D01*
X138307800Y-98069400D01*
X138385000Y-98069400D01*
X138385000Y-97992200D01*
X138402986Y-97930945D01*
X138451233Y-97889139D01*
X138498300Y-97878900D01*
X138921700Y-97878900D01*
X138982955Y-97896886D01*
X139024761Y-97945133D01*
X139035000Y-97992200D01*
X139035000Y-98069400D01*
X139112200Y-98069400D01*
X139173455Y-98087386D01*
X139215261Y-98135633D01*
X139225500Y-98182700D01*
X139225500Y-99299167D01*
X139245043Y-99292329D01*
X139309605Y-99244681D01*
X139369571Y-99222778D01*
X139428322Y-99234891D01*
X139435590Y-99238594D01*
X139435591Y-99238595D01*
X139554020Y-99298937D01*
X139652280Y-99314500D01*
X139652283Y-99314500D01*
X139718317Y-99314500D01*
X139718320Y-99314500D01*
X139816580Y-99298937D01*
X139935009Y-99238595D01*
X139935011Y-99238592D01*
X139942221Y-99233355D01*
X139944072Y-99235903D01*
X139986066Y-99212973D01*
X140049744Y-99217528D01*
X140076898Y-99234979D01*
X140078079Y-99233355D01*
X140085291Y-99238595D01*
X140203720Y-99298937D01*
X140301980Y-99314500D01*
X140301983Y-99314500D01*
X140368017Y-99314500D01*
X140368020Y-99314500D01*
X140466280Y-99298937D01*
X140584709Y-99238595D01*
X140678695Y-99144609D01*
X140739037Y-99026180D01*
X140754600Y-98927920D01*
X140754600Y-97210880D01*
X140746466Y-97159523D01*
X140754648Y-97096209D01*
X140795762Y-97047370D01*
X140856754Y-97028512D01*
X140858371Y-97028500D01*
X148009600Y-97028500D01*
X148070855Y-97046486D01*
X148112661Y-97094733D01*
X148122900Y-97141799D01*
X148122900Y-97317368D01*
X148122901Y-97317378D01*
X148125862Y-97342909D01*
X148161939Y-97424617D01*
X148170228Y-97487917D01*
X148156382Y-97522269D01*
X148157732Y-97522899D01*
X148104332Y-97637417D01*
X148104331Y-97637420D01*
X148098000Y-97685506D01*
X148098000Y-97707500D01*
X149238700Y-97707500D01*
X149238700Y-97613896D01*
X149465300Y-97613896D01*
X149465300Y-97707500D01*
X150606000Y-97707500D01*
X150606000Y-97685513D01*
X150605999Y-97685506D01*
X150599668Y-97637420D01*
X150597243Y-97629099D01*
X150599184Y-97628533D01*
X150596340Y-97608757D01*
X150591604Y-97577562D01*
X150591794Y-97577136D01*
X150591728Y-97576676D01*
X150604816Y-97548015D01*
X150617666Y-97519283D01*
X150618055Y-97519028D01*
X150618249Y-97518604D01*
X150644778Y-97501554D01*
X150671097Y-97484345D01*
X150671693Y-97484256D01*
X150671955Y-97484089D01*
X150703875Y-97479500D01*
X150788237Y-97479500D01*
X150849492Y-97497486D01*
X150868352Y-97512685D01*
X150902689Y-97547022D01*
X150902696Y-97547028D01*
X151006772Y-97616570D01*
X151006786Y-97616577D01*
X151122422Y-97664475D01*
X151122428Y-97664477D01*
X151122429Y-97664477D01*
X151122431Y-97664478D01*
X151245209Y-97688900D01*
X151245212Y-97688900D01*
X151370388Y-97688900D01*
X151370391Y-97688900D01*
X151493169Y-97664478D01*
X151493173Y-97664476D01*
X151493177Y-97664475D01*
X151608813Y-97616577D01*
X151608816Y-97616575D01*
X151608822Y-97616573D01*
X151608824Y-97616571D01*
X151608827Y-97616570D01*
X151667844Y-97577136D01*
X151712908Y-97547025D01*
X151801425Y-97458508D01*
X151867698Y-97359324D01*
X151870970Y-97354427D01*
X151870971Y-97354424D01*
X151870973Y-97354422D01*
X151871095Y-97354127D01*
X151918875Y-97238777D01*
X151918877Y-97238771D01*
X151918876Y-97238771D01*
X151918878Y-97238769D01*
X151943300Y-97115991D01*
X151943300Y-96990809D01*
X151918878Y-96868031D01*
X151918877Y-96868028D01*
X151918875Y-96868022D01*
X151870977Y-96752386D01*
X151870970Y-96752372D01*
X151801428Y-96648296D01*
X151801422Y-96648289D01*
X151712910Y-96559777D01*
X151712903Y-96559771D01*
X151608827Y-96490229D01*
X151608813Y-96490222D01*
X151493177Y-96442324D01*
X151493171Y-96442322D01*
X151370394Y-96417900D01*
X151370391Y-96417900D01*
X151245209Y-96417900D01*
X151245205Y-96417900D01*
X151122428Y-96442322D01*
X151122422Y-96442324D01*
X151006786Y-96490222D01*
X151006772Y-96490229D01*
X150902696Y-96559771D01*
X150902689Y-96559777D01*
X150814177Y-96648289D01*
X150814171Y-96648296D01*
X150802245Y-96666146D01*
X150796679Y-96670797D01*
X150793666Y-96677396D01*
X150772531Y-96690978D01*
X150753259Y-96707085D01*
X150744694Y-96708868D01*
X150739960Y-96711911D01*
X150708040Y-96716500D01*
X150546789Y-96716500D01*
X150485534Y-96698514D01*
X150466674Y-96683315D01*
X150451325Y-96667966D01*
X150451322Y-96667964D01*
X150346910Y-96621862D01*
X150346905Y-96621861D01*
X150325920Y-96619426D01*
X150321379Y-96618900D01*
X150321378Y-96618900D01*
X149732631Y-96618900D01*
X149732621Y-96618901D01*
X149707090Y-96621862D01*
X149602678Y-96667964D01*
X149602674Y-96667966D01*
X149521966Y-96748674D01*
X149521964Y-96748677D01*
X149475862Y-96853089D01*
X149475861Y-96853094D01*
X149472900Y-96878618D01*
X149472900Y-97317368D01*
X149472901Y-97317378D01*
X149475862Y-97342909D01*
X149511939Y-97424617D01*
X149520228Y-97487917D01*
X149506382Y-97522269D01*
X149507732Y-97522899D01*
X149465300Y-97613896D01*
X149238700Y-97613896D01*
X149196268Y-97522899D01*
X149198362Y-97521922D01*
X149182495Y-97474875D01*
X149192058Y-97424620D01*
X149228138Y-97342909D01*
X149231100Y-97317379D01*
X149231099Y-96878622D01*
X149228138Y-96853091D01*
X149182034Y-96748675D01*
X149101325Y-96667966D01*
X149101322Y-96667964D01*
X148996910Y-96621862D01*
X148996905Y-96621861D01*
X148971382Y-96618900D01*
X148971379Y-96618900D01*
X148748431Y-96618900D01*
X148687176Y-96600914D01*
X148668316Y-96585715D01*
X148572830Y-96490229D01*
X148470051Y-96387449D01*
X148388850Y-96340567D01*
X148298281Y-96316300D01*
X136724281Y-96316300D01*
X136630519Y-96316300D01*
X136539949Y-96340567D01*
X136458750Y-96387448D01*
X136458747Y-96387450D01*
X136150350Y-96695847D01*
X136150348Y-96695850D01*
X136099753Y-96783482D01*
X136097360Y-96782100D01*
X136065526Y-96821566D01*
X136004943Y-96841698D01*
X135978375Y-96837663D01*
X135975600Y-96839632D01*
X135975600Y-99299167D01*
X135995143Y-99292329D01*
X136059664Y-99244711D01*
X136119630Y-99222808D01*
X136178381Y-99234921D01*
X136185590Y-99238594D01*
X136185591Y-99238595D01*
X136304020Y-99298937D01*
X136402280Y-99314500D01*
X136402283Y-99314500D01*
X136468317Y-99314500D01*
X136468320Y-99314500D01*
X136566580Y-99298937D01*
X136622344Y-99270523D01*
X136685086Y-99258741D01*
X136744240Y-99282749D01*
X136771900Y-99314824D01*
X136800147Y-99363749D01*
X136800149Y-99363751D01*
X138011349Y-100574951D01*
X138092550Y-100621833D01*
X138183119Y-100646100D01*
X138276881Y-100646100D01*
X140085568Y-100646100D01*
X140146823Y-100664086D01*
X140165683Y-100679285D01*
X140495049Y-101008651D01*
X140561349Y-101074951D01*
X140642550Y-101121833D01*
X140661689Y-101126961D01*
X140733119Y-101146101D01*
X140826881Y-101146101D01*
X140826885Y-101146100D01*
X141933119Y-101146100D01*
X142026881Y-101146100D01*
X142117450Y-101121833D01*
X142198651Y-101074951D01*
X143239322Y-100034277D01*
X143239327Y-100034274D01*
X143248649Y-100024951D01*
X143248651Y-100024951D01*
X143314951Y-99958651D01*
X143361833Y-99877450D01*
X143361833Y-99877447D01*
X143362380Y-99876501D01*
X143408584Y-99832446D01*
X143471271Y-99820364D01*
X143523446Y-99838944D01*
X143606810Y-99894646D01*
X143730981Y-99946079D01*
X143862799Y-99972300D01*
X143862802Y-99972300D01*
X143997198Y-99972300D01*
X143997201Y-99972300D01*
X144129019Y-99946079D01*
X144253190Y-99894646D01*
X144253193Y-99894643D01*
X144253195Y-99894643D01*
X144320906Y-99849400D01*
X144381829Y-99830323D01*
X144443395Y-99847213D01*
X144463967Y-99863490D01*
X145515315Y-100914837D01*
X145545911Y-100970868D01*
X145548500Y-100994952D01*
X145548500Y-102382456D01*
X145530514Y-102443711D01*
X145500507Y-102472330D01*
X145501640Y-102473807D01*
X145495750Y-102478325D01*
X144912721Y-103061354D01*
X144856690Y-103091950D01*
X144793012Y-103087395D01*
X144747990Y-103056585D01*
X144333765Y-102591398D01*
X144326056Y-102582741D01*
X144318226Y-102569178D01*
X144279460Y-102530412D01*
X144277280Y-102527964D01*
X144277279Y-102527962D01*
X144242991Y-102489455D01*
X144242992Y-102489455D01*
X144239581Y-102487213D01*
X144239581Y-102487214D01*
X144229896Y-102480848D01*
X144218822Y-102469774D01*
X144171339Y-102442359D01*
X144168601Y-102440559D01*
X144168600Y-102440558D01*
X144125520Y-102412242D01*
X144125510Y-102412237D01*
X144121651Y-102410960D01*
X144121648Y-102410959D01*
X144110642Y-102407315D01*
X144097078Y-102399484D01*
X144044126Y-102385295D01*
X144041004Y-102384262D01*
X143992059Y-102368060D01*
X143992056Y-102368059D01*
X143987978Y-102367823D01*
X143965231Y-102364156D01*
X143961289Y-102363100D01*
X143906453Y-102363100D01*
X143851717Y-102359928D01*
X143836377Y-102363100D01*
X137793289Y-102363100D01*
X137652711Y-102363100D01*
X137516924Y-102399483D01*
X137516916Y-102399486D01*
X137395180Y-102469772D01*
X137395178Y-102469774D01*
X137284389Y-102580561D01*
X137228359Y-102611156D01*
X137164681Y-102606601D01*
X137124161Y-102580560D01*
X135524385Y-100980783D01*
X135493789Y-100924752D01*
X135491200Y-100900668D01*
X135491200Y-99422665D01*
X135509186Y-99361410D01*
X135557433Y-99319604D01*
X135567923Y-99318095D01*
X135594600Y-99299167D01*
X135594600Y-96839632D01*
X135575047Y-96846474D01*
X135510616Y-96894027D01*
X135450651Y-96915930D01*
X135391901Y-96903818D01*
X135266380Y-96839863D01*
X135266376Y-96839862D01*
X135223591Y-96833085D01*
X135168120Y-96824300D01*
X135102080Y-96824300D01*
X135055394Y-96831694D01*
X135003823Y-96839862D01*
X135003817Y-96839864D01*
X134885391Y-96900204D01*
X134878179Y-96905445D01*
X134876386Y-96902977D01*
X134834084Y-96926077D01*
X134770406Y-96921522D01*
X134742956Y-96903881D01*
X134741821Y-96905445D01*
X134734608Y-96900204D01*
X134616182Y-96839864D01*
X134616181Y-96839863D01*
X134616180Y-96839863D01*
X134616178Y-96839862D01*
X134616176Y-96839862D01*
X134573391Y-96833085D01*
X134517920Y-96824300D01*
X134451880Y-96824300D01*
X134405194Y-96831694D01*
X134353623Y-96839862D01*
X134353619Y-96839863D01*
X134227921Y-96903909D01*
X134165177Y-96915691D01*
X134109205Y-96894118D01*
X134044649Y-96846473D01*
X134025100Y-96839632D01*
X134025100Y-99299167D01*
X134044643Y-99292329D01*
X134109205Y-99244681D01*
X134169171Y-99222778D01*
X134227922Y-99234891D01*
X134235190Y-99238594D01*
X134235191Y-99238595D01*
X134353620Y-99298937D01*
X134451880Y-99314500D01*
X134451883Y-99314500D01*
X134517917Y-99314500D01*
X134517920Y-99314500D01*
X134616180Y-99298937D01*
X134616187Y-99298933D01*
X134624660Y-99296181D01*
X134625205Y-99297859D01*
X134676998Y-99288129D01*
X134736154Y-99312133D01*
X134772941Y-99364309D01*
X134779000Y-99400864D01*
X134779000Y-101048219D01*
X134779000Y-101141981D01*
X134803267Y-101232550D01*
X134850149Y-101313751D01*
X135756135Y-102219737D01*
X136623376Y-103086977D01*
X136653972Y-103143008D01*
X136654384Y-103189196D01*
X136647700Y-103222795D01*
X136647700Y-103357202D01*
X136673921Y-103489020D01*
X136725353Y-103613189D01*
X136730026Y-103620182D01*
X136797016Y-103720441D01*
X136800024Y-103724942D01*
X136891993Y-103816911D01*
X136904311Y-103839469D01*
X136919123Y-103860481D01*
X136919407Y-103867115D01*
X136922589Y-103872942D01*
X136920754Y-103898581D01*
X136921855Y-103924264D01*
X136918507Y-103929998D01*
X136918034Y-103936620D01*
X136902631Y-103957195D01*
X136889671Y-103979398D01*
X136881921Y-103984860D01*
X136879776Y-103987727D01*
X136863313Y-103997978D01*
X136828416Y-104015758D01*
X136765672Y-104027540D01*
X136709701Y-104005967D01*
X136645350Y-103958473D01*
X136625800Y-103951632D01*
X136625800Y-106411167D01*
X136645343Y-106404329D01*
X136709700Y-106356832D01*
X136720941Y-106352726D01*
X136729990Y-106344897D01*
X136750347Y-106341985D01*
X136769666Y-106334929D01*
X136782781Y-106337346D01*
X136793187Y-106335858D01*
X136818767Y-106343978D01*
X136824123Y-106344966D01*
X136834518Y-106349722D01*
X136835391Y-106350595D01*
X136953820Y-106410937D01*
X136975961Y-106414443D01*
X136990058Y-106420894D01*
X137002925Y-106432060D01*
X137018321Y-106439358D01*
X137026537Y-106452551D01*
X137038274Y-106462737D01*
X137043061Y-106479085D01*
X137052069Y-106493550D01*
X137051847Y-106509091D01*
X137056215Y-106524005D01*
X137051403Y-106540347D01*
X137051161Y-106557384D01*
X137041832Y-106572854D01*
X137038184Y-106585246D01*
X137030190Y-106592162D01*
X137023031Y-106604035D01*
X136971177Y-106655889D01*
X136971171Y-106655896D01*
X136901629Y-106759972D01*
X136901622Y-106759986D01*
X136853724Y-106875622D01*
X136853722Y-106875628D01*
X136829300Y-106998405D01*
X136829300Y-107123594D01*
X136853722Y-107246371D01*
X136853724Y-107246377D01*
X136901622Y-107362013D01*
X136901630Y-107362027D01*
X136972742Y-107468454D01*
X136991819Y-107529378D01*
X136974929Y-107590944D01*
X136927436Y-107633605D01*
X136878537Y-107644700D01*
X135525632Y-107644700D01*
X135498727Y-107636800D01*
X135471333Y-107630841D01*
X135466751Y-107627411D01*
X135464377Y-107626714D01*
X135445517Y-107611515D01*
X135439223Y-107605221D01*
X135408627Y-107549190D01*
X135408285Y-107510224D01*
X135407354Y-107510133D01*
X135407900Y-107504588D01*
X135407900Y-107379411D01*
X135407899Y-107379405D01*
X135383478Y-107256631D01*
X135383477Y-107256628D01*
X135383475Y-107256622D01*
X135335577Y-107140986D01*
X135335570Y-107140972D01*
X135266028Y-107036896D01*
X135266022Y-107036889D01*
X135177510Y-106948377D01*
X135177503Y-106948371D01*
X135073427Y-106878829D01*
X135073413Y-106878822D01*
X134957777Y-106830924D01*
X134957771Y-106830922D01*
X134834994Y-106806500D01*
X134834991Y-106806500D01*
X134709809Y-106806500D01*
X134709805Y-106806500D01*
X134587028Y-106830922D01*
X134587022Y-106830924D01*
X134471386Y-106878822D01*
X134471379Y-106878826D01*
X134367145Y-106948473D01*
X134306221Y-106967549D01*
X134244655Y-106950659D01*
X134214314Y-106923241D01*
X134163535Y-106857065D01*
X134040609Y-106762741D01*
X133897459Y-106703446D01*
X133849370Y-106697115D01*
X133782414Y-106688300D01*
X133782412Y-106688300D01*
X133525588Y-106688300D01*
X133525585Y-106688300D01*
X133410541Y-106703446D01*
X133267390Y-106762741D01*
X133144465Y-106857065D01*
X133050141Y-106979990D01*
X132990846Y-107123141D01*
X132975700Y-107238185D01*
X132975700Y-107696614D01*
X132979467Y-107725224D01*
X132990846Y-107811659D01*
X133050141Y-107954809D01*
X133144465Y-108077735D01*
X133224659Y-108139270D01*
X133228172Y-108141965D01*
X133265820Y-108193523D01*
X133272500Y-108231852D01*
X133272500Y-108304225D01*
X133289364Y-108367161D01*
X133298498Y-108401250D01*
X133298500Y-108401257D01*
X133335794Y-108465852D01*
X133335795Y-108465853D01*
X133342039Y-108476668D01*
X133348724Y-108488247D01*
X133551265Y-108690788D01*
X133581861Y-108746819D01*
X133578905Y-108805913D01*
X133554208Y-108881924D01*
X133529432Y-108958178D01*
X133529430Y-108958186D01*
X133501900Y-109132005D01*
X133501900Y-109307994D01*
X133529430Y-109481813D01*
X133529431Y-109481819D01*
X133529432Y-109481822D01*
X133583816Y-109649201D01*
X133663715Y-109806012D01*
X133767161Y-109948393D01*
X133891607Y-110072839D01*
X134009266Y-110158323D01*
X134048249Y-110208878D01*
X134053712Y-110272484D01*
X134023920Y-110328947D01*
X133968331Y-110360339D01*
X133942670Y-110363284D01*
X132757318Y-110363294D01*
X132696063Y-110345309D01*
X132654256Y-110297061D01*
X132645170Y-110233871D01*
X132671690Y-110175799D01*
X132690716Y-110158336D01*
X132808393Y-110072839D01*
X132932839Y-109948393D01*
X133036285Y-109806012D01*
X133116184Y-109649201D01*
X133170568Y-109481822D01*
X133198100Y-109307996D01*
X133198100Y-109132004D01*
X133170568Y-108958178D01*
X133116184Y-108790799D01*
X133036285Y-108633988D01*
X132932839Y-108491607D01*
X132808393Y-108367161D01*
X132797376Y-108359157D01*
X132730666Y-108310689D01*
X132666012Y-108263715D01*
X132542471Y-108200768D01*
X132507806Y-108183105D01*
X132461393Y-108139270D01*
X132446047Y-108077302D01*
X132461722Y-108024478D01*
X132533226Y-107903573D01*
X132576464Y-107754751D01*
X132579200Y-107719982D01*
X132579200Y-107657900D01*
X131147923Y-107657900D01*
X131146696Y-107658570D01*
X131137330Y-107657900D01*
X131125871Y-107657900D01*
X131125871Y-107657080D01*
X131083018Y-107654015D01*
X131042497Y-107627974D01*
X130964685Y-107550162D01*
X130934089Y-107494131D01*
X130931500Y-107470047D01*
X130931500Y-107214817D01*
X131172800Y-107214817D01*
X131172800Y-107276900D01*
X131685500Y-107276900D01*
X132066500Y-107276900D01*
X132579199Y-107276900D01*
X132579199Y-107214817D01*
X132576464Y-107180046D01*
X132533226Y-107031226D01*
X132454338Y-106897836D01*
X132454336Y-106897833D01*
X132344766Y-106788263D01*
X132344763Y-106788261D01*
X132211370Y-106709372D01*
X132066500Y-106667282D01*
X132066500Y-107276900D01*
X131685500Y-107276900D01*
X131685500Y-106667282D01*
X131540629Y-106709372D01*
X131407236Y-106788261D01*
X131407233Y-106788263D01*
X131297663Y-106897833D01*
X131297661Y-106897836D01*
X131218772Y-107031227D01*
X131175535Y-107180048D01*
X131172800Y-107214817D01*
X130931500Y-107214817D01*
X130931500Y-104322880D01*
X131465300Y-104322880D01*
X131465300Y-106039920D01*
X131472736Y-106086870D01*
X131480862Y-106138176D01*
X131480864Y-106138182D01*
X131540945Y-106256100D01*
X131541205Y-106256609D01*
X131635191Y-106350595D01*
X131753620Y-106410937D01*
X131851880Y-106426500D01*
X131851883Y-106426500D01*
X131917917Y-106426500D01*
X131917920Y-106426500D01*
X132016180Y-106410937D01*
X132134609Y-106350595D01*
X132134611Y-106350592D01*
X132141821Y-106345355D01*
X132143601Y-106347806D01*
X132185966Y-106324673D01*
X132249644Y-106329228D01*
X132277151Y-106346906D01*
X132278279Y-106345355D01*
X132285491Y-106350595D01*
X132403920Y-106410937D01*
X132502180Y-106426500D01*
X132502183Y-106426500D01*
X132568217Y-106426500D01*
X132568220Y-106426500D01*
X132666480Y-106410937D01*
X132784909Y-106350595D01*
X132784911Y-106350592D01*
X132792121Y-106345355D01*
X132793972Y-106347903D01*
X132835966Y-106324973D01*
X132899644Y-106329528D01*
X132926798Y-106346979D01*
X132927979Y-106345355D01*
X132935191Y-106350595D01*
X133053620Y-106410937D01*
X133151880Y-106426500D01*
X133151883Y-106426500D01*
X133217917Y-106426500D01*
X133217920Y-106426500D01*
X133316180Y-106410937D01*
X133434609Y-106350595D01*
X133434611Y-106350592D01*
X133441821Y-106345355D01*
X133443672Y-106347903D01*
X133485666Y-106324973D01*
X133549344Y-106329528D01*
X133576498Y-106346979D01*
X133577679Y-106345355D01*
X133584891Y-106350595D01*
X133703320Y-106410937D01*
X133801580Y-106426500D01*
X133801583Y-106426500D01*
X133867617Y-106426500D01*
X133867620Y-106426500D01*
X133965880Y-106410937D01*
X134084309Y-106350595D01*
X134084311Y-106350592D01*
X134091521Y-106345355D01*
X134093301Y-106347806D01*
X134135666Y-106324673D01*
X134199344Y-106329228D01*
X134226851Y-106346906D01*
X134227979Y-106345355D01*
X134235191Y-106350595D01*
X134353620Y-106410937D01*
X134451880Y-106426500D01*
X134451883Y-106426500D01*
X134517917Y-106426500D01*
X134517920Y-106426500D01*
X134616180Y-106410937D01*
X134734609Y-106350595D01*
X134734611Y-106350592D01*
X134741821Y-106345355D01*
X134743613Y-106347822D01*
X134785916Y-106324723D01*
X134849594Y-106329278D01*
X134877043Y-106346918D01*
X134878179Y-106345355D01*
X134885391Y-106350595D01*
X135003820Y-106410937D01*
X135102080Y-106426500D01*
X135102083Y-106426500D01*
X135168117Y-106426500D01*
X135168120Y-106426500D01*
X135266380Y-106410937D01*
X135384809Y-106350595D01*
X135384811Y-106350592D01*
X135392021Y-106345355D01*
X135393837Y-106347854D01*
X135436016Y-106324823D01*
X135499694Y-106329378D01*
X135527025Y-106346942D01*
X135528179Y-106345355D01*
X135535391Y-106350595D01*
X135653820Y-106410937D01*
X135752080Y-106426500D01*
X135752083Y-106426500D01*
X135818117Y-106426500D01*
X135818120Y-106426500D01*
X135916380Y-106410937D01*
X136034809Y-106350595D01*
X136034810Y-106350593D01*
X136042018Y-106346921D01*
X136104762Y-106335138D01*
X136160734Y-106356711D01*
X136225254Y-106404328D01*
X136244799Y-106411167D01*
X136244800Y-106411167D01*
X136244800Y-103951632D01*
X136225249Y-103958473D01*
X136160735Y-104006088D01*
X136100769Y-104027991D01*
X136042018Y-104015878D01*
X135916382Y-103951864D01*
X135916381Y-103951863D01*
X135916380Y-103951863D01*
X135916378Y-103951862D01*
X135916376Y-103951862D01*
X135870915Y-103944662D01*
X135818120Y-103936300D01*
X135752080Y-103936300D01*
X135705394Y-103943694D01*
X135653823Y-103951862D01*
X135653817Y-103951864D01*
X135535391Y-104012204D01*
X135528179Y-104017445D01*
X135526362Y-104014945D01*
X135484184Y-104037977D01*
X135420506Y-104033422D01*
X135393174Y-104015857D01*
X135392021Y-104017445D01*
X135384808Y-104012204D01*
X135266382Y-103951864D01*
X135266381Y-103951863D01*
X135266380Y-103951863D01*
X135266378Y-103951862D01*
X135266376Y-103951862D01*
X135220915Y-103944662D01*
X135168120Y-103936300D01*
X135102080Y-103936300D01*
X135055394Y-103943694D01*
X135003823Y-103951862D01*
X135003817Y-103951864D01*
X134885391Y-104012204D01*
X134878179Y-104017445D01*
X134876386Y-104014977D01*
X134834084Y-104038077D01*
X134770406Y-104033522D01*
X134742956Y-104015881D01*
X134741821Y-104017445D01*
X134734608Y-104012204D01*
X134616182Y-103951864D01*
X134616181Y-103951863D01*
X134616180Y-103951863D01*
X134616178Y-103951862D01*
X134616176Y-103951862D01*
X134570715Y-103944662D01*
X134517920Y-103936300D01*
X134451880Y-103936300D01*
X134405194Y-103943694D01*
X134353623Y-103951862D01*
X134353617Y-103951864D01*
X134235191Y-104012204D01*
X134227979Y-104017445D01*
X134226198Y-104014993D01*
X134183834Y-104038127D01*
X134120156Y-104033572D01*
X134092648Y-104015893D01*
X134091521Y-104017445D01*
X134084308Y-104012204D01*
X133965882Y-103951864D01*
X133965881Y-103951863D01*
X133965880Y-103951863D01*
X133965878Y-103951862D01*
X133965876Y-103951862D01*
X133920415Y-103944662D01*
X133867620Y-103936300D01*
X133801580Y-103936300D01*
X133754894Y-103943694D01*
X133703323Y-103951862D01*
X133703317Y-103951864D01*
X133584891Y-104012204D01*
X133577679Y-104017445D01*
X133575827Y-104014896D01*
X133533834Y-104037827D01*
X133470156Y-104033272D01*
X133443001Y-104015820D01*
X133441821Y-104017445D01*
X133434608Y-104012204D01*
X133316182Y-103951864D01*
X133316181Y-103951863D01*
X133316180Y-103951863D01*
X133316178Y-103951862D01*
X133316176Y-103951862D01*
X133270715Y-103944662D01*
X133217920Y-103936300D01*
X133151880Y-103936300D01*
X133105194Y-103943694D01*
X133053623Y-103951862D01*
X133053617Y-103951864D01*
X132935191Y-104012204D01*
X132927979Y-104017445D01*
X132926127Y-104014896D01*
X132884134Y-104037827D01*
X132820456Y-104033272D01*
X132793301Y-104015820D01*
X132792121Y-104017445D01*
X132784908Y-104012204D01*
X132666482Y-103951864D01*
X132666481Y-103951863D01*
X132666480Y-103951863D01*
X132666478Y-103951862D01*
X132666476Y-103951862D01*
X132621015Y-103944662D01*
X132568220Y-103936300D01*
X132502180Y-103936300D01*
X132455494Y-103943694D01*
X132403923Y-103951862D01*
X132403917Y-103951864D01*
X132285491Y-104012204D01*
X132278279Y-104017445D01*
X132276498Y-104014993D01*
X132234134Y-104038127D01*
X132170456Y-104033572D01*
X132142948Y-104015893D01*
X132141821Y-104017445D01*
X132134608Y-104012204D01*
X132016182Y-103951864D01*
X132016181Y-103951863D01*
X132016180Y-103951863D01*
X132016178Y-103951862D01*
X132016176Y-103951862D01*
X131970715Y-103944662D01*
X131917920Y-103936300D01*
X131851880Y-103936300D01*
X131805194Y-103943694D01*
X131753623Y-103951862D01*
X131753617Y-103951864D01*
X131635191Y-104012204D01*
X131541204Y-104106191D01*
X131480864Y-104224617D01*
X131480862Y-104224623D01*
X131473833Y-104269004D01*
X131465300Y-104322880D01*
X130931500Y-104322880D01*
X130931500Y-103304953D01*
X130939400Y-103278044D01*
X130945360Y-103250653D01*
X130948788Y-103246072D01*
X130949486Y-103243698D01*
X130964686Y-103224837D01*
X131003040Y-103186484D01*
X131059072Y-103155889D01*
X131083154Y-103153300D01*
X131404206Y-103153300D01*
X131404212Y-103153300D01*
X131519259Y-103138154D01*
X131662409Y-103078859D01*
X131785335Y-102984535D01*
X131869056Y-102875426D01*
X131920615Y-102837780D01*
X131958943Y-102831100D01*
X132021881Y-102831100D01*
X132112450Y-102806833D01*
X132193651Y-102759951D01*
X133469851Y-101483751D01*
X133516733Y-101402550D01*
X133541000Y-101311981D01*
X133541000Y-101218219D01*
X133541000Y-99422770D01*
X133558986Y-99361515D01*
X133607233Y-99319709D01*
X133617161Y-99318281D01*
X133644100Y-99299167D01*
X133644100Y-96839632D01*
X133624547Y-96846474D01*
X133560238Y-96893937D01*
X133500273Y-96915840D01*
X133441523Y-96903727D01*
X133316185Y-96839865D01*
X133316181Y-96839863D01*
X133316180Y-96839863D01*
X133316178Y-96839862D01*
X133316176Y-96839862D01*
X133273391Y-96833085D01*
X133217920Y-96824300D01*
X133151880Y-96824300D01*
X133105194Y-96831694D01*
X133053623Y-96839862D01*
X133053619Y-96839863D01*
X133002081Y-96866123D01*
X132939337Y-96877905D01*
X132880183Y-96853895D01*
X132852524Y-96821821D01*
X132840475Y-96800952D01*
X132384245Y-96344722D01*
X132377044Y-96340565D01*
X132377044Y-96340564D01*
X132297257Y-96294500D01*
X132297254Y-96294499D01*
X132200225Y-96268500D01*
X130074378Y-96268500D01*
X130013123Y-96250514D01*
X129971317Y-96202267D01*
X129962231Y-96139076D01*
X129969702Y-96111842D01*
X129984316Y-96076560D01*
X130006079Y-96024019D01*
X130032300Y-95892201D01*
X130032300Y-95770200D01*
X130050286Y-95708945D01*
X130098533Y-95667139D01*
X130145600Y-95656900D01*
X152818526Y-95656900D01*
X152879781Y-95674886D01*
G37*
%TD.AperFunction*%
%TA.AperFunction,Conductor*%
G36*
X159403426Y-92855061D02*
G01*
X159445233Y-92903309D01*
X159454319Y-92966499D01*
X159427799Y-93024571D01*
X159408768Y-93042037D01*
X159291612Y-93127155D01*
X159167160Y-93251607D01*
X159063715Y-93393988D01*
X158983818Y-93550794D01*
X158983816Y-93550798D01*
X158929432Y-93718178D01*
X158929430Y-93718186D01*
X158901900Y-93892005D01*
X158901900Y-94067994D01*
X158929430Y-94241813D01*
X158929431Y-94241819D01*
X158929432Y-94241822D01*
X158960227Y-94336601D01*
X158983816Y-94409201D01*
X158985521Y-94413317D01*
X158983770Y-94414041D01*
X158994074Y-94468989D01*
X158970049Y-94528137D01*
X158961458Y-94537767D01*
X158657579Y-94841647D01*
X158591649Y-94907576D01*
X158545031Y-94988321D01*
X158543514Y-94993983D01*
X158520899Y-95078382D01*
X158520899Y-95171618D01*
X158520900Y-95171621D01*
X158520900Y-95187358D01*
X158520900Y-95852219D01*
X158502914Y-95913474D01*
X158454667Y-95955280D01*
X158391476Y-95964366D01*
X158349926Y-95949741D01*
X158247172Y-95888972D01*
X158102300Y-95846882D01*
X158102300Y-97447117D01*
X158247172Y-97405028D01*
X158349925Y-97344259D01*
X158411804Y-97328558D01*
X158472349Y-97348805D01*
X158512337Y-97398570D01*
X158520900Y-97441780D01*
X158520900Y-101757279D01*
X158502914Y-101818534D01*
X158477959Y-101843946D01*
X158478982Y-101845192D01*
X158474676Y-101848725D01*
X158387055Y-101936346D01*
X158387049Y-101936353D01*
X158318210Y-102039378D01*
X158318207Y-102039384D01*
X158270784Y-102153870D01*
X158270783Y-102153872D01*
X158246607Y-102275412D01*
X158246607Y-102399341D01*
X158270783Y-102520881D01*
X158270784Y-102520883D01*
X158290789Y-102569178D01*
X158318206Y-102635368D01*
X158318207Y-102635369D01*
X158318210Y-102635375D01*
X158387049Y-102738400D01*
X158387055Y-102738407D01*
X158474678Y-102826030D01*
X158478984Y-102829564D01*
X158477408Y-102831483D01*
X158511480Y-102872244D01*
X158520900Y-102917475D01*
X158520900Y-108028378D01*
X158520899Y-108028382D01*
X158520899Y-108121618D01*
X158539931Y-108192645D01*
X158542106Y-108200764D01*
X158542107Y-108200768D01*
X158545030Y-108211677D01*
X158545031Y-108211678D01*
X158591649Y-108292423D01*
X158664032Y-108364806D01*
X158664038Y-108364811D01*
X158961459Y-108662232D01*
X158992055Y-108718263D01*
X158987500Y-108781941D01*
X158985430Y-108786651D01*
X158985519Y-108786688D01*
X158983816Y-108790796D01*
X158929432Y-108958178D01*
X158929430Y-108958186D01*
X158901900Y-109132005D01*
X158901900Y-109307994D01*
X158929430Y-109481813D01*
X158929431Y-109481819D01*
X158929432Y-109481822D01*
X158983816Y-109649201D01*
X159063715Y-109806012D01*
X159167161Y-109948393D01*
X159291607Y-110072839D01*
X159328828Y-110099882D01*
X159408978Y-110158114D01*
X159447962Y-110208670D01*
X159453425Y-110272276D01*
X159423633Y-110328739D01*
X159368044Y-110360132D01*
X159342383Y-110363076D01*
X158157604Y-110363086D01*
X158096349Y-110345101D01*
X158054542Y-110296853D01*
X158045456Y-110233663D01*
X158071976Y-110175591D01*
X158091001Y-110158129D01*
X158208393Y-110072839D01*
X158332839Y-109948393D01*
X158436285Y-109806012D01*
X158516184Y-109649201D01*
X158570568Y-109481822D01*
X158598100Y-109307996D01*
X158598100Y-109132004D01*
X158570568Y-108958178D01*
X158516184Y-108790799D01*
X158436285Y-108633988D01*
X158332839Y-108491607D01*
X158208393Y-108367161D01*
X158197376Y-108359157D01*
X158130666Y-108310689D01*
X158066012Y-108263715D01*
X157909201Y-108183816D01*
X157741822Y-108129432D01*
X157741819Y-108129431D01*
X157741813Y-108129430D01*
X157624383Y-108110831D01*
X157567996Y-108101900D01*
X157392004Y-108101900D01*
X157335611Y-108110831D01*
X157272297Y-108102648D01*
X157237774Y-108079041D01*
X156446685Y-107287952D01*
X156416089Y-107231921D01*
X156413500Y-107207837D01*
X156413500Y-106360163D01*
X156431486Y-106298908D01*
X156446685Y-106280048D01*
X156597822Y-106128911D01*
X156754425Y-105972308D01*
X156798678Y-105906079D01*
X156823970Y-105868227D01*
X156823971Y-105868224D01*
X156823973Y-105868222D01*
X156823977Y-105868213D01*
X156871875Y-105752577D01*
X156871877Y-105752571D01*
X156871876Y-105752571D01*
X156871878Y-105752569D01*
X156896300Y-105629791D01*
X156896300Y-105504609D01*
X156896300Y-101652556D01*
X156899332Y-101626520D01*
X156901429Y-101617638D01*
X156923954Y-101563259D01*
X156936159Y-101470548D01*
X156937473Y-101464985D01*
X156950544Y-101442020D01*
X156961237Y-101417850D01*
X156967614Y-101410918D01*
X157745025Y-100633508D01*
X157779799Y-100581465D01*
X157814570Y-100529427D01*
X157814571Y-100529424D01*
X157814573Y-100529422D01*
X157862234Y-100414356D01*
X157886794Y-100377601D01*
X157967530Y-100296865D01*
X158024585Y-100184887D01*
X158039300Y-100091981D01*
X158039299Y-98586820D01*
X158038987Y-98584853D01*
X158035018Y-98559795D01*
X158024585Y-98493913D01*
X157967530Y-98381935D01*
X157878665Y-98293070D01*
X157878664Y-98293069D01*
X157878662Y-98293068D01*
X157766692Y-98236017D01*
X157766688Y-98236015D01*
X157766687Y-98236015D01*
X157766685Y-98236014D01*
X157766683Y-98236014D01*
X157756210Y-98234355D01*
X157753875Y-98233985D01*
X157730321Y-98222819D01*
X157705707Y-98214249D01*
X157701846Y-98209320D01*
X157696189Y-98206639D01*
X157682412Y-98184513D01*
X157666337Y-98163993D01*
X157664869Y-98156338D01*
X157662445Y-98152445D01*
X157658793Y-98132640D01*
X157658300Y-98127372D01*
X157658300Y-98015831D01*
X157642255Y-97955952D01*
X157641364Y-97946429D01*
X157643721Y-97934320D01*
X157643048Y-97913765D01*
X157654300Y-97857201D01*
X157654300Y-97722799D01*
X157628379Y-97592490D01*
X157634069Y-97528909D01*
X157673232Y-97478492D01*
X157685079Y-97474312D01*
X157721300Y-97447117D01*
X157721300Y-96837500D01*
X157208601Y-96837500D01*
X157208601Y-96899582D01*
X157211336Y-96934355D01*
X157223304Y-96975549D01*
X157223225Y-97002952D01*
X157225422Y-97030263D01*
X157223135Y-97034539D01*
X157223122Y-97039389D01*
X157208241Y-97062399D01*
X157195323Y-97086563D01*
X157191087Y-97088924D01*
X157188454Y-97092997D01*
X157163493Y-97104309D01*
X157139564Y-97117652D01*
X157133888Y-97117727D01*
X157130307Y-97119351D01*
X157107420Y-97120237D01*
X157099839Y-97119762D01*
X157039201Y-97107700D01*
X156907279Y-97107700D01*
X156903735Y-97107478D01*
X156876930Y-97097749D01*
X156849563Y-97089714D01*
X156847165Y-97086946D01*
X156843724Y-97085698D01*
X156826434Y-97063021D01*
X156807757Y-97041467D01*
X156807208Y-97037806D01*
X156805016Y-97034931D01*
X156802976Y-97009568D01*
X156798487Y-96979611D01*
X156799022Y-96975549D01*
X156812100Y-96876212D01*
X156812100Y-96417788D01*
X156809023Y-96394417D01*
X157208600Y-96394417D01*
X157208600Y-96456500D01*
X157721300Y-96456500D01*
X157721300Y-95846882D01*
X157576429Y-95888972D01*
X157443036Y-95967861D01*
X157443033Y-95967863D01*
X157333463Y-96077433D01*
X157333461Y-96077436D01*
X157254572Y-96210827D01*
X157211335Y-96359648D01*
X157208600Y-96394417D01*
X156809023Y-96394417D01*
X156796954Y-96302741D01*
X156737659Y-96159591D01*
X156643335Y-96036665D01*
X156520409Y-95942341D01*
X156377259Y-95883046D01*
X156336765Y-95877715D01*
X156262214Y-95867900D01*
X156262212Y-95867900D01*
X156005388Y-95867900D01*
X156005385Y-95867900D01*
X155890341Y-95883046D01*
X155747188Y-95942342D01*
X155719371Y-95963687D01*
X155659825Y-95986707D01*
X155650399Y-95987100D01*
X155087757Y-95987100D01*
X155035235Y-95971678D01*
X155034688Y-95972853D01*
X155026954Y-95969246D01*
X155026502Y-95969114D01*
X155026120Y-95968858D01*
X154915951Y-95917486D01*
X154915949Y-95917485D01*
X154865933Y-95910900D01*
X154317274Y-95910900D01*
X154256019Y-95892914D01*
X154237159Y-95877715D01*
X153283842Y-94924398D01*
X153283840Y-94924397D01*
X153255117Y-94907813D01*
X153211062Y-94861609D01*
X153198981Y-94798922D01*
X153222709Y-94739654D01*
X153231638Y-94729593D01*
X153252839Y-94708393D01*
X153356285Y-94566012D01*
X153436184Y-94409201D01*
X153490568Y-94241822D01*
X153518100Y-94067996D01*
X153518100Y-93892004D01*
X153490568Y-93718178D01*
X153436184Y-93550799D01*
X153356285Y-93393988D01*
X153252839Y-93251607D01*
X153128393Y-93127161D01*
X153011300Y-93042088D01*
X152972317Y-92991533D01*
X152966854Y-92927927D01*
X152996646Y-92871464D01*
X153052235Y-92840071D01*
X153077886Y-92837128D01*
X154262118Y-92837118D01*
X154323369Y-92855102D01*
X154365176Y-92903350D01*
X154374262Y-92966540D01*
X154347742Y-93024612D01*
X154328712Y-93042078D01*
X154211608Y-93127159D01*
X154087160Y-93251607D01*
X153983715Y-93393988D01*
X153903818Y-93550794D01*
X153903816Y-93550798D01*
X153849432Y-93718178D01*
X153849430Y-93718186D01*
X153821900Y-93892005D01*
X153821900Y-94067994D01*
X153849430Y-94241813D01*
X153849431Y-94241819D01*
X153849432Y-94241822D01*
X153903816Y-94409201D01*
X153983715Y-94566012D01*
X154087161Y-94708393D01*
X154211607Y-94832839D01*
X154353988Y-94936285D01*
X154510799Y-95016184D01*
X154678178Y-95070568D01*
X154852004Y-95098100D01*
X154852006Y-95098100D01*
X155027994Y-95098100D01*
X155027996Y-95098100D01*
X155201822Y-95070568D01*
X155369201Y-95016184D01*
X155526012Y-94936285D01*
X155668393Y-94832839D01*
X155792839Y-94708393D01*
X155896285Y-94566012D01*
X155976184Y-94409201D01*
X156030568Y-94241822D01*
X156058100Y-94067996D01*
X156058100Y-93892004D01*
X156030568Y-93718178D01*
X155976184Y-93550799D01*
X155896285Y-93393988D01*
X155792839Y-93251607D01*
X155668393Y-93127161D01*
X155668390Y-93127159D01*
X155551273Y-93042068D01*
X155512289Y-92991512D01*
X155506826Y-92927905D01*
X155536618Y-92871443D01*
X155592207Y-92840050D01*
X155617856Y-92837107D01*
X156759782Y-92837098D01*
X156821034Y-92855082D01*
X156862841Y-92903330D01*
X156871927Y-92966520D01*
X156845407Y-93024592D01*
X156826376Y-93042059D01*
X156817741Y-93048332D01*
X156817741Y-93048333D01*
X157319173Y-93549765D01*
X157303527Y-93553958D01*
X157199273Y-93614149D01*
X157114149Y-93699273D01*
X157053958Y-93803527D01*
X157049765Y-93819173D01*
X156548333Y-93317741D01*
X156548331Y-93317741D01*
X156502426Y-93380926D01*
X156502417Y-93380940D01*
X156420743Y-93541235D01*
X156420742Y-93541235D01*
X156365144Y-93712351D01*
X156365143Y-93712355D01*
X156337000Y-93890045D01*
X156337000Y-94069954D01*
X156365143Y-94247644D01*
X156365144Y-94247648D01*
X156420743Y-94418764D01*
X156502417Y-94579058D01*
X156502421Y-94579064D01*
X156548332Y-94642257D01*
X156548333Y-94642257D01*
X157049765Y-94140826D01*
X157053958Y-94156473D01*
X157114149Y-94260727D01*
X157199273Y-94345851D01*
X157303527Y-94406042D01*
X157319172Y-94410234D01*
X156817740Y-94911665D01*
X156817741Y-94911666D01*
X156880935Y-94957578D01*
X156880941Y-94957582D01*
X157041235Y-95039256D01*
X157041235Y-95039257D01*
X157212351Y-95094855D01*
X157212355Y-95094856D01*
X157390046Y-95123000D01*
X157569954Y-95123000D01*
X157747644Y-95094856D01*
X157747648Y-95094855D01*
X157918764Y-95039257D01*
X157918765Y-95039256D01*
X158079060Y-94957582D01*
X158079067Y-94957577D01*
X158142257Y-94911666D01*
X158142258Y-94911665D01*
X157640826Y-94410234D01*
X157656473Y-94406042D01*
X157760727Y-94345851D01*
X157845851Y-94260727D01*
X157906042Y-94156473D01*
X157910234Y-94140826D01*
X158411665Y-94642258D01*
X158411666Y-94642257D01*
X158457577Y-94579067D01*
X158457582Y-94579060D01*
X158539256Y-94418765D01*
X158539257Y-94418764D01*
X158594855Y-94247648D01*
X158594856Y-94247644D01*
X158623000Y-94069954D01*
X158623000Y-93890045D01*
X158594856Y-93712355D01*
X158594855Y-93712351D01*
X158539256Y-93541235D01*
X158457582Y-93380941D01*
X158457578Y-93380935D01*
X158411666Y-93317741D01*
X158411665Y-93317740D01*
X157910234Y-93819172D01*
X157906042Y-93803527D01*
X157845851Y-93699273D01*
X157760727Y-93614149D01*
X157656473Y-93553958D01*
X157640824Y-93549765D01*
X158142257Y-93048333D01*
X158142257Y-93048331D01*
X158133606Y-93042046D01*
X158094622Y-92991491D01*
X158089159Y-92927884D01*
X158118951Y-92871422D01*
X158174540Y-92840029D01*
X158200189Y-92837086D01*
X159342174Y-92837076D01*
X159403426Y-92855061D01*
G37*
%TD.AperFunction*%
%TA.AperFunction,Conductor*%
G36*
X163955049Y-92855025D02*
G01*
X163996856Y-92903272D01*
X164005942Y-92966462D01*
X163998471Y-92993696D01*
X163995193Y-93001609D01*
X163981900Y-93068434D01*
X163981900Y-94891565D01*
X163988432Y-94924399D01*
X163995031Y-94957578D01*
X163995193Y-94958389D01*
X163995192Y-94958389D01*
X164015193Y-94988323D01*
X164045828Y-95034172D01*
X164121610Y-95084807D01*
X164188438Y-95098100D01*
X164188441Y-95098100D01*
X166011559Y-95098100D01*
X166011562Y-95098100D01*
X166078390Y-95084807D01*
X166154172Y-95034172D01*
X166204807Y-94958390D01*
X166218100Y-94891562D01*
X166218100Y-94422227D01*
X166236086Y-94360972D01*
X166284333Y-94319166D01*
X166347524Y-94310080D01*
X166405596Y-94336601D01*
X166440111Y-94390307D01*
X166440824Y-94392850D01*
X166446590Y-94414366D01*
X166540148Y-94615000D01*
X166667124Y-94796340D01*
X166823660Y-94952876D01*
X167005000Y-95079852D01*
X167205634Y-95173410D01*
X167257689Y-95187358D01*
X167419457Y-95230704D01*
X167419463Y-95230705D01*
X167419467Y-95230706D01*
X167640000Y-95250000D01*
X167860533Y-95230706D01*
X167860537Y-95230704D01*
X167860542Y-95230704D01*
X167946875Y-95207570D01*
X168074366Y-95173410D01*
X168275000Y-95079852D01*
X168456340Y-94952876D01*
X168589585Y-94819631D01*
X168645616Y-94789035D01*
X168709294Y-94793590D01*
X168760401Y-94831848D01*
X168782711Y-94891663D01*
X168783000Y-94899746D01*
X168783000Y-108300254D01*
X168765014Y-108361509D01*
X168716767Y-108403315D01*
X168653576Y-108412401D01*
X168595504Y-108385880D01*
X168589585Y-108380369D01*
X168456344Y-108247128D01*
X168456340Y-108247124D01*
X168275000Y-108120148D01*
X168237472Y-108102648D01*
X168074364Y-108026589D01*
X168074360Y-108026588D01*
X167860542Y-107969295D01*
X167860530Y-107969293D01*
X167640000Y-107950000D01*
X167419469Y-107969293D01*
X167419457Y-107969295D01*
X167205639Y-108026588D01*
X167205635Y-108026589D01*
X167005001Y-108120147D01*
X166991744Y-108129430D01*
X166823660Y-108247124D01*
X166823658Y-108247125D01*
X166823655Y-108247128D01*
X166667128Y-108403655D01*
X166667125Y-108403658D01*
X166667124Y-108403660D01*
X166605543Y-108491607D01*
X166540147Y-108585001D01*
X166446589Y-108785635D01*
X166446588Y-108785639D01*
X166440839Y-108807096D01*
X166407612Y-108861609D01*
X166350188Y-108889503D01*
X166286799Y-108881924D01*
X166237571Y-108841277D01*
X166218132Y-108780468D01*
X166218100Y-108777772D01*
X166218100Y-108308440D01*
X166218099Y-108308434D01*
X166214151Y-108288586D01*
X166204807Y-108241610D01*
X166154172Y-108165828D01*
X166103536Y-108131994D01*
X166078389Y-108115192D01*
X166011565Y-108101900D01*
X166011562Y-108101900D01*
X164188438Y-108101900D01*
X164188434Y-108101900D01*
X164121610Y-108115192D01*
X164045828Y-108165828D01*
X163995192Y-108241610D01*
X163981900Y-108308434D01*
X163981900Y-110131565D01*
X163995193Y-110198390D01*
X163998504Y-110206384D01*
X164005326Y-110269858D01*
X163976749Y-110326946D01*
X163921844Y-110359520D01*
X163893828Y-110363039D01*
X163280023Y-110363044D01*
X163218768Y-110345059D01*
X163176961Y-110296811D01*
X163167875Y-110233621D01*
X163194395Y-110175549D01*
X163213426Y-110158082D01*
X163222258Y-110151665D01*
X162720826Y-109650234D01*
X162736473Y-109646042D01*
X162840727Y-109585851D01*
X162925851Y-109500727D01*
X162986042Y-109396473D01*
X162990234Y-109380826D01*
X163491665Y-109882258D01*
X163491666Y-109882257D01*
X163537577Y-109819067D01*
X163537582Y-109819060D01*
X163619256Y-109658765D01*
X163619257Y-109658764D01*
X163674855Y-109487648D01*
X163674856Y-109487644D01*
X163703000Y-109309954D01*
X163703000Y-109130045D01*
X163674856Y-108952355D01*
X163674855Y-108952351D01*
X163619256Y-108781235D01*
X163537582Y-108620941D01*
X163537578Y-108620935D01*
X163491666Y-108557741D01*
X163491665Y-108557740D01*
X162990234Y-109059172D01*
X162986042Y-109043527D01*
X162925851Y-108939273D01*
X162840727Y-108854149D01*
X162736473Y-108793958D01*
X162720824Y-108789765D01*
X163222257Y-108288333D01*
X163222257Y-108288332D01*
X163159064Y-108242421D01*
X163159058Y-108242417D01*
X162998764Y-108160743D01*
X162998764Y-108160742D01*
X162827648Y-108105144D01*
X162827644Y-108105143D01*
X162649954Y-108077000D01*
X162470046Y-108077000D01*
X162292355Y-108105143D01*
X162292351Y-108105144D01*
X162121235Y-108160742D01*
X162121235Y-108160743D01*
X161960940Y-108242417D01*
X161960926Y-108242426D01*
X161897741Y-108288331D01*
X161897741Y-108288333D01*
X162399173Y-108789765D01*
X162383527Y-108793958D01*
X162279273Y-108854149D01*
X162194149Y-108939273D01*
X162133958Y-109043527D01*
X162129765Y-109059173D01*
X161628333Y-108557741D01*
X161628331Y-108557741D01*
X161582426Y-108620926D01*
X161582417Y-108620940D01*
X161500743Y-108781235D01*
X161500742Y-108781235D01*
X161445144Y-108952351D01*
X161445143Y-108952355D01*
X161417000Y-109130045D01*
X161417000Y-109309954D01*
X161445143Y-109487644D01*
X161445144Y-109487648D01*
X161500743Y-109658764D01*
X161582417Y-109819058D01*
X161582421Y-109819064D01*
X161628332Y-109882257D01*
X161628333Y-109882257D01*
X162129765Y-109380826D01*
X162133958Y-109396473D01*
X162194149Y-109500727D01*
X162279273Y-109585851D01*
X162383527Y-109646042D01*
X162399172Y-109650234D01*
X161897740Y-110151665D01*
X161897740Y-110151666D01*
X161906588Y-110158094D01*
X161945572Y-110208650D01*
X161951035Y-110272256D01*
X161921243Y-110328719D01*
X161865654Y-110360111D01*
X161839993Y-110363056D01*
X160697633Y-110363065D01*
X160636378Y-110345080D01*
X160594571Y-110296832D01*
X160585485Y-110233642D01*
X160612005Y-110175570D01*
X160631030Y-110158107D01*
X160748393Y-110072839D01*
X160872839Y-109948393D01*
X160976285Y-109806012D01*
X161056184Y-109649201D01*
X161110568Y-109481822D01*
X161138100Y-109307996D01*
X161138100Y-109132004D01*
X161110568Y-108958178D01*
X161056184Y-108790799D01*
X160976285Y-108633988D01*
X160872839Y-108491607D01*
X160748393Y-108367161D01*
X160737376Y-108359157D01*
X160670666Y-108310689D01*
X160606012Y-108263715D01*
X160449201Y-108183816D01*
X160281822Y-108129432D01*
X160281819Y-108129431D01*
X160281813Y-108129430D01*
X160164383Y-108110831D01*
X160107996Y-108101900D01*
X159932004Y-108101900D01*
X159893226Y-108108042D01*
X159758186Y-108129430D01*
X159758178Y-108129432D01*
X159590796Y-108183816D01*
X159586688Y-108185519D01*
X159585963Y-108183770D01*
X159531008Y-108194075D01*
X159471861Y-108170049D01*
X159462232Y-108161459D01*
X159262285Y-107961512D01*
X159231689Y-107905481D01*
X159229100Y-107881397D01*
X159229100Y-102918419D01*
X159247086Y-102857164D01*
X159273238Y-102830549D01*
X159272430Y-102829564D01*
X159276728Y-102826035D01*
X159276735Y-102826031D01*
X159364361Y-102738405D01*
X159433208Y-102635368D01*
X159480631Y-102520879D01*
X159504807Y-102399338D01*
X159504807Y-102275416D01*
X159480631Y-102153875D01*
X159433208Y-102039386D01*
X159417168Y-102015381D01*
X159364364Y-101936353D01*
X159364358Y-101936346D01*
X159276737Y-101848725D01*
X159272432Y-101845192D01*
X159273694Y-101843653D01*
X159238508Y-101801537D01*
X159229100Y-101756334D01*
X159229100Y-100501913D01*
X159247086Y-100440658D01*
X159295333Y-100398852D01*
X159358524Y-100389766D01*
X159394252Y-100404274D01*
X159395372Y-100402078D01*
X159522319Y-100466760D01*
X159522325Y-100466762D01*
X159621057Y-100482399D01*
X159854899Y-100482399D01*
X160235900Y-100482399D01*
X160469747Y-100482399D01*
X160568478Y-100466761D01*
X160687482Y-100406126D01*
X160781926Y-100311682D01*
X160842560Y-100192680D01*
X160842562Y-100192674D01*
X160858200Y-100093942D01*
X160858200Y-99529900D01*
X160235900Y-99529900D01*
X160235900Y-100482399D01*
X159854899Y-100482399D01*
X159854900Y-100482398D01*
X159854900Y-99148900D01*
X160235900Y-99148900D01*
X160858199Y-99148900D01*
X160858199Y-98584853D01*
X160842561Y-98486121D01*
X160781926Y-98367117D01*
X160687482Y-98272673D01*
X160568480Y-98212039D01*
X160568474Y-98212037D01*
X160469742Y-98196400D01*
X160235900Y-98196400D01*
X160235900Y-99148900D01*
X159854900Y-99148900D01*
X159854900Y-98196400D01*
X159621052Y-98196400D01*
X159522321Y-98212038D01*
X159395372Y-98276722D01*
X159393944Y-98273920D01*
X159348856Y-98290002D01*
X159286676Y-98275536D01*
X159242188Y-98229749D01*
X159229100Y-98176886D01*
X159229100Y-95318602D01*
X159247086Y-95257347D01*
X159262281Y-95238491D01*
X159462233Y-95038538D01*
X159518262Y-95007944D01*
X159581940Y-95012498D01*
X159586646Y-95014568D01*
X159586683Y-95014479D01*
X159590792Y-95016180D01*
X159590799Y-95016184D01*
X159758178Y-95070568D01*
X159932004Y-95098100D01*
X159932006Y-95098100D01*
X160107994Y-95098100D01*
X160107996Y-95098100D01*
X160281822Y-95070568D01*
X160449201Y-95016184D01*
X160606012Y-94936285D01*
X160748393Y-94832839D01*
X160872839Y-94708393D01*
X160976285Y-94566012D01*
X161056184Y-94409201D01*
X161110568Y-94241822D01*
X161138100Y-94067996D01*
X161138100Y-93892004D01*
X161110568Y-93718178D01*
X161056184Y-93550799D01*
X160976285Y-93393988D01*
X160872839Y-93251607D01*
X160748393Y-93127161D01*
X160748390Y-93127159D01*
X160667562Y-93068434D01*
X160631215Y-93042026D01*
X160592232Y-92991471D01*
X160586769Y-92927865D01*
X160616561Y-92871402D01*
X160672150Y-92840009D01*
X160697802Y-92837065D01*
X161882203Y-92837056D01*
X161909850Y-92845173D01*
X161937913Y-92851699D01*
X161940243Y-92854097D01*
X161943454Y-92855040D01*
X161962323Y-92876817D01*
X161982406Y-92897481D01*
X161983070Y-92900759D01*
X161985261Y-92903288D01*
X161989362Y-92931814D01*
X161995084Y-92960050D01*
X161993870Y-92963166D01*
X161994347Y-92966478D01*
X161982376Y-92992690D01*
X161971923Y-93019541D01*
X161968671Y-93022701D01*
X161967827Y-93024550D01*
X161948797Y-93042016D01*
X161831608Y-93127159D01*
X161707160Y-93251607D01*
X161603715Y-93393988D01*
X161523818Y-93550794D01*
X161523816Y-93550798D01*
X161469432Y-93718178D01*
X161469430Y-93718186D01*
X161441900Y-93892005D01*
X161441900Y-94067994D01*
X161469430Y-94241813D01*
X161469431Y-94241819D01*
X161469432Y-94241822D01*
X161523816Y-94409201D01*
X161603715Y-94566012D01*
X161707161Y-94708393D01*
X161831607Y-94832839D01*
X161973988Y-94936285D01*
X162130799Y-95016184D01*
X162298178Y-95070568D01*
X162472004Y-95098100D01*
X162472006Y-95098100D01*
X162647994Y-95098100D01*
X162647996Y-95098100D01*
X162716585Y-95087236D01*
X162779899Y-95095418D01*
X162814424Y-95119026D01*
X163463949Y-95768551D01*
X163494545Y-95824582D01*
X163494957Y-95870770D01*
X163467700Y-96007795D01*
X163467700Y-96142202D01*
X163493921Y-96274020D01*
X163545353Y-96398189D01*
X163574842Y-96442322D01*
X163620023Y-96509941D01*
X163715059Y-96604977D01*
X163826810Y-96679646D01*
X163950981Y-96731079D01*
X164082799Y-96757300D01*
X164082802Y-96757300D01*
X164217198Y-96757300D01*
X164217201Y-96757300D01*
X164349019Y-96731079D01*
X164473190Y-96679646D01*
X164584941Y-96604977D01*
X164679977Y-96509941D01*
X164754646Y-96398190D01*
X164806079Y-96274019D01*
X164832300Y-96142201D01*
X164832300Y-96007799D01*
X164806079Y-95875981D01*
X164754646Y-95751810D01*
X164679977Y-95640059D01*
X164584941Y-95545023D01*
X164473190Y-95470354D01*
X164473191Y-95470354D01*
X164473189Y-95470353D01*
X164349020Y-95418921D01*
X164217202Y-95392700D01*
X164217201Y-95392700D01*
X164142232Y-95392700D01*
X164080977Y-95374714D01*
X164062117Y-95359515D01*
X163480488Y-94777886D01*
X163449892Y-94721855D01*
X163454447Y-94658177D01*
X163468941Y-94631175D01*
X163516285Y-94566012D01*
X163596184Y-94409201D01*
X163650568Y-94241822D01*
X163678100Y-94067996D01*
X163678100Y-93892004D01*
X163650568Y-93718178D01*
X163596184Y-93550799D01*
X163516285Y-93393988D01*
X163412839Y-93251607D01*
X163288393Y-93127161D01*
X163288390Y-93127159D01*
X163228938Y-93083965D01*
X163171186Y-93042005D01*
X163132203Y-92991450D01*
X163126740Y-92927844D01*
X163156532Y-92871381D01*
X163212121Y-92839988D01*
X163237771Y-92837045D01*
X163893796Y-92837039D01*
X163955049Y-92855025D01*
G37*
%TD.AperFunction*%
%TD*%
M02*
