%TF.GenerationSoftware,KiCad,Pcbnew,9.0.1*%
%TF.CreationDate,2025-04-20T22:50:28-04:00*%
%TF.ProjectId,NanoV3.3_Min,4e616e6f-5633-42e3-935f-4d696e2e6b69,rev?*%
%TF.SameCoordinates,Original*%
%TF.FileFunction,Soldermask,Top*%
%TF.FilePolarity,Negative*%
%FSLAX46Y46*%
G04 Gerber Fmt 4.6, Leading zero omitted, Abs format (unit mm)*
G04 Created by KiCad (PCBNEW 9.0.1) date 2025-04-20 22:50:28*
%MOMM*%
%LPD*%
G01*
G04 APERTURE LIST*
G04 Aperture macros list*
%AMRoundRect*
0 Rectangle with rounded corners*
0 $1 Rounding radius*
0 $2 $3 $4 $5 $6 $7 $8 $9 X,Y pos of 4 corners*
0 Add a 4 corners polygon primitive as box body*
4,1,4,$2,$3,$4,$5,$6,$7,$8,$9,$2,$3,0*
0 Add four circle primitives for the rounded corners*
1,1,$1+$1,$2,$3*
1,1,$1+$1,$4,$5*
1,1,$1+$1,$6,$7*
1,1,$1+$1,$8,$9*
0 Add four rect primitives between the rounded corners*
20,1,$1+$1,$2,$3,$4,$5,0*
20,1,$1+$1,$4,$5,$6,$7,0*
20,1,$1+$1,$6,$7,$8,$9,0*
20,1,$1+$1,$8,$9,$2,$3,0*%
G04 Aperture macros list end*
%ADD10C,0.000000*%
%ADD11RoundRect,0.180000X0.420000X0.420000X-0.420000X0.420000X-0.420000X-0.420000X0.420000X-0.420000X0*%
%ADD12RoundRect,0.105000X-0.459619X-0.806102X0.806102X0.459619X0.459619X0.806102X-0.806102X-0.459619X0*%
%ADD13RoundRect,0.180000X-0.420000X-0.420000X0.420000X-0.420000X0.420000X0.420000X-0.420000X0.420000X0*%
%ADD14RoundRect,0.100000X-0.575000X0.100000X-0.575000X-0.100000X0.575000X-0.100000X0.575000X0.100000X0*%
%ADD15O,1.600000X0.900000*%
%ADD16RoundRect,0.250000X-0.450000X0.550000X-0.450000X-0.550000X0.450000X-0.550000X0.450000X0.550000X0*%
%ADD17RoundRect,0.250000X-0.700000X0.700000X-0.700000X-0.700000X0.700000X-0.700000X0.700000X0.700000X0*%
%ADD18RoundRect,0.112000X-0.188090X-0.148492X-0.148492X-0.188090X0.188090X0.148492X0.148492X0.188090X0*%
%ADD19RoundRect,0.112000X0.148492X-0.188090X0.188090X-0.148492X-0.148492X0.188090X-0.188090X0.148492X0*%
%ADD20R,1.778000X1.778000*%
%ADD21C,1.778000*%
G04 APERTURE END LIST*
D10*
%TO.C,IC1*%
G36*
X141569198Y-100362504D02*
G01*
X141787664Y-100442019D01*
X141989003Y-100558262D01*
X142167099Y-100707701D01*
X142316538Y-100885797D01*
X142432781Y-101087136D01*
X142512296Y-101305602D01*
X142552667Y-101534557D01*
X142552667Y-101767043D01*
X142512296Y-101995998D01*
X142432781Y-102214464D01*
X142316538Y-102415803D01*
X142167099Y-102593899D01*
X141989003Y-102743338D01*
X141787664Y-102859581D01*
X141569198Y-102939096D01*
X141340243Y-102979467D01*
X141107757Y-102979467D01*
X140878802Y-102939096D01*
X140657701Y-102858623D01*
X140282704Y-102596047D01*
X140131462Y-102415803D01*
X140015219Y-102214464D01*
X139935704Y-101995998D01*
X139895333Y-101767043D01*
X139895333Y-101534557D01*
X139935704Y-101305602D01*
X140015219Y-101087136D01*
X140131462Y-100885797D01*
X140280901Y-100707701D01*
X140458997Y-100558262D01*
X140660336Y-100442019D01*
X140878802Y-100362504D01*
X141107757Y-100322133D01*
X141340243Y-100322133D01*
X141569198Y-100362504D01*
G37*
%TD*%
D11*
%TO.C,TX1*%
X155736000Y-97028000D03*
X153636000Y-97028000D03*
%TD*%
%TO.C,RX1*%
X155736000Y-100076000D03*
X153636000Y-100076000D03*
%TD*%
D12*
%TO.C,Y1*%
X145876293Y-96576493D03*
X146583400Y-97283600D03*
X147290507Y-97990707D03*
%TD*%
D13*
%TO.C,PWR1*%
X153600000Y-103375000D03*
X155700000Y-103375000D03*
%TD*%
D14*
%TO.C,J3*%
X130025000Y-100175000D03*
X130025000Y-100825000D03*
X130025000Y-101475000D03*
X130025000Y-102125000D03*
X130025000Y-102775000D03*
D15*
X127350000Y-98175000D03*
D16*
X129800000Y-98275000D03*
D17*
X127350000Y-100275000D03*
X127350000Y-102675000D03*
D16*
X129800000Y-104675000D03*
D15*
X127350000Y-104775000D03*
%TD*%
D18*
%TO.C,IC1*%
X144193848Y-101155825D03*
X143840295Y-100802272D03*
X143486742Y-100448718D03*
X143133188Y-100095165D03*
X142779635Y-99741612D03*
X142426082Y-99388058D03*
X142072528Y-99034505D03*
X141718975Y-98680952D03*
D19*
X140729025Y-98680952D03*
X140375472Y-99034505D03*
X140021918Y-99388058D03*
X139668365Y-99741612D03*
X139314812Y-100095165D03*
X138961258Y-100448718D03*
X138607705Y-100802272D03*
X138254152Y-101155825D03*
D18*
X138254152Y-102145775D03*
X138607705Y-102499328D03*
X138961258Y-102852882D03*
X139314812Y-103206435D03*
X139668365Y-103559988D03*
X140021918Y-103913542D03*
X140375472Y-104267095D03*
X140729025Y-104620648D03*
D19*
X141718975Y-104620648D03*
X142072528Y-104267095D03*
X142426082Y-103913542D03*
X142779635Y-103559988D03*
X143133188Y-103206435D03*
X143486742Y-102852882D03*
X143840295Y-102499328D03*
X144193848Y-102145775D03*
%TD*%
D20*
%TO.C,J1*%
X165100000Y-93980000D03*
D21*
X162560000Y-93980000D03*
X160020000Y-93980000D03*
X157480000Y-93980000D03*
X154940000Y-93980000D03*
X152400000Y-93980000D03*
X149860000Y-93980000D03*
X147320000Y-93980000D03*
X144780000Y-93980000D03*
X142240000Y-93980000D03*
X139700000Y-93980000D03*
X137160000Y-93980000D03*
X134620000Y-93980000D03*
X132080000Y-93980000D03*
X129540000Y-93980000D03*
%TD*%
D20*
%TO.C,J2*%
X165100000Y-109220000D03*
D21*
X162560000Y-109220000D03*
X160020000Y-109220000D03*
X157480000Y-109220000D03*
X154940000Y-109220000D03*
X152400000Y-109220000D03*
X149860000Y-109220000D03*
X147320000Y-109220000D03*
X144780000Y-109220000D03*
X142240000Y-109220000D03*
X139700000Y-109220000D03*
X137160000Y-109220000D03*
X134620000Y-109220000D03*
X132080000Y-109220000D03*
X129540000Y-109220000D03*
%TD*%
M02*
