%TF.GenerationSoftware,KiCad,Pcbnew,9.0.1*%
%TF.CreationDate,2025-04-20T22:50:28-04:00*%
%TF.ProjectId,NanoV3.3_Min,4e616e6f-5633-42e3-935f-4d696e2e6b69,rev?*%
%TF.SameCoordinates,Original*%
%TF.FileFunction,Soldermask,Bot*%
%TF.FilePolarity,Negative*%
%FSLAX46Y46*%
G04 Gerber Fmt 4.6, Leading zero omitted, Abs format (unit mm)*
G04 Created by KiCad (PCBNEW 9.0.1) date 2025-04-20 22:50:28*
%MOMM*%
%LPD*%
G01*
G04 APERTURE LIST*
G04 Aperture macros list*
%AMRoundRect*
0 Rectangle with rounded corners*
0 $1 Rounding radius*
0 $2 $3 $4 $5 $6 $7 $8 $9 X,Y pos of 4 corners*
0 Add a 4 corners polygon primitive as box body*
4,1,4,$2,$3,$4,$5,$6,$7,$8,$9,$2,$3,0*
0 Add four circle primitives for the rounded corners*
1,1,$1+$1,$2,$3*
1,1,$1+$1,$4,$5*
1,1,$1+$1,$6,$7*
1,1,$1+$1,$8,$9*
0 Add four rect primitives between the rounded corners*
20,1,$1+$1,$2,$3,$4,$5,0*
20,1,$1+$1,$4,$5,$6,$7,0*
20,1,$1+$1,$6,$7,$8,$9,0*
20,1,$1+$1,$8,$9,$2,$3,0*%
G04 Aperture macros list end*
%ADD10RoundRect,0.500000X-0.000010X-0.000010X0.000010X-0.000010X0.000010X0.000010X-0.000010X0.000010X0*%
%ADD11O,1.600000X0.900000*%
%ADD12RoundRect,0.359360X-0.089840X0.190640X-0.089840X-0.190640X0.089840X-0.190640X0.089840X0.190640X0*%
%ADD13RoundRect,0.381000X0.889000X-0.952500X0.889000X0.952500X-0.889000X0.952500X-0.889000X-0.952500X0*%
%ADD14RoundRect,0.114300X0.520700X-0.266700X0.520700X0.266700X-0.520700X0.266700X-0.520700X-0.266700X0*%
%ADD15R,1.778000X1.778000*%
%ADD16C,1.778000*%
%ADD17RoundRect,0.359360X0.089840X-0.190640X0.089840X0.190640X-0.089840X0.190640X-0.089840X-0.190640X0*%
%ADD18RoundRect,0.076200X0.248800X-0.173800X0.248800X0.173800X-0.248800X0.173800X-0.248800X-0.173800X0*%
%ADD19RoundRect,0.167640X0.721360X-0.391160X0.721360X0.391160X-0.721360X0.391160X-0.721360X-0.391160X0*%
%ADD20RoundRect,0.076200X-0.248800X0.173800X-0.248800X-0.173800X0.248800X-0.173800X0.248800X0.173800X0*%
%ADD21RoundRect,0.190500X0.000010X0.825500X-0.000010X0.825500X-0.000010X-0.825500X0.000010X-0.825500X0*%
%ADD22RoundRect,0.142500X-0.332500X-0.357500X0.332500X-0.357500X0.332500X0.357500X-0.332500X0.357500X0*%
%ADD23RoundRect,0.359360X0.190640X0.089840X-0.190640X0.089840X-0.190640X-0.089840X0.190640X-0.089840X0*%
%ADD24RoundRect,0.167640X-0.391160X-0.721360X0.391160X-0.721360X0.391160X0.721360X-0.391160X0.721360X0*%
G04 APERTURE END LIST*
D10*
%TO.C,D+1*%
X126650000Y-96225000D03*
%TD*%
D11*
%TO.C,J3*%
X127350000Y-98175000D03*
X127350000Y-104775000D03*
%TD*%
D10*
%TO.C,D-1*%
X128050000Y-95475000D03*
%TD*%
D12*
%TO.C,C4*%
X144703800Y-104368600D03*
X146481800Y-104368600D03*
%TD*%
D13*
%TO.C,D1*%
X154305000Y-98871000D03*
D14*
X154305000Y-96521000D03*
%TD*%
D15*
%TO.C,J1*%
X165100000Y-93980000D03*
D16*
X162560000Y-93980000D03*
X160020000Y-93980000D03*
X157480000Y-93980000D03*
X154940000Y-93980000D03*
X152400000Y-93980000D03*
X149860000Y-93980000D03*
X147320000Y-93980000D03*
X144780000Y-93980000D03*
X142240000Y-93980000D03*
X139700000Y-93980000D03*
X137160000Y-93980000D03*
X134620000Y-93980000D03*
X132080000Y-93980000D03*
X129540000Y-93980000D03*
%TD*%
D17*
%TO.C,C5*%
X143433800Y-104444800D03*
X141655800Y-104444800D03*
%TD*%
D18*
%TO.C,RP2*%
X148677000Y-99498000D03*
X148677000Y-98698000D03*
X148677000Y-97898000D03*
X148677000Y-97098000D03*
X150027000Y-97098000D03*
X150027000Y-97898000D03*
X150027000Y-98698000D03*
X150027000Y-99498000D03*
%TD*%
D12*
%TO.C,C7*%
X156133800Y-96647000D03*
X157911800Y-96647000D03*
%TD*%
D17*
%TO.C,C1*%
X133654000Y-107467400D03*
X131876000Y-107467400D03*
%TD*%
D19*
%TO.C,C6*%
X127325000Y-102847000D03*
X127325000Y-100053000D03*
%TD*%
D15*
%TO.C,J2*%
X165100000Y-109220000D03*
D16*
X162560000Y-109220000D03*
X160020000Y-109220000D03*
X157480000Y-109220000D03*
X154940000Y-109220000D03*
X152400000Y-109220000D03*
X149860000Y-109220000D03*
X147320000Y-109220000D03*
X144780000Y-109220000D03*
X142240000Y-109220000D03*
X139700000Y-109220000D03*
X137160000Y-109220000D03*
X134620000Y-109220000D03*
X132080000Y-109220000D03*
X129540000Y-109220000D03*
%TD*%
D20*
%TO.C,RP1*%
X150025000Y-103500000D03*
X150025000Y-104300000D03*
X150025000Y-105100000D03*
X150025000Y-105900000D03*
X148675000Y-105900000D03*
X148675000Y-105100000D03*
X148675000Y-104300000D03*
X148675000Y-103500000D03*
%TD*%
D21*
%TO.C,IC2*%
X140335000Y-105181400D03*
X139684800Y-105181400D03*
X139035000Y-105181400D03*
X138385000Y-105181400D03*
X137734800Y-105181400D03*
X137085100Y-105181400D03*
X136435300Y-105181400D03*
X135785100Y-105181400D03*
X135135100Y-105181400D03*
X134484900Y-105181400D03*
X133834600Y-105181400D03*
X133184900Y-105181400D03*
X132535200Y-105181400D03*
X131884900Y-105181400D03*
X131884900Y-98069400D03*
X132535200Y-98069400D03*
X133184900Y-98069400D03*
X133834600Y-98069400D03*
X134484900Y-98069400D03*
X135135100Y-98069400D03*
X135785100Y-98069400D03*
X136435300Y-98069400D03*
X137085100Y-98069400D03*
X137734800Y-98069400D03*
X138385000Y-98069400D03*
X139035000Y-98069400D03*
X139685300Y-98069400D03*
X140335000Y-98069400D03*
%TD*%
D22*
%TO.C,F1*%
X127600000Y-106275000D03*
X129200000Y-106275000D03*
%TD*%
D23*
%TO.C,C8*%
X131175000Y-100697000D03*
X131175000Y-102475000D03*
%TD*%
D24*
%TO.C,C3*%
X157251400Y-99339400D03*
X160045400Y-99339400D03*
%TD*%
D17*
%TO.C,C2*%
X156260800Y-101219000D03*
X154482800Y-101219000D03*
%TD*%
M02*
